<svg width="412" height="99" viewBox="0 0 412 99" fill="none" xmlns="http://www.w3.org/2000/svg">
<g filter="url(#filter0_d_14_2)">
<mask id="path-1-outside-1_14_2" maskUnits="userSpaceOnUse" x="146" y="0" width="259" height="91" fill="black">
<rect fill="white" x="146" width="259" height="91"/>
<path d="M154.207 25.3115C153.4 25.3115 152.632 25.1579 151.902 24.8506C151.191 24.5241 150.567 24.1016 150.029 23.583C149.492 23.0452 149.069 22.4211 148.762 21.7104C148.454 20.9806 148.301 20.2124 148.301 19.4058V7.59424C148.301 6.7876 148.454 6.02897 148.762 5.31836C149.069 4.58854 149.492 3.96436 150.029 3.4458C150.567 2.90804 151.191 2.48551 151.902 2.17822C152.632 1.85173 153.4 1.68848 154.207 1.68848H174.257C175.064 1.68848 175.823 1.85173 176.533 2.17822C177.263 2.48551 177.897 2.90804 178.435 3.4458C178.972 3.96436 179.395 4.58854 179.702 5.31836C180.009 6.02897 180.163 6.7876 180.163 7.59424V12.9238H174.257V7.59424H154.207V19.4058H174.257C175.064 19.4058 175.823 19.5594 176.533 19.8667C177.263 20.174 177.897 20.5965 178.435 21.1343C178.972 21.672 179.395 22.3058 179.702 23.0356C180.009 23.7463 180.163 24.5049 180.163 25.3115V37.0942C180.163 37.9009 180.009 38.6691 179.702 39.3989C179.395 40.1095 178.972 40.7337 178.435 41.2715C177.897 41.8092 177.263 42.2318 176.533 42.5391C175.823 42.8464 175.064 43 174.257 43H153.63C152.824 43 152.056 42.8464 151.326 42.5391C150.615 42.2318 149.991 41.8092 149.453 41.2715C148.915 40.7337 148.493 40.1095 148.186 39.3989C147.878 38.6691 147.725 37.9009 147.725 37.0942V31.7935H153.63V37.0942H174.257V25.3115H154.207ZM184.346 12.3188H189.993V37.3247H205.808V12.3188H211.484V43H205.808V37.8145C205.751 38.5251 205.559 39.1973 205.232 39.8311C204.906 40.4648 204.483 41.0218 203.965 41.502C203.465 41.9629 202.889 42.3278 202.236 42.5967C201.583 42.8656 200.892 43 200.162 43H189.993C189.224 43 188.495 42.856 187.803 42.5679C187.112 42.2606 186.507 41.8573 185.988 41.3579C185.489 40.8394 185.086 40.2344 184.778 39.543C184.49 38.8516 184.346 38.1121 184.346 37.3247V12.3188ZM233.557 37.3247V30.209H220.103C219.316 30.209 218.576 30.0649 217.885 29.7769C217.194 29.4696 216.589 29.0662 216.07 28.5669C215.571 28.0483 215.167 27.4434 214.86 26.752C214.572 26.0605 214.428 25.3211 214.428 24.5337V17.9941C214.428 17.2067 214.572 16.4673 214.86 15.7759C215.167 15.0845 215.571 14.4891 216.07 13.9897C216.589 13.4712 217.194 13.0679 217.885 12.7798C218.576 12.4725 219.316 12.3188 220.103 12.3188H238.051V17.9941H220.103V24.5337H233.557C234.344 24.5337 235.074 24.6873 235.746 24.9946C236.438 25.2827 237.043 25.686 237.561 26.2046C238.08 26.7039 238.483 27.2993 238.771 27.9907C239.079 28.6821 239.232 29.4215 239.232 30.209V37.3247C239.232 38.1121 239.079 38.8516 238.771 39.543C238.483 40.2344 238.08 40.8394 237.561 41.3579C237.043 41.8573 236.438 42.2606 235.746 42.5679C235.074 42.856 234.344 43 233.557 43H214.428V37.3247H233.557ZM242.205 29.604C242.205 28.8166 242.349 28.0868 242.637 27.4146C242.945 26.7231 243.348 26.1182 243.847 25.5996C244.366 25.0811 244.971 24.6777 245.662 24.3896C246.354 24.0824 247.084 23.9287 247.852 23.9287H262.487V17.9941H243.963V12.3188H262.487C263.274 12.3188 264.013 12.4725 264.705 12.7798C265.396 13.0679 265.992 13.4712 266.491 13.9897C267.009 14.4891 267.413 15.0845 267.701 15.7759C268.008 16.4673 268.162 17.2067 268.162 17.9941V43H262.487V37.8145C262.429 38.5251 262.237 39.1973 261.91 39.8311C261.584 40.4648 261.161 41.0218 260.643 41.502C260.143 41.9629 259.567 42.3278 258.914 42.5967C258.261 42.8656 257.57 43 256.84 43H247.852C247.084 43 246.354 42.856 245.662 42.5679C244.971 42.2606 244.366 41.8573 243.847 41.3579C243.348 40.8394 242.945 40.2344 242.637 39.543C242.349 38.8516 242.205 38.1121 242.205 37.3247V29.604ZM247.852 37.3247H262.487V29.604H247.852V37.3247ZM298.878 43H293.202V17.9941H277.386V43H271.74V12.3188H277.386V17.7349C277.425 16.9858 277.598 16.2848 277.905 15.6318C278.212 14.9596 278.615 14.3835 279.115 13.9033C279.633 13.404 280.229 13.0199 280.901 12.751C281.573 12.4629 282.293 12.3188 283.062 12.3188H293.202C293.99 12.3188 294.729 12.4725 295.421 12.7798C296.112 13.0679 296.707 13.4712 297.207 13.9897C297.725 14.4891 298.129 15.0845 298.417 15.7759C298.724 16.4673 298.878 17.2067 298.878 17.9941V43ZM329.564 43H323.889V17.9941H308.073V43H302.427V12.3188H308.073V17.7349C308.112 16.9858 308.285 16.2848 308.592 15.6318C308.899 14.9596 309.302 14.3835 309.802 13.9033C310.32 13.404 310.916 13.0199 311.588 12.751C312.26 12.4629 312.98 12.3188 313.749 12.3188H323.889C324.677 12.3188 325.416 12.4725 326.107 12.7798C326.799 13.0679 327.394 13.4712 327.894 13.9897C328.412 14.4891 328.815 15.0845 329.104 15.7759C329.411 16.4673 329.564 17.2067 329.564 17.9941V43ZM359.07 30.5547H338.76V37.3247H359.07V43H338.76C337.992 43 337.262 42.856 336.571 42.5679C335.879 42.2606 335.274 41.8573 334.756 41.3579C334.256 40.8394 333.853 40.2344 333.546 39.543C333.258 38.8516 333.114 38.1121 333.114 37.3247V17.9941C333.114 17.2067 333.258 16.4673 333.546 15.7759C333.853 15.0845 334.256 14.4891 334.756 13.9897C335.274 13.4712 335.879 13.0679 336.571 12.7798C337.262 12.4725 337.992 12.3188 338.76 12.3188H353.395C354.182 12.3188 354.922 12.4725 355.613 12.7798C356.305 13.0679 356.9 13.4712 357.399 13.9897C357.918 14.4891 358.321 15.0845 358.609 15.7759C358.917 16.4673 359.07 17.2067 359.07 17.9941V30.5547ZM338.76 17.9941V24.8794H353.395V17.9941H338.76ZM175.208 68.4512C176.072 68.7201 176.86 69.1042 177.57 69.6035C178.281 70.1029 178.886 70.7463 179.385 71.5337C179.885 72.3019 180.269 73.2142 180.538 74.2705C180.806 75.3268 180.941 76.5368 180.941 77.9004V79.9746C180.941 86.6582 177.599 90 170.916 90H148.301V48.6885H169.734C176.418 48.6885 179.76 52.0399 179.76 58.7427V59.4917C179.76 61.8156 179.385 63.717 178.636 65.1958C177.906 66.6554 176.764 67.7406 175.208 68.4512ZM154.091 71.9946V84.2095H170.743C172.298 84.2095 173.422 83.8446 174.113 83.1147C174.805 82.3849 175.15 81.2422 175.15 79.6865V76.4888C175.15 74.9139 174.805 73.7712 174.113 73.0605C173.422 72.3499 172.298 71.9946 170.743 71.9946H154.091ZM154.091 54.479V66.2329H169.965C171.386 66.1753 172.404 65.7912 173.019 65.0806C173.652 64.3507 173.969 63.2368 173.969 61.7388V59.0308C173.969 57.4559 173.624 56.3035 172.932 55.5737C172.241 54.8439 171.117 54.479 169.562 54.479H154.091ZM209.842 84.3247C209.842 85.1121 209.688 85.8516 209.381 86.543C209.093 87.2344 208.689 87.8394 208.171 88.3579C207.671 88.8573 207.076 89.2606 206.385 89.5679C205.712 89.856 204.983 90 204.195 90H188.955C188.187 90 187.457 89.856 186.766 89.5679C186.075 89.2606 185.47 88.8573 184.951 88.3579C184.452 87.8394 184.048 87.2344 183.741 86.543C183.453 85.8516 183.309 85.1121 183.309 84.3247V64.9941C183.309 64.2067 183.453 63.4673 183.741 62.7759C184.048 62.0845 184.452 61.4891 184.951 60.9897C185.47 60.4712 186.075 60.0679 186.766 59.7798C187.457 59.4725 188.187 59.3188 188.955 59.3188H204.195C204.983 59.3188 205.712 59.4725 206.385 59.7798C207.076 60.0679 207.671 60.4712 208.171 60.9897C208.689 61.4891 209.093 62.0845 209.381 62.7759C209.688 63.4673 209.842 64.2067 209.842 64.9941V84.3247ZM188.955 64.9941V84.3247H204.195V64.9941H188.955ZM219.066 64.9941V90H213.42V59.3188H219.066V64.7349C219.105 63.9858 219.277 63.2848 219.585 62.6318C219.892 61.9596 220.295 61.3835 220.795 60.9033C221.313 60.404 221.909 60.0199 222.581 59.751C223.253 59.4629 223.973 59.3188 224.742 59.3188H230.762C231.55 59.3188 232.28 59.4725 232.952 59.7798C233.643 60.0679 234.248 60.4712 234.767 60.9897C235.285 61.4891 235.689 62.0845 235.977 62.7759C236.284 63.4673 236.438 64.2067 236.438 64.9941V70.1797H230.762V64.9941H219.066ZM243.242 64.9941V84.3247H257.877V79.1392H263.552V84.3247C263.552 85.1121 263.399 85.8516 263.092 86.543C262.803 87.2344 262.4 87.8394 261.882 88.3579C261.382 88.8573 260.787 89.2606 260.095 89.5679C259.404 89.856 258.665 90 257.877 90H243.242C242.474 90 241.744 89.856 241.053 89.5679C240.362 89.2606 239.757 88.8573 239.238 88.3579C238.739 87.8394 238.335 87.2344 238.028 86.543C237.74 85.8516 237.596 85.1121 237.596 84.3247V64.9941C237.596 64.2067 237.74 63.4673 238.028 62.7759C238.335 62.0845 238.739 61.4891 239.238 60.9897C239.757 60.4712 240.362 60.0679 241.053 59.7798C241.744 59.4725 242.474 59.3188 243.242 59.3188H257.877C258.665 59.3188 259.404 59.4725 260.095 59.7798C260.787 60.0679 261.382 60.4712 261.882 60.9897C262.4 61.4891 262.803 62.0845 263.092 62.7759C263.399 63.4673 263.552 64.2067 263.552 64.9941V70.1797H257.877V64.9941H243.242ZM294.268 90H288.593V64.9941H272.777V90H267.13V47.5073H272.777V64.7349C272.815 63.9858 272.988 63.2848 273.296 62.6318C273.603 61.9596 274.006 61.3835 274.505 60.9033C275.024 60.404 275.619 60.0199 276.292 59.751C276.964 59.4629 277.684 59.3188 278.452 59.3188H288.593C289.38 59.3188 290.12 59.4725 290.811 59.7798C291.503 60.0679 292.098 60.4712 292.597 60.9897C293.116 61.4891 293.519 62.0845 293.807 62.7759C294.115 63.4673 294.268 64.2067 294.268 64.9941V90ZM297.817 76.604C297.817 75.8166 297.961 75.0868 298.25 74.4146C298.557 73.7231 298.96 73.1182 299.459 72.5996C299.978 72.0811 300.583 71.6777 301.274 71.3896C301.966 71.0824 302.696 70.9287 303.464 70.9287H318.099V64.9941H299.575V59.3188H318.099C318.886 59.3188 319.625 59.4725 320.317 59.7798C321.008 60.0679 321.604 60.4712 322.103 60.9897C322.622 61.4891 323.025 62.0845 323.313 62.7759C323.62 63.4673 323.774 64.2067 323.774 64.9941V90H318.099V84.8145C318.041 85.5251 317.849 86.1973 317.522 86.8311C317.196 87.4648 316.773 88.0218 316.255 88.502C315.756 88.9629 315.179 89.3278 314.526 89.5967C313.873 89.8656 313.182 90 312.452 90H303.464C302.696 90 301.966 89.856 301.274 89.5679C300.583 89.2606 299.978 88.8573 299.459 88.3579C298.96 87.8394 298.557 87.2344 298.25 86.543C297.961 85.8516 297.817 85.1121 297.817 84.3247V76.604ZM303.464 84.3247H318.099V76.604H303.464V84.3247ZM332.998 64.9941V90H327.352V59.3188H332.998V64.7349C333.037 63.9858 333.21 63.2848 333.517 62.6318C333.824 61.9596 334.228 61.3835 334.727 60.9033C335.246 60.404 335.841 60.0199 336.513 59.751C337.185 59.4629 337.906 59.3188 338.674 59.3188H344.695C345.482 59.3188 346.212 59.4725 346.884 59.7798C347.576 60.0679 348.181 60.4712 348.699 60.9897C349.218 61.4891 349.621 62.0845 349.909 62.7759C350.216 63.4673 350.37 64.2067 350.37 64.9941V70.1797H344.695V64.9941H332.998ZM351.528 64.9941C351.528 64.2067 351.672 63.4673 351.96 62.7759C352.268 62.0845 352.671 61.4891 353.17 60.9897C353.689 60.4712 354.294 60.0679 354.985 59.7798C355.677 59.4725 356.406 59.3188 357.175 59.3188H372.991V47.5073H378.666V90H372.991V84.8145C372.933 85.5251 372.741 86.1973 372.414 86.8311C372.088 87.4648 371.665 88.0218 371.147 88.502C370.647 88.9629 370.071 89.3278 369.418 89.5967C368.765 89.8656 368.074 90 367.344 90H357.175C356.406 90 355.677 89.856 354.985 89.5679C354.294 89.2606 353.689 88.8573 353.17 88.3579C352.671 87.8394 352.268 87.2344 351.96 86.543C351.672 85.8516 351.528 85.1121 351.528 84.3247V64.9941ZM357.175 84.3247H372.991V64.9941H357.175V84.3247ZM380.429 59.3188H387.919V49.8696H393.594V59.3188H403.677V64.9941H393.594V84.3247H403.677V90H393.594C392.826 90 392.096 89.856 391.405 89.5679C390.714 89.2606 390.109 88.8573 389.59 88.3579C389.071 87.8394 388.659 87.2344 388.351 86.543C388.063 85.8516 387.919 85.1121 387.919 84.3247V64.9941H380.429V59.3188Z"/>
</mask>
<path d="M154.207 25.3115C153.4 25.3115 152.632 25.1579 151.902 24.8506C151.191 24.5241 150.567 24.1016 150.029 23.583C149.492 23.0452 149.069 22.4211 148.762 21.7104C148.454 20.9806 148.301 20.2124 148.301 19.4058V7.59424C148.301 6.7876 148.454 6.02897 148.762 5.31836C149.069 4.58854 149.492 3.96436 150.029 3.4458C150.567 2.90804 151.191 2.48551 151.902 2.17822C152.632 1.85173 153.4 1.68848 154.207 1.68848H174.257C175.064 1.68848 175.823 1.85173 176.533 2.17822C177.263 2.48551 177.897 2.90804 178.435 3.4458C178.972 3.96436 179.395 4.58854 179.702 5.31836C180.009 6.02897 180.163 6.7876 180.163 7.59424V12.9238H174.257V7.59424H154.207V19.4058H174.257C175.064 19.4058 175.823 19.5594 176.533 19.8667C177.263 20.174 177.897 20.5965 178.435 21.1343C178.972 21.672 179.395 22.3058 179.702 23.0356C180.009 23.7463 180.163 24.5049 180.163 25.3115V37.0942C180.163 37.9009 180.009 38.6691 179.702 39.3989C179.395 40.1095 178.972 40.7337 178.435 41.2715C177.897 41.8092 177.263 42.2318 176.533 42.5391C175.823 42.8464 175.064 43 174.257 43H153.63C152.824 43 152.056 42.8464 151.326 42.5391C150.615 42.2318 149.991 41.8092 149.453 41.2715C148.915 40.7337 148.493 40.1095 148.186 39.3989C147.878 38.6691 147.725 37.9009 147.725 37.0942V31.7935H153.63V37.0942H174.257V25.3115H154.207ZM184.346 12.3188H189.993V37.3247H205.808V12.3188H211.484V43H205.808V37.8145C205.751 38.5251 205.559 39.1973 205.232 39.8311C204.906 40.4648 204.483 41.0218 203.965 41.502C203.465 41.9629 202.889 42.3278 202.236 42.5967C201.583 42.8656 200.892 43 200.162 43H189.993C189.224 43 188.495 42.856 187.803 42.5679C187.112 42.2606 186.507 41.8573 185.988 41.3579C185.489 40.8394 185.086 40.2344 184.778 39.543C184.49 38.8516 184.346 38.1121 184.346 37.3247V12.3188ZM233.557 37.3247V30.209H220.103C219.316 30.209 218.576 30.0649 217.885 29.7769C217.194 29.4696 216.589 29.0662 216.07 28.5669C215.571 28.0483 215.167 27.4434 214.86 26.752C214.572 26.0605 214.428 25.3211 214.428 24.5337V17.9941C214.428 17.2067 214.572 16.4673 214.86 15.7759C215.167 15.0845 215.571 14.4891 216.07 13.9897C216.589 13.4712 217.194 13.0679 217.885 12.7798C218.576 12.4725 219.316 12.3188 220.103 12.3188H238.051V17.9941H220.103V24.5337H233.557C234.344 24.5337 235.074 24.6873 235.746 24.9946C236.438 25.2827 237.043 25.686 237.561 26.2046C238.08 26.7039 238.483 27.2993 238.771 27.9907C239.079 28.6821 239.232 29.4215 239.232 30.209V37.3247C239.232 38.1121 239.079 38.8516 238.771 39.543C238.483 40.2344 238.08 40.8394 237.561 41.3579C237.043 41.8573 236.438 42.2606 235.746 42.5679C235.074 42.856 234.344 43 233.557 43H214.428V37.3247H233.557ZM242.205 29.604C242.205 28.8166 242.349 28.0868 242.637 27.4146C242.945 26.7231 243.348 26.1182 243.847 25.5996C244.366 25.0811 244.971 24.6777 245.662 24.3896C246.354 24.0824 247.084 23.9287 247.852 23.9287H262.487V17.9941H243.963V12.3188H262.487C263.274 12.3188 264.013 12.4725 264.705 12.7798C265.396 13.0679 265.992 13.4712 266.491 13.9897C267.009 14.4891 267.413 15.0845 267.701 15.7759C268.008 16.4673 268.162 17.2067 268.162 17.9941V43H262.487V37.8145C262.429 38.5251 262.237 39.1973 261.91 39.8311C261.584 40.4648 261.161 41.0218 260.643 41.502C260.143 41.9629 259.567 42.3278 258.914 42.5967C258.261 42.8656 257.57 43 256.84 43H247.852C247.084 43 246.354 42.856 245.662 42.5679C244.971 42.2606 244.366 41.8573 243.847 41.3579C243.348 40.8394 242.945 40.2344 242.637 39.543C242.349 38.8516 242.205 38.1121 242.205 37.3247V29.604ZM247.852 37.3247H262.487V29.604H247.852V37.3247ZM298.878 43H293.202V17.9941H277.386V43H271.74V12.3188H277.386V17.7349C277.425 16.9858 277.598 16.2848 277.905 15.6318C278.212 14.9596 278.615 14.3835 279.115 13.9033C279.633 13.404 280.229 13.0199 280.901 12.751C281.573 12.4629 282.293 12.3188 283.062 12.3188H293.202C293.99 12.3188 294.729 12.4725 295.421 12.7798C296.112 13.0679 296.707 13.4712 297.207 13.9897C297.725 14.4891 298.129 15.0845 298.417 15.7759C298.724 16.4673 298.878 17.2067 298.878 17.9941V43ZM329.564 43H323.889V17.9941H308.073V43H302.427V12.3188H308.073V17.7349C308.112 16.9858 308.285 16.2848 308.592 15.6318C308.899 14.9596 309.302 14.3835 309.802 13.9033C310.32 13.404 310.916 13.0199 311.588 12.751C312.26 12.4629 312.98 12.3188 313.749 12.3188H323.889C324.677 12.3188 325.416 12.4725 326.107 12.7798C326.799 13.0679 327.394 13.4712 327.894 13.9897C328.412 14.4891 328.815 15.0845 329.104 15.7759C329.411 16.4673 329.564 17.2067 329.564 17.9941V43ZM359.07 30.5547H338.76V37.3247H359.07V43H338.76C337.992 43 337.262 42.856 336.571 42.5679C335.879 42.2606 335.274 41.8573 334.756 41.3579C334.256 40.8394 333.853 40.2344 333.546 39.543C333.258 38.8516 333.114 38.1121 333.114 37.3247V17.9941C333.114 17.2067 333.258 16.4673 333.546 15.7759C333.853 15.0845 334.256 14.4891 334.756 13.9897C335.274 13.4712 335.879 13.0679 336.571 12.7798C337.262 12.4725 337.992 12.3188 338.76 12.3188H353.395C354.182 12.3188 354.922 12.4725 355.613 12.7798C356.305 13.0679 356.9 13.4712 357.399 13.9897C357.918 14.4891 358.321 15.0845 358.609 15.7759C358.917 16.4673 359.07 17.2067 359.07 17.9941V30.5547ZM338.76 17.9941V24.8794H353.395V17.9941H338.76ZM175.208 68.4512C176.072 68.7201 176.86 69.1042 177.57 69.6035C178.281 70.1029 178.886 70.7463 179.385 71.5337C179.885 72.3019 180.269 73.2142 180.538 74.2705C180.806 75.3268 180.941 76.5368 180.941 77.9004V79.9746C180.941 86.6582 177.599 90 170.916 90H148.301V48.6885H169.734C176.418 48.6885 179.76 52.0399 179.76 58.7427V59.4917C179.76 61.8156 179.385 63.717 178.636 65.1958C177.906 66.6554 176.764 67.7406 175.208 68.4512ZM154.091 71.9946V84.2095H170.743C172.298 84.2095 173.422 83.8446 174.113 83.1147C174.805 82.3849 175.15 81.2422 175.15 79.6865V76.4888C175.15 74.9139 174.805 73.7712 174.113 73.0605C173.422 72.3499 172.298 71.9946 170.743 71.9946H154.091ZM154.091 54.479V66.2329H169.965C171.386 66.1753 172.404 65.7912 173.019 65.0806C173.652 64.3507 173.969 63.2368 173.969 61.7388V59.0308C173.969 57.4559 173.624 56.3035 172.932 55.5737C172.241 54.8439 171.117 54.479 169.562 54.479H154.091ZM209.842 84.3247C209.842 85.1121 209.688 85.8516 209.381 86.543C209.093 87.2344 208.689 87.8394 208.171 88.3579C207.671 88.8573 207.076 89.2606 206.385 89.5679C205.712 89.856 204.983 90 204.195 90H188.955C188.187 90 187.457 89.856 186.766 89.5679C186.075 89.2606 185.47 88.8573 184.951 88.3579C184.452 87.8394 184.048 87.2344 183.741 86.543C183.453 85.8516 183.309 85.1121 183.309 84.3247V64.9941C183.309 64.2067 183.453 63.4673 183.741 62.7759C184.048 62.0845 184.452 61.4891 184.951 60.9897C185.47 60.4712 186.075 60.0679 186.766 59.7798C187.457 59.4725 188.187 59.3188 188.955 59.3188H204.195C204.983 59.3188 205.712 59.4725 206.385 59.7798C207.076 60.0679 207.671 60.4712 208.171 60.9897C208.689 61.4891 209.093 62.0845 209.381 62.7759C209.688 63.4673 209.842 64.2067 209.842 64.9941V84.3247ZM188.955 64.9941V84.3247H204.195V64.9941H188.955ZM219.066 64.9941V90H213.42V59.3188H219.066V64.7349C219.105 63.9858 219.277 63.2848 219.585 62.6318C219.892 61.9596 220.295 61.3835 220.795 60.9033C221.313 60.404 221.909 60.0199 222.581 59.751C223.253 59.4629 223.973 59.3188 224.742 59.3188H230.762C231.55 59.3188 232.28 59.4725 232.952 59.7798C233.643 60.0679 234.248 60.4712 234.767 60.9897C235.285 61.4891 235.689 62.0845 235.977 62.7759C236.284 63.4673 236.438 64.2067 236.438 64.9941V70.1797H230.762V64.9941H219.066ZM243.242 64.9941V84.3247H257.877V79.1392H263.552V84.3247C263.552 85.1121 263.399 85.8516 263.092 86.543C262.803 87.2344 262.4 87.8394 261.882 88.3579C261.382 88.8573 260.787 89.2606 260.095 89.5679C259.404 89.856 258.665 90 257.877 90H243.242C242.474 90 241.744 89.856 241.053 89.5679C240.362 89.2606 239.757 88.8573 239.238 88.3579C238.739 87.8394 238.335 87.2344 238.028 86.543C237.74 85.8516 237.596 85.1121 237.596 84.3247V64.9941C237.596 64.2067 237.74 63.4673 238.028 62.7759C238.335 62.0845 238.739 61.4891 239.238 60.9897C239.757 60.4712 240.362 60.0679 241.053 59.7798C241.744 59.4725 242.474 59.3188 243.242 59.3188H257.877C258.665 59.3188 259.404 59.4725 260.095 59.7798C260.787 60.0679 261.382 60.4712 261.882 60.9897C262.4 61.4891 262.803 62.0845 263.092 62.7759C263.399 63.4673 263.552 64.2067 263.552 64.9941V70.1797H257.877V64.9941H243.242ZM294.268 90H288.593V64.9941H272.777V90H267.13V47.5073H272.777V64.7349C272.815 63.9858 272.988 63.2848 273.296 62.6318C273.603 61.9596 274.006 61.3835 274.505 60.9033C275.024 60.404 275.619 60.0199 276.292 59.751C276.964 59.4629 277.684 59.3188 278.452 59.3188H288.593C289.38 59.3188 290.12 59.4725 290.811 59.7798C291.503 60.0679 292.098 60.4712 292.597 60.9897C293.116 61.4891 293.519 62.0845 293.807 62.7759C294.115 63.4673 294.268 64.2067 294.268 64.9941V90ZM297.817 76.604C297.817 75.8166 297.961 75.0868 298.25 74.4146C298.557 73.7231 298.96 73.1182 299.459 72.5996C299.978 72.0811 300.583 71.6777 301.274 71.3896C301.966 71.0824 302.696 70.9287 303.464 70.9287H318.099V64.9941H299.575V59.3188H318.099C318.886 59.3188 319.625 59.4725 320.317 59.7798C321.008 60.0679 321.604 60.4712 322.103 60.9897C322.622 61.4891 323.025 62.0845 323.313 62.7759C323.62 63.4673 323.774 64.2067 323.774 64.9941V90H318.099V84.8145C318.041 85.5251 317.849 86.1973 317.522 86.8311C317.196 87.4648 316.773 88.0218 316.255 88.502C315.756 88.9629 315.179 89.3278 314.526 89.5967C313.873 89.8656 313.182 90 312.452 90H303.464C302.696 90 301.966 89.856 301.274 89.5679C300.583 89.2606 299.978 88.8573 299.459 88.3579C298.96 87.8394 298.557 87.2344 298.25 86.543C297.961 85.8516 297.817 85.1121 297.817 84.3247V76.604ZM303.464 84.3247H318.099V76.604H303.464V84.3247ZM332.998 64.9941V90H327.352V59.3188H332.998V64.7349C333.037 63.9858 333.21 63.2848 333.517 62.6318C333.824 61.9596 334.228 61.3835 334.727 60.9033C335.246 60.404 335.841 60.0199 336.513 59.751C337.185 59.4629 337.906 59.3188 338.674 59.3188H344.695C345.482 59.3188 346.212 59.4725 346.884 59.7798C347.576 60.0679 348.181 60.4712 348.699 60.9897C349.218 61.4891 349.621 62.0845 349.909 62.7759C350.216 63.4673 350.37 64.2067 350.37 64.9941V70.1797H344.695V64.9941H332.998ZM351.528 64.9941C351.528 64.2067 351.672 63.4673 351.96 62.7759C352.268 62.0845 352.671 61.4891 353.17 60.9897C353.689 60.4712 354.294 60.0679 354.985 59.7798C355.677 59.4725 356.406 59.3188 357.175 59.3188H372.991V47.5073H378.666V90H372.991V84.8145C372.933 85.5251 372.741 86.1973 372.414 86.8311C372.088 87.4648 371.665 88.0218 371.147 88.502C370.647 88.9629 370.071 89.3278 369.418 89.5967C368.765 89.8656 368.074 90 367.344 90H357.175C356.406 90 355.677 89.856 354.985 89.5679C354.294 89.2606 353.689 88.8573 353.17 88.3579C352.671 87.8394 352.268 87.2344 351.96 86.543C351.672 85.8516 351.528 85.1121 351.528 84.3247V64.9941ZM357.175 84.3247H372.991V64.9941H357.175V84.3247ZM380.429 59.3188H387.919V49.8696H393.594V59.3188H403.677V64.9941H393.594V84.3247H403.677V90H393.594C392.826 90 392.096 89.856 391.405 89.5679C390.714 89.2606 390.109 88.8573 389.59 88.3579C389.071 87.8394 388.659 87.2344 388.351 86.543C388.063 85.8516 387.919 85.1121 387.919 84.3247V64.9941H380.429V59.3188Z" fill="white"/>
<path d="M151.902 24.8506L151.484 25.7593L151.499 25.766L151.514 25.7722L151.902 24.8506ZM150.029 23.583L149.322 24.2901L149.329 24.2965L149.335 24.3029L150.029 23.583ZM148.762 21.7104L147.84 22.0985L147.844 22.1074L148.762 21.7104ZM148.762 5.31836L149.68 5.71529L149.683 5.70642L148.762 5.31836ZM150.029 3.4458L150.723 4.16565L150.73 4.15934L150.736 4.15291L150.029 3.4458ZM151.902 2.17822L152.299 3.09615L152.31 3.09104L151.902 2.17822ZM176.533 2.17822L176.116 3.0869L176.13 3.09362L176.145 3.09986L176.533 2.17822ZM178.435 3.4458L177.727 4.15291L177.734 4.15934L177.74 4.16565L178.435 3.4458ZM179.702 5.31836L178.78 5.70643L178.784 5.71527L179.702 5.31836ZM180.163 12.9238V13.9238H181.163V12.9238H180.163ZM174.257 12.9238H173.257V13.9238H174.257V12.9238ZM174.257 7.59424H175.257V6.59424H174.257V7.59424ZM154.207 7.59424V6.59424H153.207V7.59424H154.207ZM154.207 19.4058H153.207V20.4058H154.207V19.4058ZM176.533 19.8667L176.136 20.7846L176.145 20.7883L176.533 19.8667ZM179.702 23.0356L178.78 23.4237L178.784 23.4326L179.702 23.0356ZM179.702 39.3989L180.62 39.7959L180.624 39.787L179.702 39.3989ZM176.533 42.5391L176.145 41.6174L176.136 41.6212L176.533 42.5391ZM151.326 42.5391L150.929 43.457L150.938 43.4607L151.326 42.5391ZM149.453 41.2715L148.746 41.9786L149.453 41.2715ZM148.186 39.3989L147.264 39.787L147.268 39.7958L148.186 39.3989ZM147.725 31.7935V30.7935H146.725V31.7935H147.725ZM153.63 31.7935H154.63V30.7935H153.63V31.7935ZM153.63 37.0942H152.63V38.0942H153.63V37.0942ZM174.257 37.0942V38.0942H175.257V37.0942H174.257ZM174.257 25.3115H175.257V24.3115H174.257V25.3115ZM154.207 24.3115C153.531 24.3115 152.895 24.1835 152.29 23.929L151.514 25.7722C152.369 26.1322 153.269 26.3115 154.207 26.3115V24.3115ZM152.319 23.9419C151.706 23.6601 151.177 23.3001 150.723 22.8632L149.335 24.3029C149.958 24.9031 150.676 25.388 151.484 25.7593L152.319 23.9419ZM150.736 22.8759C150.289 22.429 149.938 21.9105 149.68 21.3135L147.844 22.1074C148.2 22.9316 148.694 23.6615 149.322 24.2901L150.736 22.8759ZM149.683 21.3224C149.429 20.7177 149.301 20.0817 149.301 19.4058H147.301C147.301 20.3431 147.48 21.2435 147.84 22.0985L149.683 21.3224ZM149.301 19.4058V7.59424H147.301V19.4058H149.301ZM149.301 7.59424C149.301 6.91828 149.429 6.29532 149.68 5.71527L147.844 4.92145C147.48 5.76262 147.301 6.65691 147.301 7.59424H149.301ZM149.683 5.70642C149.941 5.09385 150.289 4.58459 150.723 4.16565L149.335 2.72596C148.694 3.34412 148.197 4.08323 147.84 4.9303L149.683 5.70642ZM150.736 4.15291C151.183 3.70596 151.702 3.35423 152.299 3.09608L151.505 1.26037C150.681 1.6168 149.951 2.11012 149.322 2.73869L150.736 4.15291ZM152.31 3.09104C152.91 2.82254 153.539 2.68848 154.207 2.68848V0.688477C153.26 0.688477 152.353 0.880908 151.493 1.2654L152.31 3.09104ZM154.207 2.68848H174.257V0.688477H154.207V2.68848ZM174.257 2.68848C174.925 2.68848 175.54 2.82249 176.116 3.0869L176.951 1.26955C176.105 0.880962 175.203 0.688477 174.257 0.688477V2.68848ZM176.145 3.09986C176.761 3.35906 177.285 3.71038 177.727 4.15291L179.142 2.73869C178.509 2.1057 177.765 1.61197 176.921 1.25659L176.145 3.09986ZM177.74 4.16565C178.175 4.58459 178.523 5.09385 178.781 5.70642L180.624 4.9303C180.267 4.08323 179.77 3.34412 179.129 2.72596L177.74 4.16565ZM178.784 5.71527C179.035 6.29532 179.163 6.91828 179.163 7.59424H181.163C181.163 6.65691 180.984 5.76262 180.62 4.92145L178.784 5.71527ZM179.163 7.59424V12.9238H181.163V7.59424H179.163ZM180.163 11.9238H174.257V13.9238H180.163V11.9238ZM175.257 12.9238V7.59424H173.257V12.9238H175.257ZM174.257 6.59424H154.207V8.59424H174.257V6.59424ZM153.207 7.59424V19.4058H155.207V7.59424H153.207ZM154.207 20.4058H174.257V18.4058H154.207V20.4058ZM174.257 20.4058C174.933 20.4058 175.556 20.5337 176.136 20.7846L176.93 18.9488C176.089 18.5851 175.195 18.4058 174.257 18.4058V20.4058ZM176.145 20.7883C176.761 21.0475 177.285 21.3989 177.727 21.8414L179.142 20.4272C178.509 19.7942 177.765 19.3004 176.921 18.9451L176.145 20.7883ZM177.727 21.8414C178.17 22.2839 178.521 22.8081 178.781 23.4237L180.624 22.6476C180.268 21.8036 179.775 21.0602 179.142 20.4272L177.727 21.8414ZM178.784 23.4326C179.035 24.0126 179.163 24.6356 179.163 25.3115H181.163C181.163 24.3742 180.984 23.4799 180.62 22.6387L178.784 23.4326ZM179.163 25.3115V37.0942H181.163V25.3115H179.163ZM179.163 37.0942C179.163 37.7701 179.035 38.4062 178.781 39.0109L180.624 39.787C180.984 38.932 181.163 38.0316 181.163 37.0942H179.163ZM178.784 39.002C178.526 39.599 178.174 40.1174 177.727 40.5644L179.142 41.9786C179.77 41.35 180.264 40.6201 180.62 39.7958L178.784 39.002ZM177.727 40.5644C177.285 41.0069 176.761 41.3582 176.145 41.6174L176.921 43.4607C177.765 43.1053 178.509 42.6116 179.142 41.9786L177.727 40.5644ZM176.136 41.6212C175.556 41.872 174.933 42 174.257 42V44C175.195 44 176.089 43.8207 176.93 43.4569L176.136 41.6212ZM174.257 42H153.63V44H174.257V42ZM153.63 42C152.954 42 152.318 41.872 151.714 41.6174L150.938 43.4607C151.793 43.8207 152.693 44 153.63 44V42ZM151.723 41.6212C151.126 41.3631 150.607 41.0113 150.16 40.5644L148.746 41.9786C149.375 42.6072 150.105 43.1005 150.929 43.4569L151.723 41.6212ZM150.16 40.5644C149.713 40.1174 149.362 39.599 149.103 39.002L147.268 39.7958C147.624 40.6201 148.117 41.35 148.746 41.9786L150.16 40.5644ZM149.107 39.0109C148.853 38.4062 148.725 37.7701 148.725 37.0942H146.725C146.725 38.0316 146.904 38.932 147.264 39.787L149.107 39.0109ZM148.725 37.0942V31.7935H146.725V37.0942H148.725ZM147.725 32.7935H153.63V30.7935H147.725V32.7935ZM152.63 31.7935V37.0942H154.63V31.7935H152.63ZM153.63 38.0942H174.257V36.0942H153.63V38.0942ZM175.257 37.0942V25.3115H173.257V37.0942H175.257ZM174.257 24.3115H154.207V26.3115H174.257V24.3115ZM184.346 12.3188V11.3188H183.346V12.3188H184.346ZM189.993 12.3188H190.993V11.3188H189.993V12.3188ZM189.993 37.3247H188.993V38.3247H189.993V37.3247ZM205.808 37.3247V38.3247H206.808V37.3247H205.808ZM205.808 12.3188V11.3188H204.808V12.3188H205.808ZM211.484 12.3188H212.484V11.3188H211.484V12.3188ZM211.484 43V44H212.484V43H211.484ZM205.808 43H204.808V44H205.808V43ZM205.808 37.8145H206.808L204.812 37.7336L205.808 37.8145ZM203.965 41.502L204.643 42.2368L204.644 42.2357L203.965 41.502ZM187.803 42.5679L187.397 43.4817L187.408 43.4864L187.419 43.4909L187.803 42.5679ZM185.988 41.3579L185.268 42.0516L185.281 42.0651L185.295 42.0782L185.988 41.3579ZM184.778 39.543L183.855 39.9276L183.86 39.9384L183.864 39.9491L184.778 39.543ZM184.346 13.3188H189.993V11.3188H184.346V13.3188ZM188.993 12.3188V37.3247H190.993V12.3188H188.993ZM189.993 38.3247H205.808V36.3247H189.993V38.3247ZM206.808 37.3247V12.3188H204.808V37.3247H206.808ZM205.808 13.3188H211.484V11.3188H205.808V13.3188ZM210.484 12.3188V43H212.484V12.3188H210.484ZM211.484 42H205.808V44H211.484V42ZM206.808 43V37.8145H204.808V43H206.808ZM204.812 37.7336C204.765 38.3127 204.609 38.8567 204.343 39.3731L206.121 40.289C206.508 39.5379 206.737 38.7375 206.805 37.8953L204.812 37.7336ZM204.343 39.3731C204.07 39.9044 203.718 40.3678 203.285 40.7682L204.644 42.2357C205.249 41.6758 205.742 41.0253 206.121 40.289L204.343 39.3731ZM203.286 40.7671C202.878 41.1445 202.403 41.4465 201.855 41.672L202.617 43.5214C203.375 43.2091 204.053 42.7813 204.643 42.2368L203.286 40.7671ZM201.855 41.672C201.327 41.8895 200.766 42 200.162 42V44C201.018 44 201.839 43.8416 202.617 43.5214L201.855 41.672ZM200.162 42H189.993V44H200.162V42ZM189.993 42C189.353 42 188.754 41.8808 188.188 41.6448L187.419 43.4909C188.235 43.8311 189.096 44 189.993 44V42ZM188.209 41.6541C187.619 41.3916 187.112 41.0521 186.682 40.6376L185.295 42.0782C185.901 42.6624 186.605 43.1296 187.397 43.4817L188.209 41.6541ZM186.709 40.6643C186.294 40.2338 185.954 39.7274 185.692 39.1368L183.864 39.9491C184.217 40.7414 184.684 41.4449 185.268 42.0516L186.709 40.6643ZM185.701 39.1584C185.467 38.595 185.346 37.987 185.346 37.3247H183.346C183.346 38.2373 183.514 39.1081 183.855 39.9276L185.701 39.1584ZM185.346 37.3247V12.3188H183.346V37.3247H185.346ZM233.557 37.3247V38.3247H234.557V37.3247H233.557ZM233.557 30.209H234.557V29.209H233.557V30.209ZM217.885 29.7769L217.479 30.6907L217.49 30.6954L217.5 30.6999L217.885 29.7769ZM216.07 28.5669L215.35 29.2605L215.363 29.2741L215.376 29.2872L216.07 28.5669ZM214.86 26.752L213.937 27.1366L213.942 27.1474L213.946 27.1581L214.86 26.752ZM214.86 15.7759L213.946 15.3697L213.942 15.3804L213.937 15.3913L214.86 15.7759ZM216.07 13.9897L215.363 13.2826L216.07 13.9897ZM217.885 12.7798L218.27 13.7029L218.28 13.6984L218.291 13.6936L217.885 12.7798ZM238.051 12.3188H239.051V11.3188H238.051V12.3188ZM238.051 17.9941V18.9941H239.051V17.9941H238.051ZM220.103 17.9941V16.9941H219.103V17.9941H220.103ZM220.103 24.5337H219.103V25.5337H220.103V24.5337ZM235.746 24.9946L235.331 25.9041L235.346 25.9112L235.362 25.9177L235.746 24.9946ZM237.561 26.2046L236.854 26.9117L236.861 26.9184L236.868 26.9249L237.561 26.2046ZM238.771 27.9907L237.848 28.3753L237.853 28.3862L237.857 28.3969L238.771 27.9907ZM238.771 39.543L237.857 39.1368L237.853 39.1475L237.848 39.1584L238.771 39.543ZM237.561 41.3579L238.255 42.0782L238.262 42.0717L238.268 42.065L237.561 41.3579ZM235.746 42.5679L236.14 43.4871L236.153 43.4817L235.746 42.5679ZM214.428 43H213.428V44H214.428V43ZM214.428 37.3247V36.3247H213.428V37.3247H214.428ZM234.557 37.3247V30.209H232.557V37.3247H234.557ZM233.557 29.209H220.103V31.209H233.557V29.209ZM220.103 29.209C219.441 29.209 218.833 29.0885 218.27 28.8538L217.5 30.6999C218.32 31.0414 219.191 31.209 220.103 31.209V29.209ZM218.291 28.863C217.701 28.6006 217.194 28.2611 216.764 27.8466L215.376 29.2872C215.983 29.8714 216.687 30.3385 217.479 30.6907L218.291 28.863ZM216.79 27.8733C216.376 27.4428 216.036 26.9363 215.774 26.3458L213.946 27.1581C214.298 27.9504 214.766 28.6539 215.35 29.2605L216.79 27.8733ZM215.783 26.3673C215.549 25.804 215.428 25.196 215.428 24.5337H213.428C213.428 25.4463 213.596 26.3171 213.937 27.1366L215.783 26.3673ZM215.428 24.5337V17.9941H213.428V24.5337H215.428ZM215.428 17.9941C215.428 17.3318 215.549 16.7238 215.783 16.1605L213.937 15.3913C213.596 16.2107 213.428 17.0816 213.428 17.9941H215.428ZM215.774 16.182C216.035 15.5947 216.371 15.1034 216.777 14.6969L215.363 13.2826C214.771 13.8748 214.3 14.5742 213.946 15.3697L215.774 16.182ZM216.777 14.6969C217.201 14.2727 217.696 13.9418 218.27 13.7029L217.5 11.8567C216.691 12.1939 215.976 12.6697 215.363 13.2826L216.777 14.6969ZM218.291 13.6936C218.85 13.4455 219.45 13.3188 220.103 13.3188V11.3188C219.182 11.3188 218.303 11.4995 217.479 11.866L218.291 13.6936ZM220.103 13.3188H238.051V11.3188H220.103V13.3188ZM237.051 12.3188V17.9941H239.051V12.3188H237.051ZM238.051 16.9941H220.103V18.9941H238.051V16.9941ZM219.103 17.9941V24.5337H221.103V17.9941H219.103ZM220.103 25.5337H233.557V23.5337H220.103V25.5337ZM233.557 25.5337C234.21 25.5337 234.797 25.6603 235.331 25.9041L236.162 24.0852C235.351 23.7144 234.478 23.5337 233.557 23.5337V25.5337ZM235.362 25.9177C235.935 26.1567 236.43 26.4875 236.854 26.9117L238.268 25.4975C237.656 24.8846 236.94 24.4088 236.131 24.0716L235.362 25.9177ZM236.868 26.9249C237.284 27.3254 237.611 27.8051 237.848 28.3753L239.694 27.6061C239.356 26.7935 238.876 26.0825 238.255 25.4843L236.868 26.9249ZM237.857 28.3969C238.106 28.9552 238.232 29.5556 238.232 30.209H240.232C240.232 29.2875 240.052 28.4091 239.685 27.5846L237.857 28.3969ZM238.232 30.209V37.3247H240.232V30.209H238.232ZM238.232 37.3247C238.232 37.9781 238.106 38.5785 237.857 39.1368L239.685 39.9491C240.052 39.1246 240.232 38.2462 240.232 37.3247H238.232ZM237.848 39.1584C237.609 39.7318 237.278 40.2266 236.854 40.6508L238.268 42.065C238.881 41.4521 239.357 40.7369 239.694 39.9276L237.848 39.1584ZM236.868 40.6376C236.437 41.0521 235.931 41.3916 235.34 41.6541L236.153 43.4817C236.945 43.1296 237.648 42.6624 238.255 42.0782L236.868 40.6376ZM235.352 41.6487C234.814 41.8795 234.219 42 233.557 42V44C234.469 44 235.334 43.8324 236.14 43.487L235.352 41.6487ZM233.557 42H214.428V44H233.557V42ZM215.428 43V37.3247H213.428V43H215.428ZM214.428 38.3247H233.557V36.3247H214.428V38.3247ZM242.637 27.4146L241.724 27.0084L241.718 27.0206L242.637 27.4146ZM243.847 25.5996L243.14 24.8925L243.134 24.8992L243.127 24.906L243.847 25.5996ZM245.662 24.3896L246.047 25.3127L246.058 25.3082L246.068 25.3035L245.662 24.3896ZM262.487 23.9287V24.9287H263.487V23.9287H262.487ZM262.487 17.9941H263.487V16.9941H262.487V17.9941ZM243.963 17.9941H242.963V18.9941H243.963V17.9941ZM243.963 12.3188V11.3188H242.963V12.3188H243.963ZM264.705 12.7798L264.299 13.6936L264.309 13.6984L264.32 13.7029L264.705 12.7798ZM266.491 13.9897L265.771 14.6834L265.784 14.697L265.797 14.7101L266.491 13.9897ZM267.701 15.7759L266.778 16.1605L266.782 16.1713L266.787 16.182L267.701 15.7759ZM268.162 43V44H269.162V43H268.162ZM262.487 43H261.487V44H262.487V43ZM262.487 37.8145H263.487L261.49 37.7336L262.487 37.8145ZM260.643 41.502L261.321 42.2368L261.322 42.2357L260.643 41.502ZM245.662 42.5679L245.256 43.4817L245.267 43.4864L245.278 43.4909L245.662 42.5679ZM243.847 41.3579L243.127 42.0516L243.14 42.0651L243.154 42.0782L243.847 41.3579ZM242.637 39.543L241.714 39.9276L241.719 39.9384L241.724 39.9491L242.637 39.543ZM247.852 37.3247H246.852V38.3247H247.852V37.3247ZM262.487 37.3247V38.3247H263.487V37.3247H262.487ZM262.487 29.604H263.487V28.604H262.487V29.604ZM247.852 29.604V28.604H246.852V29.604H247.852ZM243.205 29.604C243.205 28.9415 243.326 28.3469 243.557 27.8085L241.718 27.0206C241.373 27.8266 241.205 28.6917 241.205 29.604H243.205ZM243.551 27.8207C243.814 27.2302 244.153 26.7237 244.568 26.2933L243.127 24.906C242.543 25.5126 242.076 26.2161 241.724 27.0084L243.551 27.8207ZM244.554 26.3067C244.979 25.8825 245.473 25.5517 246.047 25.3127L245.278 23.4666C244.468 23.8038 243.753 24.2796 243.14 24.8925L244.554 26.3067ZM246.068 25.3035C246.63 25.0539 247.221 24.9287 247.852 24.9287V22.9287C246.946 22.9287 246.077 23.1108 245.256 23.4758L246.068 25.3035ZM247.852 24.9287H262.487V22.9287H247.852V24.9287ZM263.487 23.9287V17.9941H261.487V23.9287H263.487ZM262.487 16.9941H243.963V18.9941H262.487V16.9941ZM244.963 17.9941V12.3188H242.963V17.9941H244.963ZM243.963 13.3188H262.487V11.3188H243.963V13.3188ZM262.487 13.3188C263.14 13.3188 263.74 13.4455 264.299 13.6936L265.111 11.866C264.286 11.4995 263.408 11.3188 262.487 11.3188V13.3188ZM264.32 13.7029C264.89 13.9404 265.37 14.2675 265.771 14.6834L267.211 13.2961C266.613 12.6749 265.902 12.1953 265.089 11.8567L264.32 13.7029ZM265.797 14.7101C266.213 15.1106 266.54 15.5903 266.778 16.1605L268.624 15.3913C268.285 14.5787 267.806 13.8676 267.185 13.2694L265.797 14.7101ZM266.787 16.182C267.035 16.7403 267.162 17.3408 267.162 17.9941H269.162C269.162 17.0726 268.981 16.1942 268.615 15.3697L266.787 16.182ZM267.162 17.9941V43H269.162V17.9941H267.162ZM268.162 42H262.487V44H268.162V42ZM263.487 43V37.8145H261.487V43H263.487ZM261.49 37.7336C261.443 38.3127 261.287 38.8567 261.021 39.3731L262.799 40.289C263.186 39.5379 263.415 38.7375 263.483 37.8953L261.49 37.7336ZM261.021 39.3731C260.748 39.9044 260.396 40.3678 259.963 40.7682L261.322 42.2357C261.927 41.6758 262.42 41.0253 262.799 40.289L261.021 39.3731ZM259.964 40.7671C259.556 41.1445 259.081 41.4465 258.534 41.672L259.295 43.5214C260.053 43.2091 260.731 42.7813 261.321 42.2368L259.964 40.7671ZM258.534 41.672C258.005 41.8895 257.444 42 256.84 42V44C257.696 44 258.517 43.8416 259.295 43.5214L258.534 41.672ZM256.84 42H247.852V44H256.84V42ZM247.852 42C247.212 42 246.613 41.8808 246.047 41.6448L245.278 43.4909C246.094 43.8311 246.955 44 247.852 44V42ZM246.068 41.6541C245.478 41.3916 244.972 41.0521 244.541 40.6376L243.154 42.0782C243.76 42.6624 244.464 43.1296 245.256 43.4817L246.068 41.6541ZM244.568 40.6643C244.153 40.2338 243.814 39.7274 243.551 39.1368L241.724 39.9491C242.076 40.7414 242.543 41.4449 243.127 42.0516L244.568 40.6643ZM243.56 39.1584C243.326 38.595 243.205 37.987 243.205 37.3247H241.205C241.205 38.2373 241.373 39.1081 241.714 39.9276L243.56 39.1584ZM243.205 37.3247V29.604H241.205V37.3247H243.205ZM247.852 38.3247H262.487V36.3247H247.852V38.3247ZM263.487 37.3247V29.604H261.487V37.3247H263.487ZM262.487 28.604H247.852V30.604H262.487V28.604ZM246.852 29.604V37.3247H248.852V29.604H246.852ZM298.878 43V44H299.878V43H298.878ZM293.202 43H292.202V44H293.202V43ZM293.202 17.9941H294.202V16.9941H293.202V17.9941ZM277.386 17.9941V16.9941H276.386V17.9941H277.386ZM277.386 43V44H278.386V43H277.386ZM271.74 43H270.74V44H271.74V43ZM271.74 12.3188V11.3188H270.74V12.3188H271.74ZM277.386 12.3188H278.386V11.3188H277.386V12.3188ZM277.386 17.7349H276.386L278.385 17.7861L277.386 17.7349ZM277.905 15.6318L278.81 16.0577L278.814 16.0476L277.905 15.6318ZM279.115 13.9033L279.808 14.6242L279.808 14.6236L279.115 13.9033ZM280.901 12.751L281.272 13.6795L281.284 13.6749L281.295 13.6701L280.901 12.751ZM295.421 12.7798L295.014 13.6936L295.025 13.6984L295.036 13.7029L295.421 12.7798ZM297.207 13.9897L296.486 14.6834L296.499 14.697L296.513 14.7101L297.207 13.9897ZM298.417 15.7759L297.494 16.1605L297.498 16.1713L297.503 16.182L298.417 15.7759ZM298.878 42H293.202V44H298.878V42ZM294.202 43V17.9941H292.202V43H294.202ZM293.202 16.9941H277.386V18.9941H293.202V16.9941ZM276.386 17.9941V43H278.386V17.9941H276.386ZM277.386 42H271.74V44H277.386V42ZM272.74 43V12.3188H270.74V43H272.74ZM271.74 13.3188H277.386V11.3188H271.74V13.3188ZM276.386 12.3188V17.7349H278.386V12.3188H276.386ZM278.385 17.7861C278.417 17.1616 278.56 16.5884 278.81 16.0576L277 15.206C276.635 15.9812 276.432 16.81 276.388 17.6836L278.385 17.7861ZM278.814 16.0476C279.073 15.4821 279.405 15.0114 279.808 14.6242L278.422 13.1825C277.826 13.7555 277.351 14.4372 276.995 15.2161L278.814 16.0476ZM279.808 14.6236C280.234 14.2143 280.719 13.9007 281.272 13.6795L280.53 11.8225C279.738 12.139 279.033 12.5936 278.421 13.183L279.808 14.6236ZM281.295 13.6701C281.836 13.4381 282.422 13.3188 283.062 13.3188V11.3188C282.165 11.3188 281.31 11.4877 280.507 11.8318L281.295 13.6701ZM283.062 13.3188H293.202V11.3188H283.062V13.3188ZM293.202 13.3188C293.856 13.3188 294.456 13.4455 295.014 13.6936L295.827 11.866C295.002 11.4995 294.124 11.3188 293.202 11.3188V13.3188ZM295.036 13.7029C295.606 13.9404 296.086 14.2675 296.486 14.6834L297.927 13.2961C297.329 12.6749 296.618 12.1953 295.805 11.8567L295.036 13.7029ZM296.513 14.7101C296.929 15.1106 297.256 15.5903 297.494 16.1605L299.34 15.3913C299.001 14.5787 298.521 13.8676 297.9 13.2694L296.513 14.7101ZM297.503 16.182C297.751 16.7403 297.878 17.3408 297.878 17.9941H299.878C299.878 17.0726 299.697 16.1942 299.33 15.3697L297.503 16.182ZM297.878 17.9941V43H299.878V17.9941H297.878ZM329.564 43V44H330.564V43H329.564ZM323.889 43H322.889V44H323.889V43ZM323.889 17.9941H324.889V16.9941H323.889V17.9941ZM308.073 17.9941V16.9941H307.073V17.9941H308.073ZM308.073 43V44H309.073V43H308.073ZM302.427 43H301.427V44H302.427V43ZM302.427 12.3188V11.3188H301.427V12.3188H302.427ZM308.073 12.3188H309.073V11.3188H308.073V12.3188ZM308.073 17.7349H307.073L309.072 17.7861L308.073 17.7349ZM308.592 15.6318L309.497 16.0577L309.501 16.0476L308.592 15.6318ZM309.802 13.9033L310.495 14.6242L310.495 14.6236L309.802 13.9033ZM311.588 12.751L311.959 13.6795L311.971 13.6749L311.982 13.6701L311.588 12.751ZM326.107 12.7798L325.701 13.6936L325.712 13.6984L325.723 13.7029L326.107 12.7798ZM327.894 13.9897L327.173 14.6834L327.186 14.697L327.2 14.7101L327.894 13.9897ZM329.104 15.7759L328.18 16.1605L328.185 16.1713L328.19 16.182L329.104 15.7759ZM329.564 42H323.889V44H329.564V42ZM324.889 43V17.9941H322.889V43H324.889ZM323.889 16.9941H308.073V18.9941H323.889V16.9941ZM307.073 17.9941V43H309.073V17.9941H307.073ZM308.073 42H302.427V44H308.073V42ZM303.427 43V12.3188H301.427V43H303.427ZM302.427 13.3188H308.073V11.3188H302.427V13.3188ZM307.073 12.3188V17.7349H309.073V12.3188H307.073ZM309.072 17.7861C309.104 17.1616 309.247 16.5884 309.497 16.0576L307.687 15.206C307.322 15.9812 307.119 16.81 307.075 17.6836L309.072 17.7861ZM309.501 16.0476C309.76 15.4821 310.092 15.0114 310.495 14.6242L309.109 13.1825C308.513 13.7555 308.038 14.4372 307.682 15.2161L309.501 16.0476ZM310.495 14.6236C310.92 14.2143 311.406 13.9007 311.959 13.6795L311.216 11.8225C310.425 12.139 309.72 12.5936 309.108 13.183L310.495 14.6236ZM311.982 13.6701C312.523 13.4381 313.109 13.3188 313.749 13.3188V11.3188C312.852 11.3188 311.997 11.4877 311.194 11.8318L311.982 13.6701ZM313.749 13.3188H323.889V11.3188H313.749V13.3188ZM323.889 13.3188C324.543 13.3188 325.143 13.4455 325.701 13.6936L326.514 11.866C325.689 11.4995 324.811 11.3188 323.889 11.3188V13.3188ZM325.723 13.7029C326.293 13.9404 326.773 14.2675 327.173 14.6834L328.614 13.2961C328.016 12.6749 327.305 12.1953 326.492 11.8567L325.723 13.7029ZM327.2 14.7101C327.616 15.1106 327.943 15.5903 328.18 16.1605L330.027 15.3913C329.688 14.5787 329.208 13.8676 328.587 13.2694L327.2 14.7101ZM328.19 16.182C328.438 16.7403 328.564 17.3408 328.564 17.9941H330.564C330.564 17.0726 330.384 16.1942 330.017 15.3697L328.19 16.182ZM328.564 17.9941V43H330.564V17.9941H328.564ZM359.07 30.5547V31.5547H360.07V30.5547H359.07ZM338.76 30.5547V29.5547H337.76V30.5547H338.76ZM338.76 37.3247H337.76V38.3247H338.76V37.3247ZM359.07 37.3247H360.07V36.3247H359.07V37.3247ZM359.07 43V44H360.07V43H359.07ZM336.571 42.5679L336.165 43.4817L336.175 43.4864L336.186 43.4909L336.571 42.5679ZM334.756 41.3579L334.035 42.0516L334.049 42.0651L334.062 42.0782L334.756 41.3579ZM333.546 39.543L332.623 39.9276L332.627 39.9384L332.632 39.9491L333.546 39.543ZM333.546 15.7759L332.632 15.3697L332.627 15.3804L332.623 15.3913L333.546 15.7759ZM334.756 13.9897L334.049 13.2826L334.756 13.9897ZM336.571 12.7798L336.955 13.7029L336.966 13.6984L336.977 13.6936L336.571 12.7798ZM355.613 12.7798L355.207 13.6936L355.218 13.6984L355.229 13.7029L355.613 12.7798ZM357.399 13.9897L356.679 14.6834L356.692 14.697L356.706 14.7101L357.399 13.9897ZM358.609 15.7759L357.686 16.1605L357.691 16.1713L357.695 16.182L358.609 15.7759ZM338.76 17.9941V16.9941H337.76V17.9941H338.76ZM338.76 24.8794H337.76V25.8794H338.76V24.8794ZM353.395 24.8794V25.8794H354.395V24.8794H353.395ZM353.395 17.9941H354.395V16.9941H353.395V17.9941ZM359.07 29.5547H338.76V31.5547H359.07V29.5547ZM337.76 30.5547V37.3247H339.76V30.5547H337.76ZM338.76 38.3247H359.07V36.3247H338.76V38.3247ZM358.07 37.3247V43H360.07V37.3247H358.07ZM359.07 42H338.76V44H359.07V42ZM338.76 42C338.12 42 337.522 41.8808 336.955 41.6448L336.186 43.4909C337.003 43.8311 337.863 44 338.76 44V42ZM336.977 41.6541C336.386 41.3916 335.88 41.0521 335.449 40.6376L334.062 42.0782C334.669 42.6624 335.372 43.1296 336.165 43.4817L336.977 41.6541ZM335.476 40.6643C335.062 40.2338 334.722 39.7274 334.46 39.1368L332.632 39.9491C332.984 40.7414 333.451 41.4449 334.035 42.0516L335.476 40.6643ZM334.469 39.1584C334.234 38.595 334.114 37.987 334.114 37.3247H332.114C332.114 38.2373 332.281 39.1081 332.623 39.9276L334.469 39.1584ZM334.114 37.3247V17.9941H332.114V37.3247H334.114ZM334.114 17.9941C334.114 17.3318 334.234 16.7238 334.469 16.1605L332.623 15.3913C332.281 16.2107 332.114 17.0816 332.114 17.9941H334.114ZM334.46 16.182C334.721 15.5947 335.056 15.1034 335.463 14.6969L334.049 13.2826C333.456 13.8748 332.986 14.5742 332.632 15.3697L334.46 16.182ZM335.463 14.6969C335.887 14.2727 336.382 13.9418 336.955 13.7029L336.186 11.8567C335.377 12.1939 334.662 12.6697 334.049 13.2826L335.463 14.6969ZM336.977 13.6936C337.538 13.444 338.13 13.3188 338.76 13.3188V11.3188C337.854 11.3188 336.986 11.501 336.165 11.866L336.977 13.6936ZM338.76 13.3188H353.395V11.3188H338.76V13.3188ZM353.395 13.3188C354.048 13.3188 354.649 13.4455 355.207 13.6936L356.019 11.866C355.195 11.4995 354.316 11.3188 353.395 11.3188V13.3188ZM355.229 13.7029C355.799 13.9404 356.279 14.2675 356.679 14.6834L358.12 13.2961C357.521 12.6749 356.81 12.1953 355.998 11.8567L355.229 13.7029ZM356.706 14.7101C357.122 15.1106 357.449 15.5903 357.686 16.1605L359.532 15.3913C359.194 14.5787 358.714 13.8676 358.093 13.2694L356.706 14.7101ZM357.695 16.182C357.944 16.7403 358.07 17.3408 358.07 17.9941H360.07C360.07 17.0726 359.89 16.1942 359.523 15.3697L357.695 16.182ZM358.07 17.9941V30.5547H360.07V17.9941H358.07ZM337.76 17.9941V24.8794H339.76V17.9941H337.76ZM338.76 25.8794H353.395V23.8794H338.76V25.8794ZM354.395 24.8794V17.9941H352.395V24.8794H354.395ZM353.395 16.9941H338.76V18.9941H353.395V16.9941ZM175.208 68.4512L174.793 67.5416L172.413 68.6287L174.911 69.406L175.208 68.4512ZM179.385 71.5337L178.541 72.0693L178.547 72.0787L179.385 71.5337ZM180.538 74.2705L181.507 74.0238L180.538 74.2705ZM148.301 90H147.301V91H148.301V90ZM148.301 48.6885V47.6885H147.301V48.6885H148.301ZM178.636 65.1958L177.744 64.744L177.742 64.7486L178.636 65.1958ZM154.091 71.9946V70.9946H153.091V71.9946H154.091ZM154.091 84.2095H153.091V85.2095H154.091V84.2095ZM174.113 83.1147L173.387 82.427L174.113 83.1147ZM154.091 54.479V53.479H153.091V54.479H154.091ZM154.091 66.2329H153.091V67.2329H154.091V66.2329ZM169.965 66.2329V67.2329H169.985L170.005 67.2321L169.965 66.2329ZM173.019 65.0806L172.264 64.4249L172.262 64.4264L173.019 65.0806ZM174.911 69.406C175.68 69.6454 176.373 69.9845 176.995 70.4217L178.145 68.7853C177.346 68.2238 176.464 67.7947 175.505 67.4963L174.911 69.406ZM176.995 70.4217C177.591 70.84 178.107 71.3846 178.541 72.0692L180.23 70.9981C179.665 70.108 178.971 69.3657 178.145 68.7853L176.995 70.4217ZM178.547 72.0787C178.977 72.7398 179.322 73.5473 179.569 74.5172L181.507 74.0238C181.216 72.8811 180.793 71.8641 180.224 70.9887L178.547 72.0787ZM179.569 74.5172C179.812 75.4757 179.941 76.6002 179.941 77.9004H181.941C181.941 76.4734 181.8 75.1779 181.507 74.0238L179.569 74.5172ZM179.941 77.9004V79.9746H181.941V77.9004H179.941ZM179.941 79.9746C179.941 83.1623 179.145 85.3693 177.727 86.7865C176.31 88.2038 174.103 89 170.916 89V91C174.411 91 177.217 90.1253 179.142 88.2008C181.066 86.2762 181.941 83.4706 181.941 79.9746H179.941ZM170.916 89H148.301V91H170.916V89ZM149.301 90V48.6885H147.301V90H149.301ZM148.301 49.6885H169.734V47.6885H148.301V49.6885ZM169.734 49.6885C172.921 49.6885 175.128 50.4867 176.545 51.9081C177.963 53.33 178.76 55.5447 178.76 58.7427H180.76C180.76 55.2379 179.885 52.4254 177.962 50.4959C176.037 48.5659 173.231 47.6885 169.734 47.6885V49.6885ZM178.76 58.7427V59.4917H180.76V58.7427H178.76ZM178.76 59.4917C178.76 61.7179 178.4 63.4499 177.744 64.744L179.528 65.6476C180.371 63.984 180.76 61.9133 180.76 59.4917H178.76ZM177.742 64.7486C177.119 65.9936 176.151 66.921 174.793 67.5416L175.624 69.3608C177.376 68.5602 178.694 67.3173 179.531 65.643L177.742 64.7486ZM153.091 71.9946V84.2095H155.091V71.9946H153.091ZM154.091 85.2095H170.743V83.2095H154.091V85.2095ZM170.743 85.2095C172.425 85.2095 173.877 84.8182 174.839 83.8025L173.387 82.427C172.967 82.8709 172.172 83.2095 170.743 83.2095V85.2095ZM174.839 83.8025C175.782 82.8076 176.15 81.3625 176.15 79.6865H174.15C174.15 81.1219 173.828 81.9623 173.387 82.427L174.839 83.8025ZM176.15 79.6865V76.4888H174.15V79.6865H176.15ZM176.15 76.4888C176.15 74.8008 175.785 73.3446 174.83 72.3632L173.397 73.7579C173.825 74.1977 174.15 75.027 174.15 76.4888H176.15ZM174.83 72.3632C173.867 71.3732 172.419 70.9946 170.743 70.9946V72.9946C172.178 72.9946 172.977 73.3267 173.397 73.7579L174.83 72.3632ZM170.743 70.9946H154.091V72.9946H170.743V70.9946ZM153.091 54.479V66.2329H155.091V54.479H153.091ZM154.091 67.2329H169.965V65.2329H154.091V67.2329ZM170.005 67.2321C171.562 67.169 172.904 66.7413 173.775 65.7347L172.262 64.4264C171.904 64.8411 171.211 65.1816 169.924 65.2337L170.005 67.2321ZM173.774 65.7363C174.632 64.7475 174.969 63.3512 174.969 61.7388H172.969C172.969 63.1225 172.672 63.954 172.264 64.4249L173.774 65.7363ZM174.969 61.7388V59.0308H172.969V61.7388H174.969ZM174.969 59.0308C174.969 57.3396 174.602 55.8828 173.658 54.886L172.206 56.2615C172.645 56.7243 172.969 57.5721 172.969 59.0308H174.969ZM173.658 54.886C172.696 53.8702 171.244 53.479 169.562 53.479V55.479C170.991 55.479 171.786 55.8176 172.206 56.2615L173.658 54.886ZM169.562 53.479H154.091V55.479H169.562V53.479ZM209.381 86.543L208.467 86.1368L208.462 86.1475L208.458 86.1584L209.381 86.543ZM208.171 88.3579L208.878 89.065L208.171 88.3579ZM206.385 89.5679L206.779 90.4871L206.791 90.4817L206.385 89.5679ZM186.766 89.5679L186.36 90.4817L186.371 90.4864L186.381 90.4909L186.766 89.5679ZM184.951 88.3579L184.231 89.0516L184.244 89.0651L184.257 89.0782L184.951 88.3579ZM183.741 86.543L182.818 86.9276L182.823 86.9384L182.827 86.9491L183.741 86.543ZM183.741 62.7759L182.827 62.3697L182.823 62.3804L182.818 62.3913L183.741 62.7759ZM184.951 60.9897L184.244 60.2826L184.951 60.9897ZM186.766 59.7798L187.151 60.7029L187.161 60.6984L187.172 60.6936L186.766 59.7798ZM206.385 59.7798L205.969 60.6893L205.984 60.6963L206 60.7029L206.385 59.7798ZM208.171 60.9897L207.45 61.6834L207.464 61.697L207.477 61.7101L208.171 60.9897ZM209.381 62.7759L208.458 63.1605L208.462 63.1713L208.467 63.182L209.381 62.7759ZM188.955 64.9941V63.9941H187.955V64.9941H188.955ZM188.955 84.3247H187.955V85.3247H188.955V84.3247ZM204.195 84.3247V85.3247H205.195V84.3247H204.195ZM204.195 64.9941H205.195V63.9941H204.195V64.9941ZM208.842 84.3247C208.842 84.9781 208.715 85.5785 208.467 86.1368L210.295 86.9491C210.661 86.1246 210.842 85.2462 210.842 84.3247H208.842ZM208.458 86.1584C208.219 86.7318 207.888 87.2266 207.464 87.6508L208.878 89.065C209.491 88.4521 209.967 87.7369 210.304 86.9276L208.458 86.1584ZM207.464 87.6508C207.057 88.0573 206.566 88.393 205.979 88.6541L206.791 90.4817C207.586 90.1281 208.286 89.6572 208.878 89.065L207.464 87.6508ZM205.991 88.6487C205.452 88.8795 204.858 89 204.195 89V91C205.108 91 205.973 90.8324 206.779 90.487L205.991 88.6487ZM204.195 89H188.955V91H204.195V89ZM188.955 89C188.316 89 187.717 88.8808 187.151 88.6448L186.381 90.4909C187.198 90.8311 188.059 91 188.955 91V89ZM187.172 88.6541C186.582 88.3916 186.075 88.0521 185.645 87.6376L184.257 89.0782C184.864 89.6624 185.568 90.1296 186.36 90.4817L187.172 88.6541ZM185.671 87.6643C185.257 87.2338 184.917 86.7274 184.655 86.1368L182.827 86.9491C183.179 87.7414 183.647 88.4449 184.231 89.0516L185.671 87.6643ZM184.664 86.1584C184.429 85.595 184.309 84.987 184.309 84.3247H182.309C182.309 85.2373 182.477 86.1081 182.818 86.9276L184.664 86.1584ZM184.309 84.3247V64.9941H182.309V84.3247H184.309ZM184.309 64.9941C184.309 64.3318 184.429 63.7238 184.664 63.1605L182.818 62.3913C182.477 63.2107 182.309 64.0816 182.309 64.9941H184.309ZM184.655 63.182C184.916 62.5947 185.252 62.1034 185.658 61.6969L184.244 60.2826C183.652 60.8748 183.181 61.5742 182.827 62.3697L184.655 63.182ZM185.658 61.6969C186.082 61.2727 186.577 60.9418 187.151 60.7029L186.381 58.8567C185.572 59.1939 184.857 59.6697 184.244 60.2826L185.658 61.6969ZM187.172 60.6936C187.734 60.444 188.325 60.3188 188.955 60.3188V58.3188C188.05 58.3188 187.181 58.501 186.36 58.866L187.172 60.6936ZM188.955 60.3188H204.195V58.3188H188.955V60.3188ZM204.195 60.3188C204.849 60.3188 205.436 60.4455 205.969 60.6893L206.8 58.8703C205.989 58.4995 205.117 58.3188 204.195 58.3188V60.3188ZM206 60.7029C206.57 60.9404 207.05 61.2675 207.45 61.6834L208.891 60.2961C208.293 59.6749 207.582 59.1953 206.769 58.8567L206 60.7029ZM207.477 61.7101C207.893 62.1106 208.22 62.5903 208.458 63.1605L210.304 62.3913C209.965 61.5787 209.486 60.8676 208.864 60.2694L207.477 61.7101ZM208.467 63.182C208.715 63.7403 208.842 64.3408 208.842 64.9941H210.842C210.842 64.0726 210.661 63.1942 210.295 62.3697L208.467 63.182ZM208.842 64.9941V84.3247H210.842V64.9941H208.842ZM187.955 64.9941V84.3247H189.955V64.9941H187.955ZM188.955 85.3247H204.195V83.3247H188.955V85.3247ZM205.195 84.3247V64.9941H203.195V84.3247H205.195ZM204.195 63.9941H188.955V65.9941H204.195V63.9941ZM219.066 64.9941V63.9941H218.066V64.9941H219.066ZM219.066 90V91H220.066V90H219.066ZM213.42 90H212.42V91H213.42V90ZM213.42 59.3188V58.3188H212.42V59.3188H213.42ZM219.066 59.3188H220.066V58.3188H219.066V59.3188ZM219.066 64.7349H218.066L220.065 64.7861L219.066 64.7349ZM219.585 62.6318L220.49 63.0577L220.494 63.0476L219.585 62.6318ZM220.795 60.9033L221.488 61.6242L221.488 61.6236L220.795 60.9033ZM222.581 59.751L222.952 60.6795L222.964 60.6749L222.975 60.6701L222.581 59.751ZM232.952 59.7798L232.536 60.6893L232.552 60.6963L232.567 60.7029L232.952 59.7798ZM234.767 60.9897L234.06 61.6969L234.066 61.7035L234.073 61.7101L234.767 60.9897ZM235.977 62.7759L235.054 63.1605L235.058 63.1713L235.063 63.182L235.977 62.7759ZM236.438 70.1797V71.1797H237.438V70.1797H236.438ZM230.762 70.1797H229.762V71.1797H230.762V70.1797ZM230.762 64.9941H231.762V63.9941H230.762V64.9941ZM218.066 64.9941V90H220.066V64.9941H218.066ZM219.066 89H213.42V91H219.066V89ZM214.42 90V59.3188H212.42V90H214.42ZM213.42 60.3188H219.066V58.3188H213.42V60.3188ZM218.066 59.3188V64.7349H220.066V59.3188H218.066ZM220.065 64.7861C220.097 64.1616 220.24 63.5884 220.49 63.0576L218.68 62.206C218.315 62.9812 218.112 63.81 218.068 64.6836L220.065 64.7861ZM220.494 63.0476C220.753 62.4821 221.085 62.0114 221.488 61.6242L220.102 60.1825C219.506 60.7555 219.031 61.4372 218.675 62.2161L220.494 63.0476ZM221.488 61.6236C221.913 61.2143 222.399 60.9007 222.952 60.6795L222.209 58.8225C221.418 59.139 220.713 59.5936 220.101 60.183L221.488 61.6236ZM222.975 60.6701C223.516 60.4381 224.102 60.3188 224.742 60.3188V58.3188C223.845 58.3188 222.99 58.4877 222.187 58.8318L222.975 60.6701ZM224.742 60.3188H230.762V58.3188H224.742V60.3188ZM230.762 60.3188C231.416 60.3188 232.003 60.4455 232.536 60.6893L233.368 58.8703C232.557 58.4995 231.684 58.3188 230.762 58.3188V60.3188ZM232.567 60.7029C233.141 60.9418 233.636 61.2727 234.06 61.6969L235.474 60.2826C234.861 59.6697 234.146 59.1939 233.337 58.8567L232.567 60.7029ZM234.073 61.7101C234.489 62.1106 234.816 62.5903 235.054 63.1605L236.9 62.3913C236.561 61.5787 236.082 60.8676 235.461 60.2694L234.073 61.7101ZM235.063 63.182C235.311 63.7403 235.438 64.3408 235.438 64.9941H237.438C237.438 64.0726 237.257 63.1942 236.891 62.3697L235.063 63.182ZM235.438 64.9941V70.1797H237.438V64.9941H235.438ZM236.438 69.1797H230.762V71.1797H236.438V69.1797ZM231.762 70.1797V64.9941H229.762V70.1797H231.762ZM230.762 63.9941H219.066V65.9941H230.762V63.9941ZM243.242 64.9941V63.9941H242.242V64.9941H243.242ZM243.242 84.3247H242.242V85.3247H243.242V84.3247ZM257.877 84.3247V85.3247H258.877V84.3247H257.877ZM257.877 79.1392V78.1392H256.877V79.1392H257.877ZM263.552 79.1392H264.552V78.1392H263.552V79.1392ZM263.092 86.543L262.178 86.1368L262.173 86.1475L262.168 86.1584L263.092 86.543ZM261.882 88.3579L262.589 89.065L261.882 88.3579ZM260.095 89.5679L260.48 90.4909L260.491 90.4864L260.502 90.4817L260.095 89.5679ZM241.053 89.5679L240.647 90.4817L240.658 90.4864L240.668 90.4909L241.053 89.5679ZM239.238 88.3579L238.518 89.0516L238.531 89.0651L238.544 89.0782L239.238 88.3579ZM238.028 86.543L237.105 86.9276L237.109 86.9384L237.114 86.9491L238.028 86.543ZM238.028 62.7759L237.114 62.3697L237.109 62.3804L237.105 62.3913L238.028 62.7759ZM239.238 60.9897L238.531 60.2826L239.238 60.9897ZM241.053 59.7798L241.438 60.7029L241.448 60.6984L241.459 60.6936L241.053 59.7798ZM260.095 59.7798L259.689 60.6936L259.7 60.6984L259.711 60.7029L260.095 59.7798ZM261.882 60.9897L261.161 61.6834L261.174 61.697L261.188 61.7101L261.882 60.9897ZM263.092 62.7759L262.168 63.1605L262.173 63.1713L262.178 63.182L263.092 62.7759ZM263.552 70.1797V71.1797H264.552V70.1797H263.552ZM257.877 70.1797H256.877V71.1797H257.877V70.1797ZM257.877 64.9941H258.877V63.9941H257.877V64.9941ZM242.242 64.9941V84.3247H244.242V64.9941H242.242ZM243.242 85.3247H257.877V83.3247H243.242V85.3247ZM258.877 84.3247V79.1392H256.877V84.3247H258.877ZM257.877 80.1392H263.552V78.1392H257.877V80.1392ZM262.552 79.1392V84.3247H264.552V79.1392H262.552ZM262.552 84.3247C262.552 84.9781 262.426 85.5785 262.178 86.1368L264.005 86.9491C264.372 86.1246 264.552 85.2462 264.552 84.3247H262.552ZM262.168 86.1584C261.929 86.7318 261.599 87.2266 261.174 87.6508L262.589 89.065C263.202 88.4521 263.677 87.7369 264.015 86.9276L262.168 86.1584ZM261.174 87.6508C260.768 88.0573 260.277 88.393 259.689 88.6541L260.502 90.4817C261.297 90.1281 261.996 89.6572 262.589 89.065L261.174 87.6508ZM259.711 88.6448C259.147 88.8795 258.539 89 257.877 89V91C258.79 91 259.661 90.8324 260.48 90.4909L259.711 88.6448ZM257.877 89H243.242V91H257.877V89ZM243.242 89C242.603 89 242.004 88.8808 241.438 88.6448L240.668 90.4909C241.485 90.8311 242.346 91 243.242 91V89ZM241.459 88.6541C240.869 88.3916 240.362 88.0521 239.932 87.6376L238.544 89.0782C239.151 89.6624 239.855 90.1296 240.647 90.4817L241.459 88.6541ZM239.958 87.6643C239.544 87.2338 239.204 86.7274 238.942 86.1368L237.114 86.9491C237.466 87.7414 237.934 88.4449 238.518 89.0516L239.958 87.6643ZM238.951 86.1584C238.716 85.595 238.596 84.987 238.596 84.3247H236.596C236.596 85.2373 236.764 86.1081 237.105 86.9276L238.951 86.1584ZM238.596 84.3247V64.9941H236.596V84.3247H238.596ZM238.596 64.9941C238.596 64.3318 238.716 63.7238 238.951 63.1605L237.105 62.3913C236.764 63.2107 236.596 64.0816 236.596 64.9941H238.596ZM238.942 63.182C239.203 62.5947 239.539 62.1034 239.945 61.6969L238.531 60.2826C237.939 60.8748 237.468 61.5742 237.114 62.3697L238.942 63.182ZM239.945 61.6969C240.369 61.2727 240.864 60.9418 241.438 60.7029L240.668 58.8567C239.859 59.1939 239.144 59.6697 238.531 60.2826L239.945 61.6969ZM241.459 60.6936C242.021 60.444 242.612 60.3188 243.242 60.3188V58.3188C242.336 58.3188 241.468 58.501 240.647 58.866L241.459 60.6936ZM243.242 60.3188H257.877V58.3188H243.242V60.3188ZM257.877 60.3188C258.53 60.3188 259.131 60.4455 259.689 60.6936L260.502 58.866C259.677 58.4995 258.799 58.3188 257.877 58.3188V60.3188ZM259.711 60.7029C260.281 60.9404 260.761 61.2675 261.161 61.6834L262.602 60.2961C262.004 59.6749 261.293 59.1953 260.48 58.8567L259.711 60.7029ZM261.188 61.7101C261.604 62.1106 261.931 62.5903 262.168 63.1605L264.015 62.3913C263.676 61.5787 263.196 60.8676 262.575 60.2694L261.188 61.7101ZM262.178 63.182C262.426 63.7403 262.552 64.3408 262.552 64.9941H264.552C264.552 64.0726 264.372 63.1942 264.005 62.3697L262.178 63.182ZM262.552 64.9941V70.1797H264.552V64.9941H262.552ZM263.552 69.1797H257.877V71.1797H263.552V69.1797ZM258.877 70.1797V64.9941H256.877V70.1797H258.877ZM257.877 63.9941H243.242V65.9941H257.877V63.9941ZM294.268 90V91H295.268V90H294.268ZM288.593 90H287.593V91H288.593V90ZM288.593 64.9941H289.593V63.9941H288.593V64.9941ZM272.777 64.9941V63.9941H271.777V64.9941H272.777ZM272.777 90V91H273.777V90H272.777ZM267.13 90H266.13V91H267.13V90ZM267.13 47.5073V46.5073H266.13V47.5073H267.13ZM272.777 47.5073H273.777V46.5073H272.777V47.5073ZM272.777 64.7349H271.777L273.776 64.7861L272.777 64.7349ZM273.296 62.6318L274.2 63.0577L274.205 63.0476L273.296 62.6318ZM274.505 60.9033L275.199 61.6242L275.199 61.6236L274.505 60.9033ZM276.292 59.751L276.663 60.6795L276.674 60.6749L276.686 60.6701L276.292 59.751ZM290.811 59.7798L290.405 60.6936L290.416 60.6984L290.427 60.7029L290.811 59.7798ZM292.597 60.9897L291.877 61.6834L291.89 61.697L291.904 61.7101L292.597 60.9897ZM293.807 62.7759L292.884 63.1605L292.889 63.1713L292.893 63.182L293.807 62.7759ZM294.268 89H288.593V91H294.268V89ZM289.593 90V64.9941H287.593V90H289.593ZM288.593 63.9941H272.777V65.9941H288.593V63.9941ZM271.777 64.9941V90H273.777V64.9941H271.777ZM272.777 89H267.13V91H272.777V89ZM268.13 90V47.5073H266.13V90H268.13ZM267.13 48.5073H272.777V46.5073H267.13V48.5073ZM271.777 47.5073V64.7349H273.777V47.5073H271.777ZM273.776 64.7861C273.808 64.1616 273.951 63.5884 274.2 63.0576L272.391 62.206C272.026 62.9812 271.823 63.81 271.778 64.6836L273.776 64.7861ZM274.205 63.0476C274.464 62.4821 274.796 62.0114 275.199 61.6242L273.812 60.1825C273.216 60.7555 272.742 61.4372 272.386 62.2161L274.205 63.0476ZM275.199 61.6236C275.624 61.2143 276.11 60.9007 276.663 60.6795L275.92 58.8225C275.129 59.139 274.424 59.5936 273.812 60.183L275.199 61.6236ZM276.686 60.6701C277.227 60.4381 277.812 60.3188 278.452 60.3188V58.3188C277.556 58.3188 276.701 58.4877 275.898 58.8318L276.686 60.6701ZM278.452 60.3188H288.593V58.3188H278.452V60.3188ZM288.593 60.3188C289.246 60.3188 289.847 60.4455 290.405 60.6936L291.217 58.866C290.393 58.4995 289.514 58.3188 288.593 58.3188V60.3188ZM290.427 60.7029C290.997 60.9404 291.476 61.2675 291.877 61.6834L293.318 60.2961C292.719 59.6749 292.008 59.1953 291.196 58.8567L290.427 60.7029ZM291.904 61.7101C292.32 62.1106 292.647 62.5903 292.884 63.1605L294.73 62.3913C294.392 61.5787 293.912 60.8676 293.291 60.2694L291.904 61.7101ZM292.893 63.182C293.142 63.7403 293.268 64.3408 293.268 64.9941H295.268C295.268 64.0726 295.087 63.1942 294.721 62.3697L292.893 63.182ZM293.268 64.9941V90H295.268V64.9941H293.268ZM298.25 74.4146L297.336 74.0084L297.33 74.0206L298.25 74.4146ZM299.459 72.5996L298.752 71.8925L298.746 71.8992L298.739 71.906L299.459 72.5996ZM301.274 71.3896L301.659 72.3127L301.67 72.3082L301.681 72.3035L301.274 71.3896ZM318.099 70.9287V71.9287H319.099V70.9287H318.099ZM318.099 64.9941H319.099V63.9941H318.099V64.9941ZM299.575 64.9941H298.575V65.9941H299.575V64.9941ZM299.575 59.3188V58.3188H298.575V59.3188H299.575ZM320.317 59.7798L319.911 60.6936L319.921 60.6984L319.932 60.7029L320.317 59.7798ZM322.103 60.9897L321.383 61.6834L321.396 61.697L321.409 61.7101L322.103 60.9897ZM323.313 62.7759L322.39 63.1605L322.394 63.1713L322.399 63.182L323.313 62.7759ZM323.774 90V91H324.774V90H323.774ZM318.099 90H317.099V91H318.099V90ZM318.099 84.8145H319.099L317.102 84.7336L318.099 84.8145ZM316.255 88.502L316.933 89.2368L316.934 89.2357L316.255 88.502ZM301.274 89.5679L300.868 90.4817L300.879 90.4864L300.89 90.4909L301.274 89.5679ZM299.459 88.3579L298.739 89.0516L298.752 89.0651L298.766 89.0782L299.459 88.3579ZM298.25 86.543L297.326 86.9276L297.331 86.9384L297.336 86.9491L298.25 86.543ZM303.464 84.3247H302.464V85.3247H303.464V84.3247ZM318.099 84.3247V85.3247H319.099V84.3247H318.099ZM318.099 76.604H319.099V75.604H318.099V76.604ZM303.464 76.604V75.604H302.464V76.604H303.464ZM298.817 76.604C298.817 75.9415 298.938 75.3469 299.169 74.8085L297.33 74.0206C296.985 74.8266 296.817 75.6917 296.817 76.604H298.817ZM299.163 74.8207C299.426 74.2302 299.765 73.7237 300.18 73.2933L298.739 71.906C298.155 72.5126 297.688 73.2161 297.336 74.0084L299.163 74.8207ZM300.167 73.3067C300.591 72.8825 301.086 72.5517 301.659 72.3127L300.89 70.4666C300.08 70.8038 299.365 71.2796 298.752 71.8925L300.167 73.3067ZM301.681 72.3035C302.242 72.0539 302.833 71.9287 303.464 71.9287V69.9287C302.558 69.9287 301.69 70.1108 300.868 70.4758L301.681 72.3035ZM303.464 71.9287H318.099V69.9287H303.464V71.9287ZM319.099 70.9287V64.9941H317.099V70.9287H319.099ZM318.099 63.9941H299.575V65.9941H318.099V63.9941ZM300.575 64.9941V59.3188H298.575V64.9941H300.575ZM299.575 60.3188H318.099V58.3188H299.575V60.3188ZM318.099 60.3188C318.752 60.3188 319.352 60.4455 319.911 60.6936L320.723 58.866C319.899 58.4995 319.02 58.3188 318.099 58.3188V60.3188ZM319.932 60.7029C320.502 60.9404 320.982 61.2675 321.383 61.6834L322.823 60.2961C322.225 59.6749 321.514 59.1953 320.702 58.8567L319.932 60.7029ZM321.409 61.7101C321.825 62.1106 322.152 62.5903 322.39 63.1605L324.236 62.3913C323.897 61.5787 323.418 60.8676 322.797 60.2694L321.409 61.7101ZM322.399 63.182C322.647 63.7403 322.774 64.3408 322.774 64.9941H324.774C324.774 64.0726 324.593 63.1942 324.227 62.3697L322.399 63.182ZM322.774 64.9941V90H324.774V64.9941H322.774ZM323.774 89H318.099V91H323.774V89ZM319.099 90V84.8145H317.099V90H319.099ZM317.102 84.7336C317.055 85.3127 316.9 85.8567 316.633 86.3731L318.411 87.289C318.798 86.5379 319.027 85.7375 319.095 84.8953L317.102 84.7336ZM316.633 86.3731C316.36 86.9044 316.008 87.3678 315.575 87.7682L316.934 89.2357C317.539 88.6758 318.032 88.0253 318.411 87.289L316.633 86.3731ZM315.577 87.7671C315.168 88.1445 314.693 88.4465 314.146 88.672L314.907 90.5214C315.665 90.2091 316.343 89.7813 316.933 89.2368L315.577 87.7671ZM314.146 88.672C313.617 88.8895 313.056 89 312.452 89V91C313.308 91 314.129 90.8416 314.907 90.5214L314.146 88.672ZM312.452 89H303.464V91H312.452V89ZM303.464 89C302.824 89 302.225 88.8808 301.659 88.6448L300.89 90.4909C301.706 90.8311 302.567 91 303.464 91V89ZM301.681 88.6541C301.09 88.3916 300.584 88.0521 300.153 87.6376L298.766 89.0782C299.372 89.6624 300.076 90.1296 300.868 90.4817L301.681 88.6541ZM300.18 87.6643C299.765 87.2338 299.426 86.7274 299.163 86.1368L297.336 86.9491C297.688 87.7414 298.155 88.4449 298.739 89.0516L300.18 87.6643ZM299.173 86.1584C298.938 85.595 298.817 84.987 298.817 84.3247H296.817C296.817 85.2373 296.985 86.1081 297.326 86.9276L299.173 86.1584ZM298.817 84.3247V76.604H296.817V84.3247H298.817ZM303.464 85.3247H318.099V83.3247H303.464V85.3247ZM319.099 84.3247V76.604H317.099V84.3247H319.099ZM318.099 75.604H303.464V77.604H318.099V75.604ZM302.464 76.604V84.3247H304.464V76.604H302.464ZM332.998 64.9941V63.9941H331.998V64.9941H332.998ZM332.998 90V91H333.998V90H332.998ZM327.352 90H326.352V91H327.352V90ZM327.352 59.3188V58.3188H326.352V59.3188H327.352ZM332.998 59.3188H333.998V58.3188H332.998V59.3188ZM332.998 64.7349H331.998L333.997 64.7861L332.998 64.7349ZM333.517 62.6318L334.422 63.0577L334.426 63.0476L333.517 62.6318ZM334.727 60.9033L335.42 61.6242L335.421 61.6236L334.727 60.9033ZM336.513 59.751L336.884 60.6795L336.896 60.6749L336.907 60.6701L336.513 59.751ZM346.884 59.7798L346.468 60.6893L346.484 60.6963L346.5 60.7029L346.884 59.7798ZM348.699 60.9897L347.992 61.6969L347.999 61.7035L348.005 61.7101L348.699 60.9897ZM349.909 62.7759L348.986 63.1605L348.991 63.1713L348.995 63.182L349.909 62.7759ZM350.37 70.1797V71.1797H351.37V70.1797H350.37ZM344.695 70.1797H343.695V71.1797H344.695V70.1797ZM344.695 64.9941H345.695V63.9941H344.695V64.9941ZM331.998 64.9941V90H333.998V64.9941H331.998ZM332.998 89H327.352V91H332.998V89ZM328.352 90V59.3188H326.352V90H328.352ZM327.352 60.3188H332.998V58.3188H327.352V60.3188ZM331.998 59.3188V64.7349H333.998V59.3188H331.998ZM333.997 64.7861C334.029 64.1616 334.172 63.5884 334.422 63.0576L332.612 62.206C332.247 62.9812 332.045 63.81 332 64.6836L333.997 64.7861ZM334.426 63.0476C334.685 62.4821 335.017 62.0114 335.42 61.6242L334.034 60.1825C333.438 60.7555 332.964 61.4372 332.608 62.2161L334.426 63.0476ZM335.421 61.6236C335.846 61.2143 336.331 60.9007 336.884 60.6795L336.142 58.8225C335.35 59.139 334.645 59.5936 334.033 60.183L335.421 61.6236ZM336.907 60.6701C337.448 60.4381 338.034 60.3188 338.674 60.3188V58.3188C337.777 58.3188 336.922 58.4877 336.119 58.8318L336.907 60.6701ZM338.674 60.3188H344.695V58.3188H338.674V60.3188ZM344.695 60.3188C345.348 60.3188 345.935 60.4455 346.468 60.6893L347.3 58.8703C346.489 58.4995 345.616 58.3188 344.695 58.3188V60.3188ZM346.5 60.7029C347.073 60.9418 347.568 61.2727 347.992 61.6969L349.406 60.2826C348.793 59.6697 348.078 59.1939 347.269 58.8567L346.5 60.7029ZM348.005 61.7101C348.421 62.1106 348.748 62.5903 348.986 63.1605L350.832 62.3913C350.494 61.5787 350.014 60.8676 349.393 60.2694L348.005 61.7101ZM348.995 63.182C349.243 63.7403 349.37 64.3408 349.37 64.9941H351.37C351.37 64.0726 351.189 63.1942 350.823 62.3697L348.995 63.182ZM349.37 64.9941V70.1797H351.37V64.9941H349.37ZM350.37 69.1797H344.695V71.1797H350.37V69.1797ZM345.695 70.1797V64.9941H343.695V70.1797H345.695ZM344.695 63.9941H332.998V65.9941H344.695V63.9941ZM351.96 62.7759L351.046 62.3697L351.042 62.3804L351.037 62.3913L351.96 62.7759ZM353.17 60.9897L352.463 60.2826L353.17 60.9897ZM354.985 59.7798L355.37 60.7029L355.381 60.6984L355.391 60.6936L354.985 59.7798ZM372.991 59.3188V60.3188H373.991V59.3188H372.991ZM372.991 47.5073V46.5073H371.991V47.5073H372.991ZM378.666 47.5073H379.666V46.5073H378.666V47.5073ZM378.666 90V91H379.666V90H378.666ZM372.991 90H371.991V91H372.991V90ZM372.991 84.8145H373.991L371.994 84.7336L372.991 84.8145ZM371.147 88.502L371.825 89.2368L371.826 89.2357L371.147 88.502ZM354.985 89.5679L354.579 90.4817L354.59 90.4864L354.601 90.4909L354.985 89.5679ZM353.17 88.3579L352.45 89.0516L352.463 89.0651L352.477 89.0782L353.17 88.3579ZM351.96 86.543L351.037 86.9276L351.042 86.9384L351.046 86.9491L351.96 86.543ZM357.175 84.3247H356.175V85.3247H357.175V84.3247ZM372.991 84.3247V85.3247H373.991V84.3247H372.991ZM372.991 64.9941H373.991V63.9941H372.991V64.9941ZM357.175 64.9941V63.9941H356.175V64.9941H357.175ZM352.528 64.9941C352.528 64.3318 352.649 63.7238 352.883 63.1605L351.037 62.3913C350.696 63.2107 350.528 64.0816 350.528 64.9941H352.528ZM352.874 63.182C353.135 62.5947 353.471 62.1034 353.877 61.6969L352.463 60.2826C351.871 60.8748 351.4 61.5742 351.046 62.3697L352.874 63.182ZM353.877 61.6969C354.302 61.2727 354.796 60.9418 355.37 60.7029L354.601 58.8567C353.791 59.1939 353.076 59.6697 352.463 60.2826L353.877 61.6969ZM355.391 60.6936C355.953 60.444 356.544 60.3188 357.175 60.3188V58.3188C356.269 58.3188 355.4 58.501 354.579 58.866L355.391 60.6936ZM357.175 60.3188H372.991V58.3188H357.175V60.3188ZM373.991 59.3188V47.5073H371.991V59.3188H373.991ZM372.991 48.5073H378.666V46.5073H372.991V48.5073ZM377.666 47.5073V90H379.666V47.5073H377.666ZM378.666 89H372.991V91H378.666V89ZM373.991 90V84.8145H371.991V90H373.991ZM371.994 84.7336C371.947 85.3127 371.791 85.8567 371.525 86.3731L373.303 87.289C373.69 86.5379 373.919 85.7375 373.987 84.8953L371.994 84.7336ZM371.525 86.3731C371.252 86.9044 370.9 87.3678 370.467 87.7682L371.826 89.2357C372.431 88.6758 372.924 88.0253 373.303 87.289L371.525 86.3731ZM370.468 87.7671C370.06 88.1445 369.585 88.4465 369.038 88.672L369.799 90.5214C370.557 90.2091 371.235 89.7813 371.825 89.2368L370.468 87.7671ZM369.038 88.672C368.509 88.8895 367.948 89 367.344 89V91C368.2 91 369.021 90.8416 369.799 90.5214L369.038 88.672ZM367.344 89H357.175V91H367.344V89ZM357.175 89C356.535 89 355.936 88.8808 355.37 88.6448L354.601 90.4909C355.417 90.8311 356.278 91 357.175 91V89ZM355.391 88.6541C354.801 88.3916 354.294 88.0521 353.864 87.6376L352.477 89.0782C353.083 89.6624 353.787 90.1296 354.579 90.4817L355.391 88.6541ZM353.891 87.6643C353.476 87.2338 353.137 86.7274 352.874 86.1368L351.046 86.9491C351.399 87.7414 351.866 88.4449 352.45 89.0516L353.891 87.6643ZM352.883 86.1584C352.649 85.595 352.528 84.987 352.528 84.3247H350.528C350.528 85.2373 350.696 86.1081 351.037 86.9276L352.883 86.1584ZM352.528 84.3247V64.9941H350.528V84.3247H352.528ZM357.175 85.3247H372.991V83.3247H357.175V85.3247ZM373.991 84.3247V64.9941H371.991V84.3247H373.991ZM372.991 63.9941H357.175V65.9941H372.991V63.9941ZM356.175 64.9941V84.3247H358.175V64.9941H356.175ZM380.429 59.3188V58.3188H379.429V59.3188H380.429ZM387.919 59.3188V60.3188H388.919V59.3188H387.919ZM387.919 49.8696V48.8696H386.919V49.8696H387.919ZM393.594 49.8696H394.594V48.8696H393.594V49.8696ZM393.594 59.3188H392.594V60.3188H393.594V59.3188ZM403.677 59.3188H404.677V58.3188H403.677V59.3188ZM403.677 64.9941V65.9941H404.677V64.9941H403.677ZM393.594 64.9941V63.9941H392.594V64.9941H393.594ZM393.594 84.3247H392.594V85.3247H393.594V84.3247ZM403.677 84.3247H404.677V83.3247H403.677V84.3247ZM403.677 90V91H404.677V90H403.677ZM391.405 89.5679L390.999 90.4817L391.01 90.4864L391.02 90.4909L391.405 89.5679ZM389.59 88.3579L388.883 89.065L388.89 89.0717L388.896 89.0782L389.59 88.3579ZM388.351 86.543L387.428 86.9276L387.433 86.9384L387.437 86.9491L388.351 86.543ZM387.919 64.9941H388.919V63.9941H387.919V64.9941ZM380.429 64.9941H379.429V65.9941H380.429V64.9941ZM380.429 60.3188H387.919V58.3188H380.429V60.3188ZM388.919 59.3188V49.8696H386.919V59.3188H388.919ZM387.919 50.8696H393.594V48.8696H387.919V50.8696ZM392.594 49.8696V59.3188H394.594V49.8696H392.594ZM393.594 60.3188H403.677V58.3188H393.594V60.3188ZM402.677 59.3188V64.9941H404.677V59.3188H402.677ZM403.677 63.9941H393.594V65.9941H403.677V63.9941ZM392.594 64.9941V84.3247H394.594V64.9941H392.594ZM393.594 85.3247H403.677V83.3247H393.594V85.3247ZM402.677 84.3247V90H404.677V84.3247H402.677ZM403.677 89H393.594V91H403.677V89ZM393.594 89C392.955 89 392.356 88.8808 391.79 88.6448L391.02 90.4909C391.837 90.8311 392.698 91 393.594 91V89ZM391.811 88.6541C391.221 88.3916 390.714 88.0521 390.284 87.6376L388.896 89.0782C389.503 89.6624 390.207 90.1296 390.999 90.4817L391.811 88.6541ZM390.297 87.6508C389.868 87.2218 389.524 86.7197 389.265 86.1368L387.437 86.9491C387.793 87.749 388.275 88.4569 388.883 89.065L390.297 87.6508ZM389.274 86.1584C389.04 85.595 388.919 84.987 388.919 84.3247H386.919C386.919 85.2373 387.087 86.1081 387.428 86.9276L389.274 86.1584ZM388.919 84.3247V64.9941H386.919V84.3247H388.919ZM387.919 63.9941H380.429V65.9941H387.919V63.9941ZM381.429 64.9941V59.3188H379.429V64.9941H381.429Z" fill="white" mask="url(#path-1-outside-1_14_2)"/>
</g>
<mask id="path-3-outside-2_14_2" maskUnits="userSpaceOnUse" x="9" y="1" width="131" height="92" fill="black">
<rect fill="white" x="9" y="1" width="131" height="92"/>
<path d="M24.3125 53.625C22.5625 53.625 20.8958 53.2917 19.3125 52.625C17.7708 51.9167 16.4167 51 15.25 49.875C14.0833 48.7083 13.1667 47.3542 12.5 45.8125C11.8333 44.2292 11.5 42.5625 11.5 40.8125V15.1875C11.5 13.4375 11.8333 11.7917 12.5 10.25C13.1667 8.66667 14.0833 7.3125 15.25 6.1875C16.4167 5.02083 17.7708 4.10417 19.3125 3.4375C20.8958 2.72917 22.5625 2.375 24.3125 2.375H67.8125C69.5625 2.375 71.2083 2.72917 72.75 3.4375C74.3333 4.10417 75.7083 5.02083 76.875 6.1875C78.0417 7.3125 78.9583 8.66667 79.625 10.25C80.2917 11.7917 80.625 13.4375 80.625 15.1875V26.75H67.8125V15.1875H24.3125V40.8125H67.8125C69.5625 40.8125 71.2083 41.1458 72.75 41.8125C74.3333 42.4792 75.7083 43.3958 76.875 44.5625C78.0417 45.7292 78.9583 47.1042 79.625 48.6875C80.2917 50.2292 80.625 51.875 80.625 53.625V79.1875C80.625 80.9375 80.2917 82.6042 79.625 84.1875C78.9583 85.7292 78.0417 87.0833 76.875 88.25C75.7083 89.4167 74.3333 90.3333 72.75 91C71.2083 91.6667 69.5625 92 67.8125 92H23.0625C21.3125 92 19.6458 91.6667 18.0625 91C16.5208 90.3333 15.1667 89.4167 14 88.25C12.8333 87.0833 11.9167 85.7292 11.25 84.1875C10.5833 82.6042 10.25 80.9375 10.25 79.1875V67.6875H23.0625V79.1875H67.8125V53.625H24.3125ZM126.285 45.25C128.16 45.8333 129.868 46.6667 131.41 47.75C132.952 48.8333 134.264 50.2292 135.347 51.9375C136.431 53.6042 137.264 55.5833 137.847 57.875C138.431 60.1667 138.722 62.7917 138.722 65.75V70.25C138.722 84.75 131.472 92 116.972 92H67.91V2.375H114.41C128.91 2.375 136.16 9.64583 136.16 24.1875V25.8125C136.16 30.8542 135.347 34.9792 133.722 38.1875C132.139 41.3542 129.66 43.7083 126.285 45.25ZM80.4725 52.9375V79.4375H116.597C119.972 79.4375 122.41 78.6458 123.91 77.0625C125.41 75.4792 126.16 73 126.16 69.625V62.6875C126.16 59.2708 125.41 56.7917 123.91 55.25C122.41 53.7083 119.972 52.9375 116.597 52.9375H80.4725ZM80.4725 14.9375V40.4375H114.91C117.993 40.3125 120.202 39.4792 121.535 37.9375C122.91 36.3542 123.597 33.9375 123.597 30.6875V24.8125C123.597 21.3958 122.847 18.8958 121.347 17.3125C119.847 15.7292 117.41 14.9375 114.035 14.9375H80.4725Z"/>
</mask>
<path d="M24.3125 53.625C22.5625 53.625 20.8958 53.2917 19.3125 52.625C17.7708 51.9167 16.4167 51 15.25 49.875C14.0833 48.7083 13.1667 47.3542 12.5 45.8125C11.8333 44.2292 11.5 42.5625 11.5 40.8125V15.1875C11.5 13.4375 11.8333 11.7917 12.5 10.25C13.1667 8.66667 14.0833 7.3125 15.25 6.1875C16.4167 5.02083 17.7708 4.10417 19.3125 3.4375C20.8958 2.72917 22.5625 2.375 24.3125 2.375H67.8125C69.5625 2.375 71.2083 2.72917 72.75 3.4375C74.3333 4.10417 75.7083 5.02083 76.875 6.1875C78.0417 7.3125 78.9583 8.66667 79.625 10.25C80.2917 11.7917 80.625 13.4375 80.625 15.1875V26.75H67.8125V15.1875H24.3125V40.8125H67.8125C69.5625 40.8125 71.2083 41.1458 72.75 41.8125C74.3333 42.4792 75.7083 43.3958 76.875 44.5625C78.0417 45.7292 78.9583 47.1042 79.625 48.6875C80.2917 50.2292 80.625 51.875 80.625 53.625V79.1875C80.625 80.9375 80.2917 82.6042 79.625 84.1875C78.9583 85.7292 78.0417 87.0833 76.875 88.25C75.7083 89.4167 74.3333 90.3333 72.75 91C71.2083 91.6667 69.5625 92 67.8125 92H23.0625C21.3125 92 19.6458 91.6667 18.0625 91C16.5208 90.3333 15.1667 89.4167 14 88.25C12.8333 87.0833 11.9167 85.7292 11.25 84.1875C10.5833 82.6042 10.25 80.9375 10.25 79.1875V67.6875H23.0625V79.1875H67.8125V53.625H24.3125ZM126.285 45.25C128.16 45.8333 129.868 46.6667 131.41 47.75C132.952 48.8333 134.264 50.2292 135.347 51.9375C136.431 53.6042 137.264 55.5833 137.847 57.875C138.431 60.1667 138.722 62.7917 138.722 65.75V70.25C138.722 84.75 131.472 92 116.972 92H67.91V2.375H114.41C128.91 2.375 136.16 9.64583 136.16 24.1875V25.8125C136.16 30.8542 135.347 34.9792 133.722 38.1875C132.139 41.3542 129.66 43.7083 126.285 45.25ZM80.4725 52.9375V79.4375H116.597C119.972 79.4375 122.41 78.6458 123.91 77.0625C125.41 75.4792 126.16 73 126.16 69.625V62.6875C126.16 59.2708 125.41 56.7917 123.91 55.25C122.41 53.7083 119.972 52.9375 116.597 52.9375H80.4725ZM80.4725 14.9375V40.4375H114.91C117.993 40.3125 120.202 39.4792 121.535 37.9375C122.91 36.3542 123.597 33.9375 123.597 30.6875V24.8125C123.597 21.3958 122.847 18.8958 121.347 17.3125C119.847 15.7292 117.41 14.9375 114.035 14.9375H80.4725Z" fill="#3DCFB6"/>
<path d="M19.3125 52.625L18.895 53.5337L18.9096 53.5404L18.9244 53.5466L19.3125 52.625ZM15.25 49.875L14.5429 50.5821L14.5493 50.5885L14.5559 50.5948L15.25 49.875ZM12.5 45.8125L11.5783 46.2006L11.5821 46.2094L12.5 45.8125ZM12.5 10.25L13.4179 10.6469L13.4216 10.6381L12.5 10.25ZM15.25 6.1875L15.9441 6.90734L15.9507 6.90103L15.9571 6.89461L15.25 6.1875ZM19.3125 3.4375L19.7094 4.35543L19.7209 4.35032L19.3125 3.4375ZM72.75 3.4375L72.3325 4.34618L72.3471 4.35289L72.3619 4.35914L72.75 3.4375ZM76.875 6.1875L76.1679 6.89461L76.1743 6.90103L76.1809 6.90734L76.875 6.1875ZM79.625 10.25L78.7033 10.6381L78.7071 10.6469L79.625 10.25ZM80.625 26.75V27.75H81.625V26.75H80.625ZM67.8125 26.75H66.8125V27.75H67.8125V26.75ZM67.8125 15.1875H68.8125V14.1875H67.8125V15.1875ZM24.3125 15.1875V14.1875H23.3125V15.1875H24.3125ZM24.3125 40.8125H23.3125V41.8125H24.3125V40.8125ZM72.75 41.8125L72.3531 42.7304L72.3619 42.7341L72.75 41.8125ZM79.625 48.6875L78.7033 49.0756L78.7071 49.0844L79.625 48.6875ZM79.625 84.1875L80.5429 84.5844L80.5466 84.5756L79.625 84.1875ZM72.75 91L72.3619 90.0783L72.3531 90.0821L72.75 91ZM18.0625 91L17.6656 91.9179L17.6744 91.9216L18.0625 91ZM14 88.25L13.2929 88.9571L14 88.25ZM11.25 84.1875L10.3283 84.5756L10.3321 84.5844L11.25 84.1875ZM10.25 67.6875V66.6875H9.25V67.6875H10.25ZM23.0625 67.6875H24.0625V66.6875H23.0625V67.6875ZM23.0625 79.1875H22.0625V80.1875H23.0625V79.1875ZM67.8125 79.1875V80.1875H68.8125V79.1875H67.8125ZM67.8125 53.625H68.8125V52.625H67.8125V53.625ZM24.3125 52.625C22.6932 52.625 21.1587 52.3173 19.7006 51.7034L18.9244 53.5466C20.6329 54.266 22.4318 54.625 24.3125 54.625V52.625ZM19.73 51.7163C18.2857 51.0527 17.0261 50.1985 15.9441 49.1552L14.5559 50.5948C15.8072 51.8015 17.256 52.7806 18.895 53.5337L19.73 51.7163ZM15.9571 49.1679C14.8813 48.092 14.0354 46.8436 13.4179 45.4156L11.5821 46.2094C12.2979 47.8647 13.2854 49.3246 14.5429 50.5821L15.9571 49.1679ZM13.4216 45.4244C12.8077 43.9663 12.5 42.4318 12.5 40.8125H10.5C10.5 42.6932 10.859 44.4921 11.5784 46.2006L13.4216 45.4244ZM12.5 40.8125V15.1875H10.5V40.8125H12.5ZM12.5 15.1875C12.5 13.5682 12.8076 12.058 13.4179 10.6469L11.5821 9.85309C10.859 11.5253 10.5 13.3068 10.5 15.1875H12.5ZM13.4216 10.6381C14.0389 9.17198 14.8808 7.93273 15.9441 6.90734L14.5559 5.46766C13.2859 6.69227 12.2944 8.16136 11.5784 9.86194L13.4216 10.6381ZM15.9571 6.89461C17.033 5.81875 18.2814 4.97289 19.7094 4.35536L18.9156 2.51964C17.2603 3.23545 15.8004 4.22292 14.5429 5.48039L15.9571 6.89461ZM19.7209 4.35032C21.1746 3.69998 22.7019 3.375 24.3125 3.375V1.375C22.4231 1.375 20.6171 1.75835 18.9041 2.52468L19.7209 4.35032ZM24.3125 3.375H67.8125V1.375H24.3125V3.375ZM67.8125 3.375C69.423 3.375 70.926 3.69993 72.3325 4.34618L73.1675 2.52882C71.4907 1.7584 69.702 1.375 67.8125 1.375V3.375ZM72.3619 4.35914C73.8311 4.97771 75.0965 5.82318 76.1679 6.89461L77.5821 5.48039C76.3202 4.21849 74.8356 3.23062 73.1381 2.51586L72.3619 4.35914ZM76.1809 6.90734C77.2442 7.93273 78.0861 9.17198 78.7034 10.6381L80.5466 9.86194C79.8306 8.16136 78.8391 6.69227 77.5691 5.46766L76.1809 6.90734ZM78.7071 10.6469C79.3174 12.058 79.625 13.5682 79.625 15.1875H81.625C81.625 13.3068 81.266 11.5253 80.5429 9.85309L78.7071 10.6469ZM79.625 15.1875V26.75H81.625V15.1875H79.625ZM80.625 25.75H67.8125V27.75H80.625V25.75ZM68.8125 26.75V15.1875H66.8125V26.75H68.8125ZM67.8125 14.1875H24.3125V16.1875H67.8125V14.1875ZM23.3125 15.1875V40.8125H25.3125V15.1875H23.3125ZM24.3125 41.8125H67.8125V39.8125H24.3125V41.8125ZM67.8125 41.8125C69.4318 41.8125 70.942 42.1201 72.3531 42.7304L73.1469 40.8946C71.4747 40.1715 69.6932 39.8125 67.8125 39.8125V41.8125ZM72.3619 42.7341C73.8311 43.3527 75.0965 44.1982 76.1679 45.2696L77.5821 43.8554C76.3202 42.5935 74.8356 41.6056 73.1381 40.8909L72.3619 42.7341ZM76.1679 45.2696C77.2393 46.341 78.0848 47.6064 78.7034 49.0756L80.5466 48.2994C79.8319 46.6019 78.844 45.1173 77.5821 43.8554L76.1679 45.2696ZM78.7071 49.0844C79.3174 50.4955 79.625 52.0057 79.625 53.625H81.625C81.625 51.7443 81.266 49.9628 80.5429 48.2906L78.7071 49.0844ZM79.625 53.625V79.1875H81.625V53.625H79.625ZM79.625 79.1875C79.625 80.8068 79.3173 82.3413 78.7034 83.7994L80.5466 84.5756C81.266 82.8671 81.625 81.0682 81.625 79.1875H79.625ZM78.7071 83.7906C78.0896 85.2186 77.2437 86.467 76.1679 87.5429L77.5821 88.9571C78.8396 87.6996 79.8271 86.2397 80.5429 84.5844L78.7071 83.7906ZM76.1679 87.5429C75.0965 88.6143 73.8311 89.4598 72.3619 90.0784L73.1381 91.9216C74.8356 91.2069 76.3202 90.219 77.5821 88.9571L76.1679 87.5429ZM72.3531 90.0821C70.942 90.6924 69.4318 91 67.8125 91V93C69.6932 93 71.4747 92.641 73.1469 91.9179L72.3531 90.0821ZM67.8125 91H23.0625V93H67.8125V91ZM23.0625 91C21.4432 91 19.9087 90.6923 18.4506 90.0784L17.6744 91.9216C19.3829 92.641 21.1818 93 23.0625 93V91ZM18.4594 90.0821C17.0314 89.4646 15.783 88.6187 14.7071 87.5429L13.2929 88.9571C14.5504 90.2146 16.0103 91.2021 17.6656 91.9179L18.4594 90.0821ZM14.7071 87.5429C13.6313 86.467 12.7854 85.2186 12.1679 83.7906L10.3321 84.5844C11.0479 86.2397 12.0354 87.6996 13.2929 88.9571L14.7071 87.5429ZM12.1716 83.7994C11.5577 82.3413 11.25 80.8068 11.25 79.1875H9.25C9.25 81.0682 9.609 82.8671 10.3284 84.5756L12.1716 83.7994ZM11.25 79.1875V67.6875H9.25V79.1875H11.25ZM10.25 68.6875H23.0625V66.6875H10.25V68.6875ZM22.0625 67.6875V79.1875H24.0625V67.6875H22.0625ZM23.0625 80.1875H67.8125V78.1875H23.0625V80.1875ZM68.8125 79.1875V53.625H66.8125V79.1875H68.8125ZM67.8125 52.625H24.3125V54.625H67.8125V52.625ZM126.285 45.25L125.87 44.3404L123.49 45.4276L125.988 46.2049L126.285 45.25ZM135.347 51.9375L134.503 52.4731L134.509 52.4825L135.347 51.9375ZM67.91 92H66.91V93H67.91V92ZM67.91 2.375V1.375H66.91V2.375H67.91ZM133.722 38.1875L132.83 37.7357L132.828 37.7403L133.722 38.1875ZM80.4725 52.9375V51.9375H79.4725V52.9375H80.4725ZM80.4725 79.4375H79.4725V80.4375H80.4725V79.4375ZM123.91 77.0625L123.184 76.3748L123.91 77.0625ZM80.4725 14.9375V13.9375H79.4725V14.9375H80.4725ZM80.4725 40.4375H79.4725V41.4375H80.4725V40.4375ZM114.91 40.4375V41.4375H114.93L114.951 41.4367L114.91 40.4375ZM121.535 37.9375L120.78 37.2818L120.779 37.2833L121.535 37.9375ZM125.988 46.2049C127.768 46.7587 129.382 47.547 130.835 48.5682L131.985 46.9318C130.355 45.7863 128.552 44.908 126.582 44.2951L125.988 46.2049ZM130.835 48.5682C132.261 49.5705 133.485 50.8675 134.503 52.473L136.192 51.402C135.044 49.5909 133.642 48.0961 131.985 46.9318L130.835 48.5682ZM134.509 52.4825C135.523 54.042 136.317 55.9164 136.878 58.1217L138.817 57.6283C138.211 55.2503 137.339 53.1663 136.186 51.3925L134.509 52.4825ZM136.878 58.1217C137.437 60.3155 137.722 62.855 137.722 65.75H139.722C139.722 62.7283 139.425 60.0178 138.817 57.6283L136.878 58.1217ZM137.722 65.75V70.25H139.722V65.75H137.722ZM137.722 70.25C137.722 77.3459 135.949 82.4841 132.578 85.8554C129.207 89.2267 124.068 91 116.972 91V93C124.377 93 130.113 91.1483 133.992 87.2696C137.871 83.3909 139.722 77.6541 139.722 70.25H137.722ZM116.972 91H67.91V93H116.972V91ZM68.91 92V2.375H66.91V92H68.91ZM67.91 3.375H114.41V1.375H67.91V3.375ZM114.41 3.375C121.505 3.375 126.643 5.15311 130.014 8.53422C133.386 11.9159 135.16 17.0701 135.16 24.1875H137.16C137.16 16.7632 135.309 11.0112 131.431 7.12203C127.552 3.23231 121.815 1.375 114.41 1.375V3.375ZM135.16 24.1875V25.8125H137.16V24.1875H135.16ZM135.16 25.8125C135.16 30.7565 134.362 34.7121 132.83 37.7357L134.615 38.6393C136.333 35.2462 137.16 30.9519 137.16 25.8125H135.16ZM132.828 37.7403C131.352 40.6923 129.048 42.8887 125.87 44.3404L126.7 46.1596C130.272 44.5279 132.926 42.016 134.617 38.6347L132.828 37.7403ZM79.4725 52.9375V79.4375H81.4725V52.9375H79.4725ZM80.4725 80.4375H116.597V78.4375H80.4725V80.4375ZM116.597 80.4375C120.099 80.4375 122.865 79.6195 124.636 77.7502L123.184 76.3748C121.955 77.6722 119.846 78.4375 116.597 78.4375V80.4375ZM124.636 77.7502C126.387 75.9018 127.16 73.1203 127.16 69.625H125.16C125.16 72.8797 124.433 75.0565 123.184 76.3748L124.636 77.7502ZM127.16 69.625V62.6875H125.16V69.625H127.16ZM127.16 62.6875C127.16 59.1577 126.39 56.3651 124.627 54.5526L123.193 55.9474C124.43 57.2182 125.16 59.384 125.16 62.6875H127.16ZM124.627 54.5526C122.855 52.7316 120.093 51.9375 116.597 51.9375V53.9375C119.852 53.9375 121.965 54.6851 123.193 55.9474L124.627 54.5526ZM116.597 51.9375H80.4725V53.9375H116.597V51.9375ZM79.4725 14.9375V40.4375H81.4725V14.9375H79.4725ZM80.4725 41.4375H114.91V39.4375H80.4725V41.4375ZM114.951 41.4367C118.169 41.3062 120.702 40.4293 122.291 38.5917L120.779 37.2833C119.701 38.529 117.818 39.3188 114.869 39.4383L114.951 41.4367ZM122.29 38.5932C123.89 36.7509 124.597 34.0518 124.597 30.6875H122.597C122.597 33.8232 121.93 35.9574 120.78 37.2818L122.29 38.5932ZM124.597 30.6875V24.8125H122.597V30.6875H124.597ZM124.597 24.8125C124.597 21.2796 123.826 18.4751 122.073 16.6248L120.622 18.0002C121.869 19.3166 122.597 21.5121 122.597 24.8125H124.597ZM122.073 16.6248C120.303 14.7555 117.537 13.9375 114.035 13.9375V15.9375C117.283 15.9375 119.392 16.7028 120.622 18.0002L122.073 16.6248ZM114.035 13.9375H80.4725V15.9375H114.035V13.9375Z" fill="#3DCFB6" mask="url(#path-3-outside-2_14_2)"/>
<defs>
<filter id="filter0_d_14_2" x="142.725" y="0.688477" width="265.953" height="98.3115" filterUnits="userSpaceOnUse" color-interpolation-filters="sRGB">
<feFlood flood-opacity="0" result="BackgroundImageFix"/>
<feColorMatrix in="SourceAlpha" type="matrix" values="0 0 0 0 0 0 0 0 0 0 0 0 0 0 0 0 0 0 127 0" result="hardAlpha"/>
<feOffset dy="4"/>
<feGaussianBlur stdDeviation="2"/>
<feComposite in2="hardAlpha" operator="out"/>
<feColorMatrix type="matrix" values="0 0 0 0 0 0 0 0 0 0 0 0 0 0 0 0 0 0 0.25 0"/>
<feBlend mode="normal" in2="BackgroundImageFix" result="effect1_dropShadow_14_2"/>
<feBlend mode="normal" in="SourceGraphic" in2="effect1_dropShadow_14_2" result="shape"/>
</filter>
</defs>
</svg>
