<svg width="46" height="18" viewBox="0 0 46 18" fill="none" xmlns="http://www.w3.org/2000/svg">
<g filter="url(#filter0_d_6_6)">
<path d="M16.1396 3.20117C16.0576 3.20117 15.9795 3.18555 15.9053 3.1543C15.833 3.12109 15.7695 3.07812 15.7148 3.02539C15.6602 2.9707 15.6172 2.90723 15.5859 2.83496C15.5547 2.76074 15.5391 2.68262 15.5391 2.60059V1.39941C15.5391 1.31738 15.5547 1.24023 15.5859 1.16797C15.6172 1.09375 15.6602 1.03027 15.7148 0.977539C15.7695 0.922852 15.833 0.879883 15.9053 0.848633C15.9795 0.81543 16.0576 0.798828 16.1396 0.798828H18.1787C18.2607 0.798828 18.3379 0.81543 18.4102 0.848633C18.4844 0.879883 18.5488 0.922852 18.6035 0.977539C18.6582 1.03027 18.7012 1.09375 18.7324 1.16797C18.7637 1.24023 18.7793 1.31738 18.7793 1.39941V1.94141H18.1787V1.39941H16.1396V2.60059H18.1787C18.2607 2.60059 18.3379 2.61621 18.4102 2.64746C18.4844 2.67871 18.5488 2.72168 18.6035 2.77637C18.6582 2.83105 18.7012 2.89551 18.7324 2.96973C18.7637 3.04199 18.7793 3.11914 18.7793 3.20117V4.39941C18.7793 4.48145 18.7637 4.55957 18.7324 4.63379C18.7012 4.70605 18.6582 4.76953 18.6035 4.82422C18.5488 4.87891 18.4844 4.92188 18.4102 4.95312C18.3379 4.98438 18.2607 5 18.1787 5H16.0811C15.999 5 15.9209 4.98438 15.8467 4.95312C15.7744 4.92188 15.7109 4.87891 15.6562 4.82422C15.6016 4.76953 15.5586 4.70605 15.5273 4.63379C15.4961 4.55957 15.4805 4.48145 15.4805 4.39941V3.86035H16.0811V4.39941H18.1787V3.20117H16.1396ZM19.2047 1.87988H19.7789V4.42285H21.3873V1.87988H21.9645V5H21.3873V4.47266C21.3814 4.54492 21.3619 4.61328 21.3287 4.67773C21.2955 4.74219 21.2525 4.79883 21.1998 4.84766C21.149 4.89453 21.0904 4.93164 21.024 4.95898C20.9576 4.98633 20.8873 5 20.8131 5H19.7789C19.7008 5 19.6266 4.98535 19.5563 4.95605C19.4859 4.9248 19.4244 4.88379 19.3717 4.83301C19.3209 4.78027 19.2799 4.71875 19.2486 4.64844C19.2193 4.57812 19.2047 4.50293 19.2047 4.42285V1.87988ZM24.2092 4.42285V3.69922H22.841C22.7609 3.69922 22.6857 3.68457 22.6154 3.65527C22.5451 3.62402 22.4836 3.58301 22.4309 3.53223C22.3801 3.47949 22.3391 3.41797 22.3078 3.34766C22.2785 3.27734 22.2639 3.20215 22.2639 3.12207V2.45703C22.2639 2.37695 22.2785 2.30176 22.3078 2.23145C22.3391 2.16113 22.3801 2.10059 22.4309 2.0498C22.4836 1.99707 22.5451 1.95605 22.6154 1.92676C22.6857 1.89551 22.7609 1.87988 22.841 1.87988H24.6662V2.45703H22.841V3.12207H24.2092C24.2893 3.12207 24.3635 3.1377 24.4318 3.16895C24.5021 3.19824 24.5637 3.23926 24.6164 3.29199C24.6691 3.34277 24.7102 3.40332 24.7395 3.47363C24.7707 3.54395 24.7863 3.61914 24.7863 3.69922V4.42285C24.7863 4.50293 24.7707 4.57812 24.7395 4.64844C24.7102 4.71875 24.6691 4.78027 24.6164 4.83301C24.5637 4.88379 24.5021 4.9248 24.4318 4.95605C24.3635 4.98535 24.2893 5 24.2092 5H22.2639V4.42285H24.2092ZM25.0887 3.6377C25.0887 3.55762 25.1033 3.4834 25.1326 3.41504C25.1639 3.34473 25.2049 3.2832 25.2557 3.23047C25.3084 3.17773 25.3699 3.13672 25.4402 3.10742C25.5105 3.07617 25.5848 3.06055 25.6629 3.06055H27.1512V2.45703H25.2674V1.87988H27.1512C27.2312 1.87988 27.3064 1.89551 27.3768 1.92676C27.4471 1.95605 27.5076 1.99707 27.5584 2.0498C27.6111 2.10059 27.6521 2.16113 27.6814 2.23145C27.7127 2.30176 27.7283 2.37695 27.7283 2.45703V5H27.1512V4.47266C27.1453 4.54492 27.1258 4.61328 27.0926 4.67773C27.0594 4.74219 27.0164 4.79883 26.9637 4.84766C26.9129 4.89453 26.8543 4.93164 26.7879 4.95898C26.7215 4.98633 26.6512 5 26.577 5H25.6629C25.5848 5 25.5105 4.98535 25.4402 4.95605C25.3699 4.9248 25.3084 4.88379 25.2557 4.83301C25.2049 4.78027 25.1639 4.71875 25.1326 4.64844C25.1033 4.57812 25.0887 4.50293 25.0887 4.42285V3.6377ZM25.6629 4.42285H27.1512V3.6377H25.6629V4.42285ZM30.852 5H30.2748V2.45703H28.6664V5H28.0922V1.87988H28.6664V2.43066C28.6703 2.35449 28.6879 2.2832 28.7191 2.2168C28.7504 2.14844 28.7914 2.08984 28.8422 2.04102C28.8949 1.99023 28.9555 1.95117 29.0238 1.92383C29.0922 1.89453 29.1654 1.87988 29.2436 1.87988H30.2748C30.3549 1.87988 30.4301 1.89551 30.5004 1.92676C30.5707 1.95605 30.6313 1.99707 30.682 2.0498C30.7348 2.10059 30.7758 2.16113 30.8051 2.23145C30.8363 2.30176 30.852 2.37695 30.852 2.45703V5ZM33.9727 5H33.3955V2.45703H31.7871V5H31.2129V1.87988H31.7871V2.43066C31.791 2.35449 31.8086 2.2832 31.8398 2.2168C31.8711 2.14844 31.9121 2.08984 31.9629 2.04102C32.0156 1.99023 32.0762 1.95117 32.1445 1.92383C32.2129 1.89453 32.2861 1.87988 32.3643 1.87988H33.3955C33.4756 1.87988 33.5508 1.89551 33.6211 1.92676C33.6914 1.95605 33.752 1.99707 33.8027 2.0498C33.8555 2.10059 33.8965 2.16113 33.9258 2.23145C33.957 2.30176 33.9727 2.37695 33.9727 2.45703V5ZM36.9732 3.73438H34.9078V4.42285H36.9732V5H34.9078C34.8297 5 34.7555 4.98535 34.6852 4.95605C34.6148 4.9248 34.5533 4.88379 34.5006 4.83301C34.4498 4.78027 34.4088 4.71875 34.3775 4.64844C34.3482 4.57812 34.3336 4.50293 34.3336 4.42285V2.45703C34.3336 2.37695 34.3482 2.30176 34.3775 2.23145C34.4088 2.16113 34.4498 2.10059 34.5006 2.0498C34.5533 1.99707 34.6148 1.95605 34.6852 1.92676C34.7555 1.89551 34.8297 1.87988 34.9078 1.87988H36.3961C36.4762 1.87988 36.5514 1.89551 36.6217 1.92676C36.692 1.95605 36.7525 1.99707 36.8033 2.0498C36.8561 2.10059 36.8971 2.16113 36.9264 2.23145C36.9576 2.30176 36.9732 2.37695 36.9732 2.45703V3.73438ZM34.9078 2.45703V3.15723H36.3961V2.45703H34.9078ZM18.2754 7.80859C18.3633 7.83594 18.4434 7.875 18.5156 7.92578C18.5879 7.97656 18.6494 8.04199 18.7002 8.12207C18.751 8.2002 18.79 8.29297 18.8174 8.40039C18.8447 8.50781 18.8584 8.63086 18.8584 8.76953V8.98047C18.8584 9.66016 18.5186 10 17.8389 10H15.5391V5.79883H17.7188C18.3984 5.79883 18.7383 6.13965 18.7383 6.82129V6.89746C18.7383 7.13379 18.7002 7.32715 18.624 7.47754C18.5498 7.62598 18.4336 7.73633 18.2754 7.80859ZM16.1279 8.16895V9.41113H17.8213C17.9795 9.41113 18.0938 9.37402 18.1641 9.2998C18.2344 9.22559 18.2695 9.10938 18.2695 8.95117V8.62598C18.2695 8.46582 18.2344 8.34961 18.1641 8.27734C18.0938 8.20508 17.9795 8.16895 17.8213 8.16895H16.1279ZM16.1279 6.3877V7.58301H17.7422C17.8867 7.57715 17.9902 7.53809 18.0527 7.46582C18.1172 7.3916 18.1494 7.27832 18.1494 7.12598V6.85059C18.1494 6.69043 18.1143 6.57324 18.0439 6.49902C17.9736 6.4248 17.8594 6.3877 17.7012 6.3877H16.1279ZM21.7975 9.42285C21.7975 9.50293 21.7818 9.57812 21.7506 9.64844C21.7213 9.71875 21.6803 9.78027 21.6275 9.83301C21.5768 9.88379 21.5162 9.9248 21.4459 9.95605C21.3775 9.98535 21.3033 10 21.2232 10H19.6734C19.5953 10 19.5211 9.98535 19.4508 9.95605C19.3805 9.9248 19.3189 9.88379 19.2662 9.83301C19.2154 9.78027 19.1744 9.71875 19.1432 9.64844C19.1139 9.57812 19.0992 9.50293 19.0992 9.42285V7.45703C19.0992 7.37695 19.1139 7.30176 19.1432 7.23145C19.1744 7.16113 19.2154 7.10059 19.2662 7.0498C19.3189 6.99707 19.3805 6.95605 19.4508 6.92676C19.5211 6.89551 19.5953 6.87988 19.6734 6.87988H21.2232C21.3033 6.87988 21.3775 6.89551 21.4459 6.92676C21.5162 6.95605 21.5768 6.99707 21.6275 7.0498C21.6803 7.10059 21.7213 7.16113 21.7506 7.23145C21.7818 7.30176 21.7975 7.37695 21.7975 7.45703V9.42285ZM19.6734 7.45703V9.42285H21.2232V7.45703H19.6734ZM22.7355 7.45703V10H22.1613V6.87988H22.7355V7.43066C22.7395 7.35449 22.757 7.2832 22.7883 7.2168C22.8195 7.14844 22.8605 7.08984 22.9113 7.04102C22.9641 6.99023 23.0246 6.95117 23.093 6.92383C23.1613 6.89453 23.2346 6.87988 23.3127 6.87988H23.925C24.0051 6.87988 24.0793 6.89551 24.1477 6.92676C24.218 6.95605 24.2795 6.99707 24.3322 7.0498C24.385 7.10059 24.426 7.16113 24.4553 7.23145C24.4865 7.30176 24.5021 7.37695 24.5021 7.45703V7.98438H23.925V7.45703H22.7355ZM25.1941 7.45703V9.42285H26.6824V8.89551H27.2596V9.42285C27.2596 9.50293 27.2439 9.57812 27.2127 9.64844C27.1834 9.71875 27.1424 9.78027 27.0896 9.83301C27.0389 9.88379 26.9783 9.9248 26.908 9.95605C26.8377 9.98535 26.7625 10 26.6824 10H25.1941C25.116 10 25.0418 9.98535 24.9715 9.95605C24.9012 9.9248 24.8396 9.88379 24.7869 9.83301C24.7361 9.78027 24.6951 9.71875 24.6639 9.64844C24.6346 9.57812 24.6199 9.50293 24.6199 9.42285V7.45703C24.6199 7.37695 24.6346 7.30176 24.6639 7.23145C24.6951 7.16113 24.7361 7.10059 24.7869 7.0498C24.8396 6.99707 24.9012 6.95605 24.9715 6.92676C25.0418 6.89551 25.116 6.87988 25.1941 6.87988H26.6824C26.7625 6.87988 26.8377 6.89551 26.908 6.92676C26.9783 6.95605 27.0389 6.99707 27.0896 7.0498C27.1424 7.10059 27.1834 7.16113 27.2127 7.23145C27.2439 7.30176 27.2596 7.37695 27.2596 7.45703V7.98438H26.6824V7.45703H25.1941ZM30.3832 10H29.8061V7.45703H28.1977V10H27.6234V5.67871H28.1977V7.43066C28.2016 7.35449 28.2191 7.2832 28.2504 7.2168C28.2816 7.14844 28.3227 7.08984 28.3734 7.04102C28.4262 6.99023 28.4867 6.95117 28.5551 6.92383C28.6234 6.89453 28.6967 6.87988 28.7748 6.87988H29.8061C29.8861 6.87988 29.9613 6.89551 30.0316 6.92676C30.102 6.95605 30.1625 6.99707 30.2133 7.0498C30.266 7.10059 30.307 7.16113 30.3363 7.23145C30.3676 7.30176 30.3832 7.37695 30.3832 7.45703V10ZM30.7441 8.6377C30.7441 8.55762 30.7588 8.4834 30.7881 8.41504C30.8193 8.34473 30.8604 8.2832 30.9111 8.23047C30.9639 8.17773 31.0254 8.13672 31.0957 8.10742C31.166 8.07617 31.2402 8.06055 31.3184 8.06055H32.8066V7.45703H30.9229V6.87988H32.8066C32.8867 6.87988 32.9619 6.89551 33.0322 6.92676C33.1025 6.95605 33.1631 6.99707 33.2139 7.0498C33.2666 7.10059 33.3076 7.16113 33.3369 7.23145C33.3682 7.30176 33.3838 7.37695 33.3838 7.45703V10H32.8066V9.47266C32.8008 9.54492 32.7812 9.61328 32.748 9.67773C32.7148 9.74219 32.6719 9.79883 32.6191 9.84766C32.5684 9.89453 32.5098 9.93164 32.4434 9.95898C32.377 9.98633 32.3066 10 32.2324 10H31.3184C31.2402 10 31.166 9.98535 31.0957 9.95605C31.0254 9.9248 30.9639 9.88379 30.9111 9.83301C30.8604 9.78027 30.8193 9.71875 30.7881 9.64844C30.7588 9.57812 30.7441 9.50293 30.7441 9.42285V8.6377ZM31.3184 9.42285H32.8066V8.6377H31.3184V9.42285ZM34.3219 7.45703V10H33.7477V6.87988H34.3219V7.43066C34.3258 7.35449 34.3434 7.2832 34.3746 7.2168C34.4059 7.14844 34.4469 7.08984 34.4977 7.04102C34.5504 6.99023 34.6109 6.95117 34.6793 6.92383C34.7477 6.89453 34.8209 6.87988 34.899 6.87988H35.5113C35.5914 6.87988 35.6656 6.89551 35.734 6.92676C35.8043 6.95605 35.8658 6.99707 35.9186 7.0498C35.9713 7.10059 36.0123 7.16113 36.0416 7.23145C36.0729 7.30176 36.0885 7.37695 36.0885 7.45703V7.98438H35.5113V7.45703H34.3219ZM36.2062 7.45703C36.2062 7.37695 36.2209 7.30176 36.2502 7.23145C36.2814 7.16113 36.3225 7.10059 36.3732 7.0498C36.426 6.99707 36.4875 6.95605 36.5578 6.92676C36.6281 6.89551 36.7023 6.87988 36.7805 6.87988H38.3889V5.67871H38.966V10H38.3889V9.47266C38.383 9.54492 38.3635 9.61328 38.3303 9.67773C38.2971 9.74219 38.2541 9.79883 38.2014 9.84766C38.1506 9.89453 38.092 9.93164 38.0256 9.95898C37.9592 9.98633 37.8889 10 37.8146 10H36.7805C36.7023 10 36.6281 9.98535 36.5578 9.95605C36.4875 9.9248 36.426 9.88379 36.3732 9.83301C36.3225 9.78027 36.2814 9.71875 36.2502 9.64844C36.2209 9.57812 36.2062 9.50293 36.2062 9.42285V7.45703ZM36.7805 9.42285H38.3889V7.45703H36.7805V9.42285ZM39.1453 6.87988H39.907V5.91895H40.4842V6.87988H41.5096V7.45703H40.4842V9.42285H41.5096V10H40.4842C40.4061 10 40.3318 9.98535 40.2615 9.95605C40.1912 9.9248 40.1297 9.88379 40.077 9.83301C40.0242 9.78027 39.9822 9.71875 39.951 9.64844C39.9217 9.57812 39.907 9.50293 39.907 9.42285V7.45703H39.1453V6.87988Z" fill="white"/>
</g>
<path d="M2.56421 5.95264C2.37964 5.95264 2.20386 5.91748 2.03687 5.84717C1.87427 5.77246 1.73145 5.67578 1.6084 5.55713C1.48535 5.43408 1.38867 5.29126 1.31836 5.12866C1.24805 4.96167 1.21289 4.78589 1.21289 4.60132V1.89868C1.21289 1.71411 1.24805 1.54053 1.31836 1.37793C1.38867 1.21094 1.48535 1.06812 1.6084 0.949463C1.73145 0.826416 1.87427 0.729736 2.03687 0.659424C2.20386 0.584717 2.37964 0.547363 2.56421 0.547363H7.1521C7.33667 0.547363 7.51025 0.584717 7.67285 0.659424C7.83984 0.729736 7.98486 0.826416 8.10791 0.949463C8.23096 1.06812 8.32764 1.21094 8.39795 1.37793C8.46826 1.54053 8.50342 1.71411 8.50342 1.89868V3.11816H7.1521V1.89868H2.56421V4.60132H7.1521C7.33667 4.60132 7.51025 4.63647 7.67285 4.70679C7.83984 4.7771 7.98486 4.87378 8.10791 4.99683C8.23096 5.11987 8.32764 5.26489 8.39795 5.43188C8.46826 5.59448 8.50342 5.76807 8.50342 5.95264V8.64868C8.50342 8.83325 8.46826 9.00903 8.39795 9.17603C8.32764 9.33862 8.23096 9.48145 8.10791 9.60449C7.98486 9.72754 7.83984 9.82422 7.67285 9.89453C7.51025 9.96484 7.33667 10 7.1521 10H2.43237C2.2478 10 2.07202 9.96484 1.90503 9.89453C1.74243 9.82422 1.59961 9.72754 1.47656 9.60449C1.35352 9.48145 1.25684 9.33862 1.18652 9.17603C1.11621 9.00903 1.08105 8.83325 1.08105 8.64868V7.43579H2.43237V8.64868H7.1521V5.95264H2.56421ZM13.3191 5.06934C13.5169 5.13086 13.6971 5.21875 13.8596 5.33301C14.0222 5.44727 14.1607 5.59448 14.2749 5.77466C14.3892 5.95044 14.4771 6.15918 14.5386 6.40088C14.6001 6.64258 14.6309 6.91943 14.6309 7.23145V7.70605C14.6309 9.23535 13.8662 10 12.3369 10H7.16238V0.547363H12.0667C13.596 0.547363 14.3606 1.31421 14.3606 2.8479V3.01929C14.3606 3.55103 14.2749 3.98608 14.1035 4.32446C13.9366 4.65845 13.6751 4.90674 13.3191 5.06934ZM8.48733 5.88013V8.67505H12.2974C12.6533 8.67505 12.9104 8.59155 13.0686 8.42456C13.2268 8.25757 13.3059 7.99609 13.3059 7.64014V6.90845C13.3059 6.5481 13.2268 6.28662 13.0686 6.12402C12.9104 5.96143 12.6533 5.88013 12.2974 5.88013H8.48733ZM8.48733 1.87231V4.56177H12.1194C12.4446 4.54858 12.6775 4.46069 12.8181 4.2981C12.9632 4.1311 13.0357 3.87622 13.0357 3.53345V2.91382C13.0357 2.55347 12.9566 2.28979 12.7984 2.1228C12.6402 1.95581 12.3831 1.87231 12.0271 1.87231H8.48733Z" fill="#3DCFB6"/>
<defs>
<filter id="filter0_d_6_6" x="11.4805" y="0.798828" width="34.0291" height="17.2012" filterUnits="userSpaceOnUse" color-interpolation-filters="sRGB">
<feFlood flood-opacity="0" result="BackgroundImageFix"/>
<feColorMatrix in="SourceAlpha" type="matrix" values="0 0 0 0 0 0 0 0 0 0 0 0 0 0 0 0 0 0 127 0" result="hardAlpha"/>
<feOffset dy="4"/>
<feGaussianBlur stdDeviation="2"/>
<feComposite in2="hardAlpha" operator="out"/>
<feColorMatrix type="matrix" values="0 0 0 0 0 0 0 0 0 0 0 0 0 0 0 0 0 0 0.25 0"/>
<feBlend mode="normal" in2="BackgroundImageFix" result="effect1_dropShadow_6_6"/>
<feBlend mode="normal" in="SourceGraphic" in2="effect1_dropShadow_6_6" result="shape"/>
</filter>
</defs>
</svg>
