<svg width="554" height="101" viewBox="0 0 554 101" fill="none" xmlns="http://www.w3.org/2000/svg">
<g filter="url(#filter0_d_14_2)">
<mask id="path-1-outside-1_14_2" maskUnits="userSpaceOnUse" x="145" y="0" width="278" height="93" fill="black">
<rect fill="white" x="145" width="278" height="93"/>
<path d="M153.061 26.9624C152.193 26.9624 151.366 26.797 150.581 26.4663C149.816 26.1149 149.144 25.6602 148.565 25.1021C147.987 24.5233 147.532 23.8515 147.201 23.0867C146.87 22.3012 146.705 21.4744 146.705 20.6062V7.8938C146.705 7.02563 146.87 6.20915 147.201 5.44434C147.532 4.65885 147.987 3.98706 148.565 3.42896C149.144 2.85018 149.816 2.39543 150.581 2.0647C151.366 1.7133 152.193 1.5376 153.061 1.5376H174.641C175.51 1.5376 176.326 1.7133 177.091 2.0647C177.876 2.39543 178.558 2.85018 179.137 3.42896C179.716 3.98706 180.171 4.65885 180.501 5.44434C180.832 6.20915 180.998 7.02563 180.998 7.8938V13.6299H174.641V7.8938H153.061V20.6062H174.641C175.51 20.6062 176.326 20.7716 177.091 21.1023C177.876 21.433 178.558 21.8878 179.137 22.4666C179.716 23.0453 180.171 23.7275 180.501 24.5129C180.832 25.2778 180.998 26.0942 180.998 26.9624V39.6438C180.998 40.512 180.832 41.3388 180.501 42.1243C180.171 42.8891 179.716 43.5609 179.137 44.1396C178.558 44.7184 177.876 45.1732 177.091 45.5039C176.326 45.8346 175.51 46 174.641 46H152.441C151.573 46 150.746 45.8346 149.961 45.5039C149.196 45.1732 148.524 44.7184 147.945 44.1396C147.367 43.5609 146.912 42.8891 146.581 42.1243C146.25 41.3388 146.085 40.512 146.085 39.6438V33.9387H152.441V39.6438H174.641V26.9624H153.061ZM185.5 12.9788H191.577V39.8918H208.599V12.9788H214.707V46H208.599V40.4189C208.537 41.1838 208.33 41.9072 207.979 42.5894C207.627 43.2715 207.173 43.8709 206.615 44.3877C206.077 44.8838 205.457 45.2765 204.754 45.5659C204.051 45.8553 203.307 46 202.522 46H191.577C190.75 46 189.964 45.845 189.22 45.5349C188.476 45.2042 187.825 44.7701 187.267 44.2327C186.73 43.6746 186.295 43.0234 185.965 42.2793C185.655 41.5352 185.5 40.7393 185.5 39.8918V12.9788ZM238.464 39.8918V32.2334H223.984C223.137 32.2334 222.341 32.0784 221.597 31.7683C220.852 31.4376 220.201 31.0035 219.643 30.4661C219.106 29.908 218.672 29.2568 218.341 28.5127C218.031 27.7686 217.876 26.9727 217.876 26.1252V19.0869C217.876 18.2394 218.031 17.4436 218.341 16.6995C218.672 15.9553 219.106 15.3145 219.643 14.7771C220.201 14.219 220.852 13.7849 221.597 13.4749C222.341 13.1441 223.137 12.9788 223.984 12.9788H243.301V19.0869H223.984V26.1252H238.464C239.311 26.1252 240.097 26.2906 240.82 26.6213C241.564 26.9314 242.216 27.3655 242.774 27.9236C243.332 28.461 243.766 29.1018 244.076 29.8459C244.407 30.5901 244.572 31.3859 244.572 32.2334V39.8918C244.572 40.7393 244.407 41.5352 244.076 42.2793C243.766 43.0234 243.332 43.6746 242.774 44.2327C242.216 44.7701 241.564 45.2042 240.82 45.5349C240.097 45.845 239.311 46 238.464 46H217.876V39.8918H238.464ZM247.772 31.5823C247.772 30.7348 247.927 29.9493 248.237 29.2258C248.568 28.4817 249.002 27.8306 249.539 27.2725C250.097 26.7144 250.748 26.2803 251.492 25.9702C252.237 25.6395 253.022 25.4741 253.849 25.4741H269.6V19.0869H249.663V12.9788H269.6C270.447 12.9788 271.243 13.1441 271.987 13.4749C272.731 13.7849 273.372 14.219 273.91 14.7771C274.468 15.3145 274.902 15.9553 275.212 16.6995C275.543 17.4436 275.708 18.2394 275.708 19.0869V46H269.6V40.4189C269.538 41.1838 269.331 41.9072 268.98 42.5894C268.628 43.2715 268.174 43.8709 267.616 44.3877C267.078 44.8838 266.458 45.2765 265.755 45.5659C265.052 45.8553 264.308 46 263.523 46H253.849C253.022 46 252.237 45.845 251.492 45.5349C250.748 45.2042 250.097 44.7701 249.539 44.2327C249.002 43.6746 248.568 43.0234 248.237 42.2793C247.927 41.5352 247.772 40.7393 247.772 39.8918V31.5823ZM253.849 39.8918H269.6V31.5823H253.849V39.8918ZM308.767 46H302.658V19.0869H285.636V46H279.559V12.9788H285.636V18.8079C285.677 18.0017 285.864 17.2472 286.194 16.5444C286.525 15.821 286.959 15.2008 287.496 14.6841C288.055 14.1466 288.695 13.7332 289.419 13.4438C290.142 13.1338 290.917 12.9788 291.744 12.9788H302.658C303.506 12.9788 304.302 13.1441 305.046 13.4749C305.79 13.7849 306.431 14.219 306.968 14.7771C307.526 15.3145 307.96 15.9553 308.27 16.6995C308.601 17.4436 308.767 18.2394 308.767 19.0869V46ZM341.794 46H335.686V19.0869H318.664V46H312.586V12.9788H318.664V18.8079C318.705 18.0017 318.891 17.2472 319.222 16.5444C319.552 15.821 319.986 15.2008 320.524 14.6841C321.082 14.1466 321.723 13.7332 322.446 13.4438C323.17 13.1338 323.945 12.9788 324.772 12.9788H335.686C336.533 12.9788 337.329 13.1441 338.073 13.4749C338.817 13.7849 339.458 14.219 339.996 14.7771C340.554 15.3145 340.988 15.9553 341.298 16.6995C341.629 17.4436 341.794 18.2394 341.794 19.0869V46ZM373.55 32.6055H351.691V39.8918H373.55V46H351.691C350.864 46 350.079 45.845 349.335 45.5349C348.59 45.2042 347.939 44.7701 347.381 44.2327C346.844 43.6746 346.41 43.0234 346.079 42.2793C345.769 41.5352 345.614 40.7393 345.614 39.8918V19.0869C345.614 18.2394 345.769 17.4436 346.079 16.6995C346.41 15.9553 346.844 15.3145 347.381 14.7771C347.939 14.219 348.59 13.7849 349.335 13.4749C350.079 13.1441 350.864 12.9788 351.691 12.9788H367.442C368.289 12.9788 369.085 13.1441 369.829 13.4749C370.574 13.7849 371.214 14.219 371.752 14.7771C372.31 15.3145 372.744 15.9553 373.054 16.6995C373.385 17.4436 373.55 18.2394 373.55 19.0869V32.6055ZM351.691 19.0869V26.4973H367.442V19.0869H351.691ZM175.665 68.8076C176.595 69.097 177.442 69.5104 178.207 70.0479C178.972 70.5853 179.623 71.2778 180.16 72.1252C180.698 72.9521 181.111 73.9339 181.401 75.0708C181.69 76.2077 181.835 77.5099 181.835 78.9775V81.21C181.835 88.4033 178.238 92 171.045 92H146.705V47.5376H169.773C176.967 47.5376 180.563 51.1446 180.563 58.3586V59.1648C180.563 61.6659 180.16 63.7123 179.354 65.304C178.569 66.8749 177.339 68.0428 175.665 68.8076ZM152.937 72.6213V85.7678H170.859C172.533 85.7678 173.742 85.3751 174.486 84.5896C175.23 83.8041 175.603 82.5742 175.603 80.8999V77.4583C175.603 75.7633 175.23 74.5334 174.486 73.7686C173.742 73.0037 172.533 72.6213 170.859 72.6213H152.937ZM152.937 53.7698V66.4202H170.021C171.551 66.3582 172.647 65.9447 173.308 65.1799C173.99 64.3944 174.331 63.1956 174.331 61.5833V58.6687C174.331 56.9737 173.959 55.7335 173.215 54.948C172.471 54.1625 171.262 53.7698 169.587 53.7698H152.937ZM212.94 85.8918C212.94 86.7393 212.774 87.5352 212.444 88.2793C212.134 89.0234 211.7 89.6746 211.141 90.2327C210.604 90.7701 209.963 91.2042 209.219 91.5349C208.496 91.845 207.71 92 206.863 92H190.461C189.634 92 188.848 91.845 188.104 91.5349C187.36 91.2042 186.709 90.7701 186.151 90.2327C185.613 89.6746 185.179 89.0234 184.848 88.2793C184.538 87.5352 184.383 86.7393 184.383 85.8918V65.0869C184.383 64.2394 184.538 63.4436 184.848 62.6995C185.179 61.9553 185.613 61.3145 186.151 60.7771C186.709 60.219 187.36 59.7849 188.104 59.4749C188.848 59.1441 189.634 58.9788 190.461 58.9788H206.863C207.71 58.9788 208.496 59.1441 209.219 59.4749C209.963 59.7849 210.604 60.219 211.141 60.7771C211.7 61.3145 212.134 61.9553 212.444 62.6995C212.774 63.4436 212.94 64.2394 212.94 65.0869V85.8918ZM190.461 65.0869V85.8918H206.863V65.0869H190.461ZM222.868 65.0869V92H216.791V58.9788H222.868V64.8079C222.909 64.0017 223.095 63.2472 223.426 62.5444C223.757 61.821 224.191 61.2008 224.728 60.6841C225.286 60.1466 225.927 59.7332 226.651 59.4438C227.374 59.1338 228.149 58.9788 228.976 58.9788H235.456C236.304 58.9788 237.089 59.1441 237.813 59.4749C238.557 59.7849 239.208 60.219 239.766 60.7771C240.324 61.3145 240.758 61.9553 241.068 62.6995C241.399 63.4436 241.564 64.2394 241.564 65.0869V70.668H235.456V65.0869H222.868ZM248.888 65.0869V85.8918H264.639V80.3108H270.747V85.8918C270.747 86.7393 270.582 87.5352 270.251 88.2793C269.941 89.0234 269.507 89.6746 268.949 90.2327C268.411 90.7701 267.771 91.2042 267.026 91.5349C266.282 91.845 265.486 92 264.639 92H248.888C248.061 92 247.276 91.845 246.532 91.5349C245.787 91.2042 245.136 90.7701 244.578 90.2327C244.041 89.6746 243.607 89.0234 243.276 88.2793C242.966 87.5352 242.811 86.7393 242.811 85.8918V65.0869C242.811 64.2394 242.966 63.4436 243.276 62.6995C243.607 61.9553 244.041 61.3145 244.578 60.7771C245.136 60.219 245.787 59.7849 246.532 59.4749C247.276 59.1441 248.061 58.9788 248.888 58.9788H264.639C265.486 58.9788 266.282 59.1441 267.026 59.4749C267.771 59.7849 268.411 60.219 268.949 60.7771C269.507 61.3145 269.941 61.9553 270.251 62.6995C270.582 63.4436 270.747 64.2394 270.747 65.0869V70.668H264.639V65.0869H248.888ZM303.806 92H297.697V65.0869H280.675V92H274.598V46.2664H280.675V64.8079C280.717 64.0017 280.903 63.2472 281.233 62.5444C281.564 61.821 281.998 61.2008 282.536 60.6841C283.094 60.1466 283.734 59.7332 284.458 59.4438C285.181 59.1338 285.957 58.9788 286.783 58.9788H297.697C298.545 58.9788 299.341 59.1441 300.085 59.4749C300.829 59.7849 301.47 60.219 302.007 60.7771C302.565 61.3145 302.999 61.9553 303.309 62.6995C303.64 63.4436 303.806 64.2394 303.806 65.0869V92ZM307.625 77.5823C307.625 76.7348 307.781 75.9493 308.091 75.2258C308.421 74.4817 308.855 73.8306 309.393 73.2725C309.951 72.7144 310.602 72.2803 311.346 71.9702C312.09 71.6395 312.876 71.4741 313.703 71.4741H329.454V65.0869H309.517V58.9788H329.454C330.301 58.9788 331.097 59.1441 331.841 59.4749C332.585 59.7849 333.226 60.219 333.763 60.7771C334.322 61.3145 334.756 61.9553 335.066 62.6995C335.396 63.4436 335.562 64.2394 335.562 65.0869V92H329.454V86.4189C329.392 87.1838 329.185 87.9072 328.833 88.5894C328.482 89.2715 328.027 89.8709 327.469 90.3877C326.932 90.8838 326.312 91.2765 325.609 91.5659C324.906 91.8553 324.162 92 323.376 92H313.703C312.876 92 312.09 91.845 311.346 91.5349C310.602 91.2042 309.951 90.7701 309.393 90.2327C308.855 89.6746 308.421 89.0234 308.091 88.2793C307.781 87.5352 307.625 86.7393 307.625 85.8918V77.5823ZM313.703 85.8918H329.454V77.5823H313.703V85.8918ZM345.49 65.0869V92H339.413V58.9788H345.49V64.8079C345.531 64.0017 345.717 63.2472 346.048 62.5444C346.379 61.821 346.813 61.2008 347.35 60.6841C347.908 60.1466 348.549 59.7332 349.273 59.4438C349.996 59.1338 350.771 58.9788 351.598 58.9788H358.078C358.926 58.9788 359.711 59.1441 360.435 59.4749C361.179 59.7849 361.83 60.219 362.388 60.7771C362.946 61.3145 363.38 61.9553 363.69 62.6995C364.021 63.4436 364.186 64.2394 364.186 65.0869V70.668H358.078V65.0869H345.49ZM365.433 65.0869C365.433 64.2394 365.588 63.4436 365.898 62.6995C366.229 61.9553 366.663 61.3145 367.2 60.7771C367.758 60.219 368.409 59.7849 369.154 59.4749C369.898 59.1441 370.683 58.9788 371.51 58.9788H388.532V46.2664H394.64V92H388.532V86.4189C388.47 87.1838 388.263 87.9072 387.912 88.5894C387.561 89.2715 387.106 89.8709 386.548 90.3877C386.01 90.8838 385.39 91.2765 384.687 91.5659C383.985 91.8553 383.241 92 382.455 92H371.51C370.683 92 369.898 91.845 369.154 91.5349C368.409 91.2042 367.758 90.7701 367.2 90.2327C366.663 89.6746 366.229 89.0234 365.898 88.2793C365.588 87.5352 365.433 86.7393 365.433 85.8918V65.0869ZM371.51 85.8918H388.532V65.0869H371.51V85.8918ZM396.538 58.9788H404.599V48.8088H410.708V58.9788H421.56V65.0869H410.708V85.8918H421.56V92H410.708C409.881 92 409.095 91.845 408.351 91.5349C407.607 91.2042 406.956 90.7701 406.398 90.2327C405.84 89.6746 405.395 89.0234 405.064 88.2793C404.754 87.5352 404.599 86.7393 404.599 85.8918V65.0869H396.538V58.9788Z"/>
</mask>
<path d="M153.061 26.9624C152.193 26.9624 151.366 26.797 150.581 26.4663C149.816 26.1149 149.144 25.6602 148.565 25.1021C147.987 24.5233 147.532 23.8515 147.201 23.0867C146.87 22.3012 146.705 21.4744 146.705 20.6062V7.8938C146.705 7.02563 146.87 6.20915 147.201 5.44434C147.532 4.65885 147.987 3.98706 148.565 3.42896C149.144 2.85018 149.816 2.39543 150.581 2.0647C151.366 1.7133 152.193 1.5376 153.061 1.5376H174.641C175.51 1.5376 176.326 1.7133 177.091 2.0647C177.876 2.39543 178.558 2.85018 179.137 3.42896C179.716 3.98706 180.171 4.65885 180.501 5.44434C180.832 6.20915 180.998 7.02563 180.998 7.8938V13.6299H174.641V7.8938H153.061V20.6062H174.641C175.51 20.6062 176.326 20.7716 177.091 21.1023C177.876 21.433 178.558 21.8878 179.137 22.4666C179.716 23.0453 180.171 23.7275 180.501 24.5129C180.832 25.2778 180.998 26.0942 180.998 26.9624V39.6438C180.998 40.512 180.832 41.3388 180.501 42.1243C180.171 42.8891 179.716 43.5609 179.137 44.1396C178.558 44.7184 177.876 45.1732 177.091 45.5039C176.326 45.8346 175.51 46 174.641 46H152.441C151.573 46 150.746 45.8346 149.961 45.5039C149.196 45.1732 148.524 44.7184 147.945 44.1396C147.367 43.5609 146.912 42.8891 146.581 42.1243C146.25 41.3388 146.085 40.512 146.085 39.6438V33.9387H152.441V39.6438H174.641V26.9624H153.061ZM185.5 12.9788H191.577V39.8918H208.599V12.9788H214.707V46H208.599V40.4189C208.537 41.1838 208.33 41.9072 207.979 42.5894C207.627 43.2715 207.173 43.8709 206.615 44.3877C206.077 44.8838 205.457 45.2765 204.754 45.5659C204.051 45.8553 203.307 46 202.522 46H191.577C190.75 46 189.964 45.845 189.22 45.5349C188.476 45.2042 187.825 44.7701 187.267 44.2327C186.73 43.6746 186.295 43.0234 185.965 42.2793C185.655 41.5352 185.5 40.7393 185.5 39.8918V12.9788ZM238.464 39.8918V32.2334H223.984C223.137 32.2334 222.341 32.0784 221.597 31.7683C220.852 31.4376 220.201 31.0035 219.643 30.4661C219.106 29.908 218.672 29.2568 218.341 28.5127C218.031 27.7686 217.876 26.9727 217.876 26.1252V19.0869C217.876 18.2394 218.031 17.4436 218.341 16.6995C218.672 15.9553 219.106 15.3145 219.643 14.7771C220.201 14.219 220.852 13.7849 221.597 13.4749C222.341 13.1441 223.137 12.9788 223.984 12.9788H243.301V19.0869H223.984V26.1252H238.464C239.311 26.1252 240.097 26.2906 240.82 26.6213C241.564 26.9314 242.216 27.3655 242.774 27.9236C243.332 28.461 243.766 29.1018 244.076 29.8459C244.407 30.5901 244.572 31.3859 244.572 32.2334V39.8918C244.572 40.7393 244.407 41.5352 244.076 42.2793C243.766 43.0234 243.332 43.6746 242.774 44.2327C242.216 44.7701 241.564 45.2042 240.82 45.5349C240.097 45.845 239.311 46 238.464 46H217.876V39.8918H238.464ZM247.772 31.5823C247.772 30.7348 247.927 29.9493 248.237 29.2258C248.568 28.4817 249.002 27.8306 249.539 27.2725C250.097 26.7144 250.748 26.2803 251.492 25.9702C252.237 25.6395 253.022 25.4741 253.849 25.4741H269.6V19.0869H249.663V12.9788H269.6C270.447 12.9788 271.243 13.1441 271.987 13.4749C272.731 13.7849 273.372 14.219 273.91 14.7771C274.468 15.3145 274.902 15.9553 275.212 16.6995C275.543 17.4436 275.708 18.2394 275.708 19.0869V46H269.6V40.4189C269.538 41.1838 269.331 41.9072 268.98 42.5894C268.628 43.2715 268.174 43.8709 267.616 44.3877C267.078 44.8838 266.458 45.2765 265.755 45.5659C265.052 45.8553 264.308 46 263.523 46H253.849C253.022 46 252.237 45.845 251.492 45.5349C250.748 45.2042 250.097 44.7701 249.539 44.2327C249.002 43.6746 248.568 43.0234 248.237 42.2793C247.927 41.5352 247.772 40.7393 247.772 39.8918V31.5823ZM253.849 39.8918H269.6V31.5823H253.849V39.8918ZM308.767 46H302.658V19.0869H285.636V46H279.559V12.9788H285.636V18.8079C285.677 18.0017 285.864 17.2472 286.194 16.5444C286.525 15.821 286.959 15.2008 287.496 14.6841C288.055 14.1466 288.695 13.7332 289.419 13.4438C290.142 13.1338 290.917 12.9788 291.744 12.9788H302.658C303.506 12.9788 304.302 13.1441 305.046 13.4749C305.79 13.7849 306.431 14.219 306.968 14.7771C307.526 15.3145 307.96 15.9553 308.27 16.6995C308.601 17.4436 308.767 18.2394 308.767 19.0869V46ZM341.794 46H335.686V19.0869H318.664V46H312.586V12.9788H318.664V18.8079C318.705 18.0017 318.891 17.2472 319.222 16.5444C319.552 15.821 319.986 15.2008 320.524 14.6841C321.082 14.1466 321.723 13.7332 322.446 13.4438C323.17 13.1338 323.945 12.9788 324.772 12.9788H335.686C336.533 12.9788 337.329 13.1441 338.073 13.4749C338.817 13.7849 339.458 14.219 339.996 14.7771C340.554 15.3145 340.988 15.9553 341.298 16.6995C341.629 17.4436 341.794 18.2394 341.794 19.0869V46ZM373.55 32.6055H351.691V39.8918H373.55V46H351.691C350.864 46 350.079 45.845 349.335 45.5349C348.59 45.2042 347.939 44.7701 347.381 44.2327C346.844 43.6746 346.41 43.0234 346.079 42.2793C345.769 41.5352 345.614 40.7393 345.614 39.8918V19.0869C345.614 18.2394 345.769 17.4436 346.079 16.6995C346.41 15.9553 346.844 15.3145 347.381 14.7771C347.939 14.219 348.59 13.7849 349.335 13.4749C350.079 13.1441 350.864 12.9788 351.691 12.9788H367.442C368.289 12.9788 369.085 13.1441 369.829 13.4749C370.574 13.7849 371.214 14.219 371.752 14.7771C372.31 15.3145 372.744 15.9553 373.054 16.6995C373.385 17.4436 373.55 18.2394 373.55 19.0869V32.6055ZM351.691 19.0869V26.4973H367.442V19.0869H351.691ZM175.665 68.8076C176.595 69.097 177.442 69.5104 178.207 70.0479C178.972 70.5853 179.623 71.2778 180.16 72.1252C180.698 72.9521 181.111 73.9339 181.401 75.0708C181.69 76.2077 181.835 77.5099 181.835 78.9775V81.21C181.835 88.4033 178.238 92 171.045 92H146.705V47.5376H169.773C176.967 47.5376 180.563 51.1446 180.563 58.3586V59.1648C180.563 61.6659 180.16 63.7123 179.354 65.304C178.569 66.8749 177.339 68.0428 175.665 68.8076ZM152.937 72.6213V85.7678H170.859C172.533 85.7678 173.742 85.3751 174.486 84.5896C175.23 83.8041 175.603 82.5742 175.603 80.8999V77.4583C175.603 75.7633 175.23 74.5334 174.486 73.7686C173.742 73.0037 172.533 72.6213 170.859 72.6213H152.937ZM152.937 53.7698V66.4202H170.021C171.551 66.3582 172.647 65.9447 173.308 65.1799C173.99 64.3944 174.331 63.1956 174.331 61.5833V58.6687C174.331 56.9737 173.959 55.7335 173.215 54.948C172.471 54.1625 171.262 53.7698 169.587 53.7698H152.937ZM212.94 85.8918C212.94 86.7393 212.774 87.5352 212.444 88.2793C212.134 89.0234 211.7 89.6746 211.141 90.2327C210.604 90.7701 209.963 91.2042 209.219 91.5349C208.496 91.845 207.71 92 206.863 92H190.461C189.634 92 188.848 91.845 188.104 91.5349C187.36 91.2042 186.709 90.7701 186.151 90.2327C185.613 89.6746 185.179 89.0234 184.848 88.2793C184.538 87.5352 184.383 86.7393 184.383 85.8918V65.0869C184.383 64.2394 184.538 63.4436 184.848 62.6995C185.179 61.9553 185.613 61.3145 186.151 60.7771C186.709 60.219 187.36 59.7849 188.104 59.4749C188.848 59.1441 189.634 58.9788 190.461 58.9788H206.863C207.71 58.9788 208.496 59.1441 209.219 59.4749C209.963 59.7849 210.604 60.219 211.141 60.7771C211.7 61.3145 212.134 61.9553 212.444 62.6995C212.774 63.4436 212.94 64.2394 212.94 65.0869V85.8918ZM190.461 65.0869V85.8918H206.863V65.0869H190.461ZM222.868 65.0869V92H216.791V58.9788H222.868V64.8079C222.909 64.0017 223.095 63.2472 223.426 62.5444C223.757 61.821 224.191 61.2008 224.728 60.6841C225.286 60.1466 225.927 59.7332 226.651 59.4438C227.374 59.1338 228.149 58.9788 228.976 58.9788H235.456C236.304 58.9788 237.089 59.1441 237.813 59.4749C238.557 59.7849 239.208 60.219 239.766 60.7771C240.324 61.3145 240.758 61.9553 241.068 62.6995C241.399 63.4436 241.564 64.2394 241.564 65.0869V70.668H235.456V65.0869H222.868ZM248.888 65.0869V85.8918H264.639V80.3108H270.747V85.8918C270.747 86.7393 270.582 87.5352 270.251 88.2793C269.941 89.0234 269.507 89.6746 268.949 90.2327C268.411 90.7701 267.771 91.2042 267.026 91.5349C266.282 91.845 265.486 92 264.639 92H248.888C248.061 92 247.276 91.845 246.532 91.5349C245.787 91.2042 245.136 90.7701 244.578 90.2327C244.041 89.6746 243.607 89.0234 243.276 88.2793C242.966 87.5352 242.811 86.7393 242.811 85.8918V65.0869C242.811 64.2394 242.966 63.4436 243.276 62.6995C243.607 61.9553 244.041 61.3145 244.578 60.7771C245.136 60.219 245.787 59.7849 246.532 59.4749C247.276 59.1441 248.061 58.9788 248.888 58.9788H264.639C265.486 58.9788 266.282 59.1441 267.026 59.4749C267.771 59.7849 268.411 60.219 268.949 60.7771C269.507 61.3145 269.941 61.9553 270.251 62.6995C270.582 63.4436 270.747 64.2394 270.747 65.0869V70.668H264.639V65.0869H248.888ZM303.806 92H297.697V65.0869H280.675V92H274.598V46.2664H280.675V64.8079C280.717 64.0017 280.903 63.2472 281.233 62.5444C281.564 61.821 281.998 61.2008 282.536 60.6841C283.094 60.1466 283.734 59.7332 284.458 59.4438C285.181 59.1338 285.957 58.9788 286.783 58.9788H297.697C298.545 58.9788 299.341 59.1441 300.085 59.4749C300.829 59.7849 301.47 60.219 302.007 60.7771C302.565 61.3145 302.999 61.9553 303.309 62.6995C303.64 63.4436 303.806 64.2394 303.806 65.0869V92ZM307.625 77.5823C307.625 76.7348 307.781 75.9493 308.091 75.2258C308.421 74.4817 308.855 73.8306 309.393 73.2725C309.951 72.7144 310.602 72.2803 311.346 71.9702C312.09 71.6395 312.876 71.4741 313.703 71.4741H329.454V65.0869H309.517V58.9788H329.454C330.301 58.9788 331.097 59.1441 331.841 59.4749C332.585 59.7849 333.226 60.219 333.763 60.7771C334.322 61.3145 334.756 61.9553 335.066 62.6995C335.396 63.4436 335.562 64.2394 335.562 65.0869V92H329.454V86.4189C329.392 87.1838 329.185 87.9072 328.833 88.5894C328.482 89.2715 328.027 89.8709 327.469 90.3877C326.932 90.8838 326.312 91.2765 325.609 91.5659C324.906 91.8553 324.162 92 323.376 92H313.703C312.876 92 312.09 91.845 311.346 91.5349C310.602 91.2042 309.951 90.7701 309.393 90.2327C308.855 89.6746 308.421 89.0234 308.091 88.2793C307.781 87.5352 307.625 86.7393 307.625 85.8918V77.5823ZM313.703 85.8918H329.454V77.5823H313.703V85.8918ZM345.49 65.0869V92H339.413V58.9788H345.49V64.8079C345.531 64.0017 345.717 63.2472 346.048 62.5444C346.379 61.821 346.813 61.2008 347.35 60.6841C347.908 60.1466 348.549 59.7332 349.273 59.4438C349.996 59.1338 350.771 58.9788 351.598 58.9788H358.078C358.926 58.9788 359.711 59.1441 360.435 59.4749C361.179 59.7849 361.83 60.219 362.388 60.7771C362.946 61.3145 363.38 61.9553 363.69 62.6995C364.021 63.4436 364.186 64.2394 364.186 65.0869V70.668H358.078V65.0869H345.49ZM365.433 65.0869C365.433 64.2394 365.588 63.4436 365.898 62.6995C366.229 61.9553 366.663 61.3145 367.2 60.7771C367.758 60.219 368.409 59.7849 369.154 59.4749C369.898 59.1441 370.683 58.9788 371.51 58.9788H388.532V46.2664H394.64V92H388.532V86.4189C388.47 87.1838 388.263 87.9072 387.912 88.5894C387.561 89.2715 387.106 89.8709 386.548 90.3877C386.01 90.8838 385.39 91.2765 384.687 91.5659C383.985 91.8553 383.241 92 382.455 92H371.51C370.683 92 369.898 91.845 369.154 91.5349C368.409 91.2042 367.758 90.7701 367.2 90.2327C366.663 89.6746 366.229 89.0234 365.898 88.2793C365.588 87.5352 365.433 86.7393 365.433 85.8918V65.0869ZM371.51 85.8918H388.532V65.0869H371.51V85.8918ZM396.538 58.9788H404.599V48.8088H410.708V58.9788H421.56V65.0869H410.708V85.8918H421.56V92H410.708C409.881 92 409.095 91.845 408.351 91.5349C407.607 91.2042 406.956 90.7701 406.398 90.2327C405.84 89.6746 405.395 89.0234 405.064 88.2793C404.754 87.5352 404.599 86.7393 404.599 85.8918V65.0869H396.538V58.9788Z" fill="white"/>
<path d="M150.581 26.4663L150.163 27.375L150.178 27.3817L150.193 27.3879L150.581 26.4663ZM148.565 25.1021L147.858 25.8092L147.865 25.8156L147.871 25.8219L148.565 25.1021ZM147.201 23.0867L146.279 23.4747L146.283 23.4836L147.201 23.0867ZM147.201 5.44434L148.119 5.84127L148.123 5.83239L147.201 5.44434ZM148.565 3.42896L149.26 4.1488L149.266 4.14249L149.273 4.13606L148.565 3.42896ZM150.581 2.0647L150.978 2.98263L150.989 2.97752L150.581 2.0647ZM177.091 2.0647L176.673 2.97337L176.688 2.98009L176.703 2.98633L177.091 2.0647ZM179.137 3.42896L178.43 4.13606L178.437 4.14249L178.443 4.1488L179.137 3.42896ZM180.501 5.44434L179.58 5.83241L179.584 5.84125L180.501 5.44434ZM180.998 13.6299V14.6299H181.998V13.6299H180.998ZM174.641 13.6299H173.641V14.6299H174.641V13.6299ZM174.641 7.8938H175.641V6.8938H174.641V7.8938ZM153.061 7.8938V6.8938H152.061V7.8938H153.061ZM153.061 20.6062H152.061V21.6062H153.061V20.6062ZM177.091 21.1023L176.694 22.0202L176.703 22.0239L177.091 21.1023ZM180.501 24.5129L179.58 24.901L179.584 24.9099L180.501 24.5129ZM180.501 42.1243L181.419 42.5212L181.423 42.5123L180.501 42.1243ZM177.091 45.5039L176.703 44.5822L176.694 44.586L177.091 45.5039ZM149.961 45.5039L149.564 46.4218L149.573 46.4255L149.961 45.5039ZM147.945 44.1396L147.238 44.8468L147.945 44.1396ZM146.581 42.1243L145.659 42.5123L145.663 42.5212L146.581 42.1243ZM146.085 33.9387V32.9387H145.085V33.9387H146.085ZM152.441 33.9387H153.441V32.9387H152.441V33.9387ZM152.441 39.6438H151.441V40.6438H152.441V39.6438ZM174.641 39.6438V40.6438H175.641V39.6438H174.641ZM174.641 26.9624H175.641V25.9624H174.641V26.9624ZM153.061 25.9624C152.324 25.9624 151.629 25.8227 150.969 25.5447L150.193 27.3879C151.103 27.7714 152.062 27.9624 153.061 27.9624V25.9624ZM150.998 25.5576C150.331 25.251 149.754 24.8587 149.26 24.3822L147.871 25.8219C148.535 26.4617 149.301 26.9789 150.163 27.375L150.998 25.5576ZM149.273 24.3949C148.785 23.907 148.401 23.3409 148.119 22.6898L146.283 23.4836C146.663 24.362 147.189 25.1396 147.858 25.8092L149.273 24.3949ZM148.123 22.6986C147.845 22.0383 147.705 21.3436 147.705 20.6062H145.705C145.705 21.6051 145.896 22.5641 146.28 23.4747L148.123 22.6986ZM147.705 20.6062V7.8938H145.705V20.6062H147.705ZM147.705 7.8938C147.705 7.15632 147.845 6.4755 148.119 5.84125L146.283 5.04742C145.896 5.9428 145.705 6.89495 145.705 7.8938H147.705ZM148.123 5.83239C148.404 5.16416 148.784 4.60729 149.26 4.1488L147.871 2.70911C147.189 3.36683 146.66 4.15354 146.28 5.05628L148.123 5.83239ZM149.273 4.13606C149.761 3.6481 150.327 3.26415 150.978 2.98255L150.184 1.14684C149.305 1.52671 148.528 2.05226 147.858 2.72185L149.273 4.13606ZM150.989 2.97752C151.645 2.68412 152.333 2.5376 153.061 2.5376V0.537598C152.054 0.537598 151.088 0.74248 150.172 1.15188L150.989 2.97752ZM153.061 2.5376H174.641V0.537598H153.061V2.5376ZM174.641 2.5376C175.37 2.5376 176.044 2.68406 176.673 2.97337L177.508 1.15602C176.608 0.742534 175.649 0.537598 174.641 0.537598V2.5376ZM176.703 2.98633C177.374 3.26897 177.947 3.65252 178.43 4.13606L179.844 2.72185C179.17 2.04784 178.379 1.52188 177.479 1.14306L176.703 2.98633ZM178.443 4.1488C178.919 4.60729 179.298 5.16416 179.58 5.83239L181.423 5.05628C181.043 4.15354 180.513 3.36683 179.831 2.70911L178.443 4.1488ZM179.584 5.84125C179.858 6.4755 179.998 7.15632 179.998 7.8938H181.998C181.998 6.89495 181.807 5.9428 181.419 5.04742L179.584 5.84125ZM179.998 7.8938V13.6299H181.998V7.8938H179.998ZM180.998 12.6299H174.641V14.6299H180.998V12.6299ZM175.641 13.6299V7.8938H173.641V13.6299H175.641ZM174.641 6.8938H153.061V8.8938H174.641V6.8938ZM152.061 7.8938V20.6062H154.061V7.8938H152.061ZM153.061 21.6062H174.641V19.6062H153.061V21.6062ZM174.641 21.6062C175.379 21.6062 176.06 21.7459 176.694 22.0202L177.488 20.1844C176.592 19.7972 175.64 19.6062 174.641 19.6062V21.6062ZM176.703 22.0239C177.374 22.3066 177.947 22.6901 178.43 23.1737L179.844 21.7594C179.17 21.0854 178.379 20.5595 177.479 20.1807L176.703 22.0239ZM178.43 23.1737C178.914 23.6572 179.297 24.2297 179.58 24.901L181.423 24.1249C181.044 23.2252 180.518 22.4335 179.844 21.7594L178.43 23.1737ZM179.584 24.9099C179.858 25.5441 179.998 26.2249 179.998 26.9624H181.998C181.998 25.9636 181.807 25.0114 181.419 24.116L179.584 24.9099ZM179.998 26.9624V39.6438H181.998V26.9624H179.998ZM179.998 39.6438C179.998 40.3812 179.858 41.0759 179.58 41.7362L181.423 42.5123C181.807 41.6017 181.998 40.6427 181.998 39.6438H179.998ZM179.584 41.7274C179.302 42.3785 178.918 42.9446 178.43 43.4325L179.844 44.8468C180.514 44.1772 181.039 43.3996 181.419 42.5212L179.584 41.7274ZM178.43 43.4325C177.947 43.9161 177.374 44.2996 176.703 44.5823L177.479 46.4255C178.379 46.0467 179.17 45.5208 179.844 44.8468L178.43 43.4325ZM176.694 44.586C176.06 44.8603 175.379 45 174.641 45V47C175.64 47 176.592 46.809 177.488 46.4218L176.694 44.586ZM174.641 45H152.441V47H174.641V45ZM152.441 45C151.704 45 151.009 44.8603 150.349 44.5823L149.573 46.4255C150.483 46.809 151.442 47 152.441 47V45ZM150.358 44.586C149.706 44.3045 149.14 43.9205 148.652 43.4325L147.238 44.8468C147.908 45.5163 148.685 46.0419 149.564 46.4218L150.358 44.586ZM148.652 43.4325C148.164 42.9446 147.781 42.3785 147.499 41.7274L145.663 42.5212C146.043 43.3996 146.569 44.1772 147.238 44.8468L148.652 43.4325ZM147.503 41.7362C147.225 41.0759 147.085 40.3812 147.085 39.6438H145.085C145.085 40.6427 145.276 41.6017 145.659 42.5123L147.503 41.7362ZM147.085 39.6438V33.9387H145.085V39.6438H147.085ZM146.085 34.9387H152.441V32.9387H146.085V34.9387ZM151.441 33.9387V39.6438H153.441V33.9387H151.441ZM152.441 40.6438H174.641V38.6438H152.441V40.6438ZM175.641 39.6438V26.9624H173.641V39.6438H175.641ZM174.641 25.9624H153.061V27.9624H174.641V25.9624ZM185.5 12.9788V11.9788H184.5V12.9788H185.5ZM191.577 12.9788H192.577V11.9788H191.577V12.9788ZM191.577 39.8918H190.577V40.8918H191.577V39.8918ZM208.599 39.8918V40.8918H209.599V39.8918H208.599ZM208.599 12.9788V11.9788H207.599V12.9788H208.599ZM214.707 12.9788H215.707V11.9788H214.707V12.9788ZM214.707 46V47H215.707V46H214.707ZM208.599 46H207.599V47H208.599V46ZM208.599 40.4189H209.599L207.602 40.3381L208.599 40.4189ZM206.615 44.3877L207.293 45.1225L207.294 45.1215L206.615 44.3877ZM189.22 45.5349L188.814 46.4487L188.825 46.4535L188.836 46.458L189.22 45.5349ZM187.267 44.2327L186.547 44.9263L186.56 44.9399L186.573 44.953L187.267 44.2327ZM185.965 42.2793L185.042 42.6639L185.046 42.6747L185.051 42.6854L185.965 42.2793ZM185.5 13.9788H191.577V11.9788H185.5V13.9788ZM190.577 12.9788V39.8918H192.577V12.9788H190.577ZM191.577 40.8918H208.599V38.8918H191.577V40.8918ZM209.599 39.8918V12.9788H207.599V39.8918H209.599ZM208.599 13.9788H214.707V11.9788H208.599V13.9788ZM213.707 12.9788V46H215.707V12.9788H213.707ZM214.707 45H208.599V47H214.707V45ZM209.599 46V40.4189H207.599V46H209.599ZM207.602 40.3381C207.551 40.9713 207.381 41.5666 207.09 42.1314L208.868 43.0473C209.28 42.2478 209.523 41.3962 209.596 40.4998L207.602 40.3381ZM207.09 42.1314C206.791 42.711 206.407 43.2169 205.935 43.6539L207.294 45.1215C207.938 44.5249 208.464 43.8319 208.868 43.0473L207.09 42.1314ZM205.936 43.6529C205.489 44.0654 204.971 44.3952 204.373 44.6412L205.135 46.4906C205.943 46.1579 206.665 45.7022 207.293 45.1225L205.936 43.6529ZM204.373 44.6412C203.796 44.8792 203.181 45 202.522 45V47C203.433 47 204.307 46.8314 205.135 46.4906L204.373 44.6412ZM202.522 45H191.577V47H202.522V45ZM191.577 45C190.878 45 190.224 44.8698 189.605 44.6118L188.836 46.458C189.705 46.8201 190.621 47 191.577 47V45ZM189.626 44.6211C188.983 44.3352 188.431 43.965 187.961 43.5123L186.573 44.953C187.219 45.5752 187.969 46.0732 188.814 46.4487L189.626 44.6211ZM187.987 43.539C187.535 43.069 187.164 42.5164 186.879 41.8732L185.051 42.6854C185.426 43.5305 185.924 44.2801 186.547 44.9263L187.987 43.539ZM186.888 41.8947C186.631 41.2786 186.5 40.6142 186.5 39.8918H184.5C184.5 40.8645 184.678 41.7917 185.042 42.6639L186.888 41.8947ZM186.5 39.8918V12.9788H184.5V39.8918H186.5ZM238.464 39.8918V40.8918H239.464V39.8918H238.464ZM238.464 32.2334H239.464V31.2334H238.464V32.2334ZM221.597 31.7683L221.19 32.6821L221.201 32.6869L221.212 32.6914L221.597 31.7683ZM219.643 30.4661L218.923 31.1597L218.936 31.1733L218.95 31.1864L219.643 30.4661ZM218.341 28.5127L217.418 28.8973L217.422 28.9081L217.427 28.9188L218.341 28.5127ZM218.341 16.6995L217.427 16.2933L217.422 16.304L217.418 16.3148L218.341 16.6995ZM219.643 14.7771L218.936 14.07L219.643 14.7771ZM221.597 13.4749L221.981 14.3979L221.992 14.3934L222.003 14.3887L221.597 13.4749ZM243.301 12.9788H244.301V11.9788H243.301V12.9788ZM243.301 19.0869V20.0869H244.301V19.0869H243.301ZM223.984 19.0869V18.0869H222.984V19.0869H223.984ZM223.984 26.1252H222.984V27.1252H223.984V26.1252ZM240.82 26.6213L240.405 27.5308L240.42 27.5379L240.436 27.5444L240.82 26.6213ZM242.774 27.9236L242.067 28.6307L242.073 28.6374L242.08 28.6439L242.774 27.9236ZM244.076 29.8459L243.153 30.2306L243.157 30.2414L243.162 30.2521L244.076 29.8459ZM244.076 42.2793L243.162 41.8732L243.157 41.8839L243.153 41.8947L244.076 42.2793ZM242.774 44.2327L243.467 44.953L243.474 44.9464L243.481 44.9398L242.774 44.2327ZM240.82 45.5349L241.214 46.4541L241.226 46.4487L240.82 45.5349ZM217.876 46H216.876V47H217.876V46ZM217.876 39.8918V38.8918H216.876V39.8918H217.876ZM239.464 39.8918V32.2334H237.464V39.8918H239.464ZM238.464 31.2334H223.984V33.2334H238.464V31.2334ZM223.984 31.2334C223.262 31.2334 222.597 31.1019 221.981 30.8452L221.212 32.6914C222.084 33.0548 223.011 33.2334 223.984 33.2334V31.2334ZM222.003 30.8545C221.36 30.5686 220.807 30.1984 220.337 29.7457L218.95 31.1864C219.596 31.8086 220.345 32.3066 221.19 32.6821L222.003 30.8545ZM220.364 29.7724C219.911 29.3024 219.541 28.7498 219.255 28.1066L217.427 28.9188C217.803 29.7639 218.301 30.5135 218.923 31.1597L220.364 29.7724ZM219.264 28.1281C219.007 27.512 218.876 26.8476 218.876 26.1252H216.876C216.876 27.0979 217.055 28.0251 217.418 28.8973L219.264 28.1281ZM218.876 26.1252V19.0869H216.876V26.1252H218.876ZM218.876 19.0869C218.876 18.3646 219.007 17.7002 219.264 17.0841L217.418 16.3148C217.055 17.1871 216.876 18.1143 216.876 19.0869H218.876ZM219.255 17.1056C219.539 16.4655 219.906 15.9288 220.35 15.4842L218.936 14.07C218.306 14.7002 217.804 15.4451 217.427 16.2933L219.255 17.1056ZM220.35 15.4842C220.814 15.0205 221.355 14.6589 221.981 14.3979L221.212 12.5518C220.35 12.911 219.589 13.4175 218.936 14.07L220.35 15.4842ZM222.003 14.3887C222.614 14.1171 223.271 13.9788 223.984 13.9788V11.9788C223.003 11.9788 222.068 12.1712 221.19 12.561L222.003 14.3887ZM223.984 13.9788H243.301V11.9788H223.984V13.9788ZM242.301 12.9788V19.0869H244.301V12.9788H242.301ZM243.301 18.0869H223.984V20.0869H243.301V18.0869ZM222.984 19.0869V26.1252H224.984V19.0869H222.984ZM223.984 27.1252H238.464V25.1252H223.984V27.1252ZM238.464 27.1252C239.177 27.1252 239.82 27.2636 240.405 27.5308L241.236 25.7119C240.374 25.3176 239.445 25.1252 238.464 25.1252V27.1252ZM240.436 27.5444C241.062 27.8053 241.603 28.1669 242.067 28.6307L243.481 27.2165C242.828 26.564 242.067 26.0575 241.205 25.6983L240.436 27.5444ZM242.08 28.6439C242.535 29.0825 242.893 29.6076 243.153 30.2306L244.999 29.4613C244.638 28.596 244.128 27.8396 243.467 27.2033L242.08 28.6439ZM243.162 30.2521C243.434 30.8631 243.572 31.52 243.572 32.2334H245.572C245.572 31.2518 245.38 30.317 244.99 29.4398L243.162 30.2521ZM243.572 32.2334V39.8918H245.572V32.2334H243.572ZM243.572 39.8918C243.572 40.6053 243.434 41.2621 243.162 41.8732L244.99 42.6854C245.38 41.8082 245.572 40.8734 245.572 39.8918H243.572ZM243.153 41.8947C242.892 42.5209 242.53 43.0618 242.067 43.5256L243.481 44.9398C244.133 44.2873 244.64 43.526 244.999 42.6639L243.153 41.8947ZM242.08 43.5123C241.61 43.965 241.057 44.3352 240.414 44.6211L241.226 46.4487C242.071 46.0732 242.821 45.5752 243.467 44.953L242.08 43.5123ZM240.426 44.6158C239.837 44.8685 239.186 45 238.464 45V47C239.436 47 240.357 46.8215 241.214 46.4541L240.426 44.6158ZM238.464 45H217.876V47H238.464V45ZM218.876 46V39.8918H216.876V46H218.876ZM217.876 40.8918H238.464V38.8918H217.876V40.8918ZM248.237 29.2258L247.323 28.8197L247.318 28.8319L248.237 29.2258ZM249.539 27.2725L248.832 26.5654L248.825 26.572L248.819 26.5788L249.539 27.2725ZM251.492 25.9702L251.877 26.8933L251.888 26.8888L251.899 26.884L251.492 25.9702ZM269.6 25.4741V26.4741H270.6V25.4741H269.6ZM269.6 19.0869H270.6V18.0869H269.6V19.0869ZM249.663 19.0869H248.663V20.0869H249.663V19.0869ZM249.663 12.9788V11.9788H248.663V12.9788H249.663ZM271.987 13.4749L271.581 14.3887L271.592 14.3934L271.603 14.3979L271.987 13.4749ZM273.91 14.7771L273.189 15.4707L273.202 15.4843L273.216 15.4974L273.91 14.7771ZM275.212 16.6995L274.289 17.0841L274.293 17.0949L274.298 17.1056L275.212 16.6995ZM275.708 46V47H276.708V46H275.708ZM269.6 46H268.6V47H269.6V46ZM269.6 40.4189H270.6L268.603 40.3381L269.6 40.4189ZM267.616 44.3877L268.294 45.1225L268.295 45.1215L267.616 44.3877ZM251.492 45.5349L251.086 46.4487L251.097 46.4535L251.108 46.458L251.492 45.5349ZM249.539 44.2327L248.819 44.9263L248.832 44.9399L248.845 44.953L249.539 44.2327ZM248.237 42.2793L247.314 42.6639L247.318 42.6747L247.323 42.6854L248.237 42.2793ZM253.849 39.8918H252.849V40.8918H253.849V39.8918ZM269.6 39.8918V40.8918H270.6V39.8918H269.6ZM269.6 31.5823H270.6V30.5823H269.6V31.5823ZM253.849 31.5823V30.5823H252.849V31.5823H253.849ZM248.772 31.5823C248.772 30.8597 248.903 30.2094 249.156 29.6197L247.318 28.8319C246.95 29.6892 246.772 30.6099 246.772 31.5823H248.772ZM249.151 29.632C249.437 28.9887 249.807 28.4362 250.259 27.9661L248.819 26.5788C248.197 27.225 247.699 27.9747 247.323 28.8197L249.151 29.632ZM250.246 27.9796C250.71 27.5158 251.251 27.1542 251.877 26.8933L251.108 25.0471C250.246 25.4063 249.484 25.9129 248.832 26.5654L250.246 27.9796ZM251.899 26.884C252.513 26.611 253.16 26.4741 253.849 26.4741V24.4741C252.884 24.4741 251.96 24.668 251.086 25.0564L251.899 26.884ZM253.849 26.4741H269.6V24.4741H253.849V26.4741ZM270.6 25.4741V19.0869H268.6V25.4741H270.6ZM269.6 18.0869H249.663V20.0869H269.6V18.0869ZM250.663 19.0869V12.9788H248.663V19.0869H250.663ZM249.663 13.9788H269.6V11.9788H249.663V13.9788ZM269.6 13.9788C270.313 13.9788 270.97 14.1171 271.581 14.3887L272.393 12.561C271.516 12.1712 270.581 11.9788 269.6 11.9788V13.9788ZM271.603 14.3979C272.226 14.6575 272.751 15.0153 273.189 15.4707L274.63 14.0835C273.994 13.4227 273.237 12.9123 272.372 12.5518L271.603 14.3979ZM273.216 15.4974C273.672 15.936 274.029 16.4611 274.289 17.0841L276.135 16.3148C275.774 15.4495 275.264 14.6931 274.603 14.0568L273.216 15.4974ZM274.298 17.1056C274.57 17.7167 274.708 18.3735 274.708 19.0869H276.708C276.708 18.1053 276.516 17.1705 276.126 16.2933L274.298 17.1056ZM274.708 19.0869V46H276.708V19.0869H274.708ZM275.708 45H269.6V47H275.708V45ZM270.6 46V40.4189H268.6V46H270.6ZM268.603 40.3381C268.552 40.9713 268.382 41.5666 268.091 42.1314L269.869 43.0473C270.281 42.2478 270.524 41.3962 270.597 40.4998L268.603 40.3381ZM268.091 42.1314C267.792 42.711 267.408 43.2169 266.936 43.6539L268.295 45.1215C268.939 44.5249 269.465 43.8319 269.869 43.0473L268.091 42.1314ZM266.937 43.6529C266.49 44.0654 265.972 44.3952 265.374 44.6412L266.136 46.4906C266.944 46.1579 267.666 45.7022 268.294 45.1225L266.937 43.6529ZM265.374 44.6412C264.796 44.8792 264.182 45 263.523 45V47C264.434 47 265.308 46.8314 266.136 46.4906L265.374 44.6412ZM263.523 45H253.849V47H263.523V45ZM253.849 45C253.151 45 252.496 44.8698 251.877 44.6118L251.108 46.458C251.977 46.8201 252.894 47 253.849 47V45ZM251.899 44.6211C251.255 44.3352 250.703 43.965 250.233 43.5123L248.845 44.953C249.492 45.5752 250.241 46.0732 251.086 46.4487L251.899 44.6211ZM250.259 43.539C249.807 43.069 249.437 42.5164 249.151 41.8732L247.323 42.6854C247.699 43.5305 248.197 44.2801 248.819 44.9263L250.259 43.539ZM249.16 41.8947C248.903 41.2786 248.772 40.6142 248.772 39.8918H246.772C246.772 40.8645 246.95 41.7917 247.314 42.6639L249.16 41.8947ZM248.772 39.8918V31.5823H246.772V39.8918H248.772ZM253.849 40.8918H269.6V38.8918H253.849V40.8918ZM270.6 39.8918V31.5823H268.6V39.8918H270.6ZM269.6 30.5823H253.849V32.5823H269.6V30.5823ZM252.849 31.5823V39.8918H254.849V31.5823H252.849ZM308.767 46V47H309.767V46H308.767ZM302.658 46H301.658V47H302.658V46ZM302.658 19.0869H303.658V18.0869H302.658V19.0869ZM285.636 19.0869V18.0869H284.636V19.0869H285.636ZM285.636 46V47H286.636V46H285.636ZM279.559 46H278.559V47H279.559V46ZM279.559 12.9788V11.9788H278.559V12.9788H279.559ZM285.636 12.9788H286.636V11.9788H285.636V12.9788ZM285.636 18.8079H284.636L286.635 18.8591L285.636 18.8079ZM286.194 16.5444L287.099 16.9703L287.104 16.9602L286.194 16.5444ZM287.496 14.6841L288.19 15.4049L288.19 15.4044L287.496 14.6841ZM289.419 13.4438L289.79 14.3723L289.802 14.3678L289.813 14.363L289.419 13.4438ZM305.046 13.4749L304.64 14.3887L304.65 14.3934L304.661 14.3979L305.046 13.4749ZM306.968 14.7771L306.248 15.4707L306.261 15.4843L306.275 15.4974L306.968 14.7771ZM308.27 16.6995L307.347 17.0841L307.352 17.0949L307.357 17.1056L308.27 16.6995ZM308.767 45H302.658V47H308.767V45ZM303.658 46V19.0869H301.658V46H303.658ZM302.658 18.0869H285.636V20.0869H302.658V18.0869ZM284.636 19.0869V46H286.636V19.0869H284.636ZM285.636 45H279.559V47H285.636V45ZM280.559 46V12.9788H278.559V46H280.559ZM279.559 13.9788H285.636V11.9788H279.559V13.9788ZM284.636 12.9788V18.8079H286.636V12.9788H284.636ZM286.635 18.8591C286.67 18.1775 286.826 17.5508 287.099 16.9702L285.289 16.1186C284.901 16.9436 284.685 17.8259 284.637 18.7566L286.635 18.8591ZM287.104 16.9602C287.386 16.3434 287.749 15.8288 288.19 15.4049L286.803 13.9632C286.169 14.5729 285.664 15.2985 285.285 16.1287L287.104 16.9602ZM288.19 15.4044C288.655 14.957 289.186 14.6141 289.79 14.3723L289.047 12.5154C288.205 12.8524 287.454 13.3363 286.803 13.9638L288.19 15.4044ZM289.813 14.363C290.406 14.109 291.046 13.9788 291.744 13.9788V11.9788C290.789 11.9788 289.879 12.1586 289.025 12.5247L289.813 14.363ZM291.744 13.9788H302.658V11.9788H291.744V13.9788ZM302.658 13.9788C303.372 13.9788 304.029 14.1171 304.64 14.3887L305.452 12.561C304.575 12.1712 303.64 11.9788 302.658 11.9788V13.9788ZM304.661 14.3979C305.284 14.6575 305.809 15.0153 306.248 15.4707L307.688 14.0835C307.052 13.4227 306.296 12.9123 305.43 12.5518L304.661 14.3979ZM306.275 15.4974C306.73 15.936 307.088 16.4611 307.347 17.0841L309.193 16.3148C308.833 15.4495 308.323 14.6931 307.662 14.0568L306.275 15.4974ZM307.357 17.1056C307.628 17.7167 307.767 18.3735 307.767 19.0869H309.767C309.767 18.1053 309.574 17.1705 309.184 16.2933L307.357 17.1056ZM307.767 19.0869V46H309.767V19.0869H307.767ZM341.794 46V47H342.794V46H341.794ZM335.686 46H334.686V47H335.686V46ZM335.686 19.0869H336.686V18.0869H335.686V19.0869ZM318.664 19.0869V18.0869H317.664V19.0869H318.664ZM318.664 46V47H319.664V46H318.664ZM312.586 46H311.586V47H312.586V46ZM312.586 12.9788V11.9788H311.586V12.9788H312.586ZM318.664 12.9788H319.664V11.9788H318.664V12.9788ZM318.664 18.8079H317.664L319.662 18.8591L318.664 18.8079ZM319.222 16.5444L320.127 16.9703L320.131 16.9602L319.222 16.5444ZM320.524 14.6841L321.217 15.4049L321.218 15.4044L320.524 14.6841ZM322.446 13.4438L322.818 14.3723L322.829 14.3678L322.84 14.363L322.446 13.4438ZM338.073 13.4749L337.667 14.3887L337.678 14.3934L337.689 14.3979L338.073 13.4749ZM339.996 14.7771L339.275 15.4707L339.288 15.4843L339.302 15.4974L339.996 14.7771ZM341.298 16.6995L340.375 17.0841L340.379 17.0949L340.384 17.1056L341.298 16.6995ZM341.794 45H335.686V47H341.794V45ZM336.686 46V19.0869H334.686V46H336.686ZM335.686 18.0869H318.664V20.0869H335.686V18.0869ZM317.664 19.0869V46H319.664V19.0869H317.664ZM318.664 45H312.586V47H318.664V45ZM313.586 46V12.9788H311.586V46H313.586ZM312.586 13.9788H318.664V11.9788H312.586V13.9788ZM317.664 12.9788V18.8079H319.664V12.9788H317.664ZM319.662 18.8591C319.697 18.1775 319.853 17.5508 320.126 16.9702L318.317 16.1186C317.929 16.9436 317.713 17.8259 317.665 18.7566L319.662 18.8591ZM320.131 16.9602C320.413 16.3434 320.776 15.8288 321.217 15.4049L319.831 13.9632C319.197 14.5729 318.692 15.2985 318.312 16.1287L320.131 16.9602ZM321.218 15.4044C321.682 14.957 322.213 14.6141 322.818 14.3723L322.075 12.5154C321.232 12.8524 320.482 13.3363 319.83 13.9638L321.218 15.4044ZM322.84 14.363C323.433 14.109 324.073 13.9788 324.772 13.9788V11.9788C323.816 11.9788 322.907 12.1586 322.052 12.5247L322.84 14.363ZM324.772 13.9788H335.686V11.9788H324.772V13.9788ZM335.686 13.9788C336.399 13.9788 337.056 14.1171 337.667 14.3887L338.479 12.561C337.602 12.1712 336.667 11.9788 335.686 11.9788V13.9788ZM337.689 14.3979C338.312 14.6575 338.837 15.0153 339.275 15.4707L340.716 14.0835C340.08 13.4227 339.323 12.9123 338.458 12.5518L337.689 14.3979ZM339.302 15.4974C339.757 15.936 340.115 16.4611 340.375 17.0841L342.221 16.3148C341.86 15.4495 341.35 14.6931 340.689 14.0568L339.302 15.4974ZM340.384 17.1056C340.656 17.7167 340.794 18.3735 340.794 19.0869H342.794C342.794 18.1053 342.602 17.1705 342.212 16.2933L340.384 17.1056ZM340.794 19.0869V46H342.794V19.0869H340.794ZM373.55 32.6055V33.6055H374.55V32.6055H373.55ZM351.691 32.6055V31.6055H350.691V32.6055H351.691ZM351.691 39.8918H350.691V40.8918H351.691V39.8918ZM373.55 39.8918H374.55V38.8918H373.55V39.8918ZM373.55 46V47H374.55V46H373.55ZM349.335 45.5349L348.928 46.4487L348.939 46.4535L348.95 46.458L349.335 45.5349ZM347.381 44.2327L346.661 44.9263L346.674 44.9399L346.688 44.953L347.381 44.2327ZM346.079 42.2793L345.156 42.6639L345.16 42.6747L345.165 42.6854L346.079 42.2793ZM346.079 16.6995L345.165 16.2933L345.16 16.304L345.156 16.3148L346.079 16.6995ZM347.381 14.7771L346.674 14.07L347.381 14.7771ZM349.335 13.4749L349.719 14.3979L349.73 14.3934L349.741 14.3887L349.335 13.4749ZM369.829 13.4749L369.423 14.3887L369.434 14.3934L369.445 14.3979L369.829 13.4749ZM371.752 14.7771L371.031 15.4707L371.045 15.4843L371.058 15.4974L371.752 14.7771ZM373.054 16.6995L372.131 17.0841L372.135 17.0949L372.14 17.1056L373.054 16.6995ZM351.691 19.0869V18.0869H350.691V19.0869H351.691ZM351.691 26.4973H350.691V27.4973H351.691V26.4973ZM367.442 26.4973V27.4973H368.442V26.4973H367.442ZM367.442 19.0869H368.442V18.0869H367.442V19.0869ZM373.55 31.6055H351.691V33.6055H373.55V31.6055ZM350.691 32.6055V39.8918H352.691V32.6055H350.691ZM351.691 40.8918H373.55V38.8918H351.691V40.8918ZM372.55 39.8918V46H374.55V39.8918H372.55ZM373.55 45H351.691V47H373.55V45ZM351.691 45C350.993 45 350.338 44.8698 349.719 44.6118L348.95 46.458C349.819 46.8201 350.736 47 351.691 47V45ZM349.741 44.6211C349.097 44.3352 348.545 43.965 348.075 43.5123L346.688 44.953C347.334 45.5752 348.083 46.0732 348.928 46.4487L349.741 44.6211ZM348.102 43.539C347.649 43.069 347.279 42.5164 346.993 41.8732L345.165 42.6854C345.541 43.5305 346.039 44.2801 346.661 44.9263L348.102 43.539ZM347.002 41.8947C346.745 41.2786 346.614 40.6142 346.614 39.8918H344.614C344.614 40.8645 344.792 41.7917 345.156 42.6639L347.002 41.8947ZM346.614 39.8918V19.0869H344.614V39.8918H346.614ZM346.614 19.0869C346.614 18.3646 346.745 17.7002 347.002 17.0841L345.156 16.3148C344.792 17.1871 344.614 18.1143 344.614 19.0869H346.614ZM346.993 17.1056C347.277 16.4655 347.644 15.9288 348.088 15.4842L346.674 14.07C346.044 14.7002 345.542 15.4451 345.165 16.2933L346.993 17.1056ZM348.088 15.4842C348.552 15.0205 349.093 14.6589 349.719 14.3979L348.95 12.5518C348.088 12.911 347.327 13.4175 346.674 14.07L348.088 15.4842ZM349.741 14.3887C350.355 14.1157 351.002 13.9788 351.691 13.9788V11.9788C350.726 11.9788 349.802 12.1726 348.928 12.561L349.741 14.3887ZM351.691 13.9788H367.442V11.9788H351.691V13.9788ZM367.442 13.9788C368.155 13.9788 368.812 14.1171 369.423 14.3887L370.236 12.561C369.358 12.1712 368.424 11.9788 367.442 11.9788V13.9788ZM369.445 14.3979C370.068 14.6575 370.593 15.0153 371.031 15.4707L372.472 14.0835C371.836 13.4227 371.079 12.9123 370.214 12.5518L369.445 14.3979ZM371.058 15.4974C371.514 15.936 371.871 16.4611 372.131 17.0841L373.977 16.3148C373.617 15.4495 373.106 14.6931 372.445 14.0568L371.058 15.4974ZM372.14 17.1056C372.412 17.7167 372.55 18.3735 372.55 19.0869H374.55C374.55 18.1053 374.358 17.1705 373.968 16.2933L372.14 17.1056ZM372.55 19.0869V32.6055H374.55V19.0869H372.55ZM350.691 19.0869V26.4973H352.691V19.0869H350.691ZM351.691 27.4973H367.442V25.4973H351.691V27.4973ZM368.442 26.4973V19.0869H366.442V26.4973H368.442ZM367.442 18.0869H351.691V20.0869H367.442V18.0869ZM175.665 68.8076L175.249 67.898L172.869 68.9852L175.367 69.7625L175.665 68.8076ZM180.16 72.1252L179.316 72.6608L179.322 72.6702L180.16 72.1252ZM181.401 75.0708L182.37 74.8241L181.401 75.0708ZM146.705 92H145.705V93H146.705V92ZM146.705 47.5376V46.5376H145.705V47.5376H146.705ZM179.354 65.304L178.462 64.8521L178.46 64.8567L179.354 65.304ZM152.937 72.6213V71.6213H151.937V72.6213H152.937ZM152.937 85.7678H151.937V86.7678H152.937V85.7678ZM174.486 84.5896L173.76 83.9019L174.486 84.5896ZM152.937 53.7698V52.7698H151.937V53.7698H152.937ZM152.937 66.4202H151.937V67.4202H152.937V66.4202ZM170.021 66.4202V67.4202H170.042L170.062 67.4193L170.021 66.4202ZM173.308 65.1799L172.553 64.5242L172.552 64.5258L173.308 65.1799ZM175.367 69.7625C176.203 70.0223 176.956 70.3908 177.632 70.866L178.782 69.2297C177.929 68.63 176.987 68.1717 175.962 67.8528L175.367 69.7625ZM177.632 70.866C178.282 71.3225 178.844 71.9161 179.316 72.6608L181.005 71.5897C180.402 70.6394 179.662 69.8481 178.782 69.2297L177.632 70.866ZM179.322 72.6702C179.79 73.3899 180.164 74.267 180.432 75.3175L182.37 74.8241C182.058 73.6009 181.606 72.5142 180.999 71.5803L179.322 72.6702ZM180.432 75.3175C180.696 76.3566 180.835 77.5733 180.835 78.9775H182.835C182.835 77.4466 182.684 76.0588 182.37 74.8241L180.432 75.3175ZM180.835 78.9775V81.21H182.835V78.9775H180.835ZM180.835 81.21C180.835 84.6525 179.975 87.0507 178.43 88.5954C176.885 90.14 174.487 91 171.045 91V93C174.796 93 177.792 92.0616 179.844 90.0096C181.896 87.9576 182.835 84.9608 182.835 81.21H180.835ZM171.045 91H146.705V93H171.045V91ZM147.705 92V47.5376H145.705V92H147.705ZM146.705 48.5376H169.773V46.5376H146.705V48.5376ZM169.773 48.5376C173.215 48.5376 175.613 49.3997 177.158 50.949C178.703 52.4987 179.563 54.9051 179.563 58.3586H181.563C181.563 54.5982 180.625 51.5941 178.574 49.5368C176.522 47.479 173.525 46.5376 169.773 46.5376V48.5376ZM179.563 58.3586V59.1648H181.563V58.3586H179.563ZM179.563 59.1648C179.563 61.5682 179.175 63.4453 178.462 64.8521L180.246 65.7558C181.146 63.9794 181.563 61.7636 181.563 59.1648H179.563ZM178.46 64.8567C177.782 66.2131 176.726 67.2232 175.249 67.898L176.08 69.7172C177.951 68.8624 179.356 67.5368 180.249 65.7512L178.46 64.8567ZM151.937 72.6213V85.7678H153.937V72.6213H151.937ZM152.937 86.7678H170.859V84.7678H152.937V86.7678ZM170.859 86.7678C172.66 86.7678 174.197 86.3487 175.212 85.2773L173.76 83.9019C173.287 84.4014 172.406 84.7678 170.859 84.7678V86.7678ZM175.212 85.2773C176.208 84.2268 176.603 82.6945 176.603 80.8999H174.603C174.603 82.4539 174.253 83.3815 173.76 83.9019L175.212 85.2773ZM176.603 80.8999V77.4583H174.603V80.8999H176.603ZM176.603 77.4583C176.603 75.6501 176.211 74.1068 175.203 73.0712L173.77 74.4659C174.25 74.9599 174.603 75.8764 174.603 77.4583H176.603ZM175.203 73.0712C174.187 72.027 172.653 71.6213 170.859 71.6213V73.6213C172.413 73.6213 173.297 73.9805 173.77 74.4659L175.203 73.0712ZM170.859 71.6213H152.937V73.6213H170.859V71.6213ZM151.937 53.7698V66.4202H153.937V53.7698H151.937ZM152.937 67.4202H170.021V65.4202H152.937V67.4202ZM170.062 67.4193C171.727 67.3519 173.147 66.8949 174.064 65.8341L172.552 64.5258C172.146 64.9946 171.376 65.3644 169.981 65.421L170.062 67.4193ZM174.063 65.8356C174.97 64.7912 175.331 63.3099 175.331 61.5833H173.331C173.331 63.0812 173.01 63.9977 172.553 64.5242L174.063 65.8356ZM175.331 61.5833V58.6687H173.331V61.5833H175.331ZM175.331 58.6687C175.331 56.8575 174.938 55.3127 173.941 54.2603L172.489 55.6357C172.98 56.1542 173.331 57.09 173.331 58.6687H175.331ZM173.941 54.2603C172.926 53.1888 171.388 52.7698 169.587 52.7698V54.7698C171.135 54.7698 172.016 55.1362 172.489 55.6357L173.941 54.2603ZM169.587 52.7698H152.937V54.7698H169.587V52.7698ZM212.444 88.2793L211.53 87.8732L211.525 87.8839L211.521 87.8947L212.444 88.2793ZM211.141 90.2327L211.849 90.9398L211.141 90.2327ZM209.219 91.5349L209.613 92.4541L209.625 92.4487L209.219 91.5349ZM188.104 91.5349L187.698 92.4487L187.709 92.4535L187.719 92.458L188.104 91.5349ZM186.151 90.2327L185.43 90.9263L185.444 90.9399L185.457 90.953L186.151 90.2327ZM184.848 88.2793L183.925 88.6639L183.93 88.6747L183.935 88.6854L184.848 88.2793ZM184.848 62.6995L183.935 62.2933L183.93 62.304L183.925 62.3148L184.848 62.6995ZM186.151 60.7771L185.444 60.07L186.151 60.7771ZM188.104 59.4749L188.489 60.3979L188.5 60.3934L188.51 60.3887L188.104 59.4749ZM209.219 59.4749L208.803 60.3843L208.819 60.3914L208.834 60.3979L209.219 59.4749ZM211.141 60.7771L210.421 61.4707L210.434 61.4843L210.448 61.4974L211.141 60.7771ZM212.444 62.6995L211.521 63.0841L211.525 63.0949L211.53 63.1056L212.444 62.6995ZM190.461 65.0869V64.0869H189.461V65.0869H190.461ZM190.461 85.8918H189.461V86.8918H190.461V85.8918ZM206.863 85.8918V86.8918H207.863V85.8918H206.863ZM206.863 65.0869H207.863V64.0869H206.863V65.0869ZM211.94 85.8918C211.94 86.6053 211.801 87.2621 211.53 87.8732L213.358 88.6854C213.747 87.8082 213.94 86.8734 213.94 85.8918H211.94ZM211.521 87.8947C211.26 88.5209 210.898 89.0618 210.434 89.5256L211.849 90.9398C212.501 90.2873 213.008 89.526 213.367 88.6639L211.521 87.8947ZM210.434 89.5256C209.99 89.9702 209.453 90.3366 208.813 90.6211L209.625 92.4487C210.473 92.0717 211.218 91.57 211.849 90.9398L210.434 89.5256ZM208.825 90.6158C208.235 90.8685 207.585 91 206.863 91V93C207.835 93 208.756 92.8215 209.613 92.4541L208.825 90.6158ZM206.863 91H190.461V93H206.863V91ZM190.461 91C189.762 91 189.108 90.8698 188.489 90.6118L187.719 92.458C188.589 92.8201 189.505 93 190.461 93V91ZM188.51 90.6211C187.867 90.3352 187.314 89.965 186.844 89.5123L185.457 90.953C186.103 91.5752 186.853 92.0732 187.698 92.4487L188.51 90.6211ZM186.871 89.539C186.418 89.069 186.048 88.5164 185.762 87.8732L183.935 88.6854C184.31 89.5305 184.808 90.2801 185.43 90.9263L186.871 89.539ZM185.772 87.8947C185.515 87.2786 185.383 86.6142 185.383 85.8918H183.383C183.383 86.8645 183.562 87.7917 183.925 88.6639L185.772 87.8947ZM185.383 85.8918V65.0869H183.383V85.8918H185.383ZM185.383 65.0869C185.383 64.3646 185.515 63.7002 185.772 63.0841L183.925 62.3148C183.562 63.1871 183.383 64.1143 183.383 65.0869H185.383ZM185.762 63.1056C186.047 62.4655 186.413 61.9288 186.858 61.4842L185.444 60.07C184.813 60.7002 184.312 61.4451 183.935 62.2933L185.762 63.1056ZM186.858 61.4842C187.322 61.0205 187.863 60.6589 188.489 60.3979L187.719 58.5518C186.857 58.911 186.096 59.4175 185.444 60.07L186.858 61.4842ZM188.51 60.3887C189.125 60.1157 189.771 59.9788 190.461 59.9788V57.9788C189.496 57.9788 188.572 58.1726 187.698 58.561L188.51 60.3887ZM190.461 59.9788H206.863V57.9788H190.461V59.9788ZM206.863 59.9788C207.576 59.9788 208.219 60.1171 208.803 60.3843L209.635 58.5654C208.772 58.1711 207.844 57.9788 206.863 57.9788V59.9788ZM208.834 60.3979C209.457 60.6575 209.983 61.0153 210.421 61.4707L211.862 60.0835C211.225 59.4227 210.469 58.9123 209.604 58.5518L208.834 60.3979ZM210.448 61.4974C210.903 61.936 211.261 62.4611 211.521 63.0841L213.367 62.3148C213.006 61.4495 212.496 60.6931 211.835 60.0568L210.448 61.4974ZM211.53 63.1056C211.801 63.7167 211.94 64.3735 211.94 65.0869H213.94C213.94 64.1053 213.747 63.1705 213.358 62.2933L211.53 63.1056ZM211.94 65.0869V85.8918H213.94V65.0869H211.94ZM189.461 65.0869V85.8918H191.461V65.0869H189.461ZM190.461 86.8918H206.863V84.8918H190.461V86.8918ZM207.863 85.8918V65.0869H205.863V85.8918H207.863ZM206.863 64.0869H190.461V66.0869H206.863V64.0869ZM222.868 65.0869V64.0869H221.868V65.0869H222.868ZM222.868 92V93H223.868V92H222.868ZM216.791 92H215.791V93H216.791V92ZM216.791 58.9788V57.9788H215.791V58.9788H216.791ZM222.868 58.9788H223.868V57.9788H222.868V58.9788ZM222.868 64.8079H221.868L223.867 64.8591L222.868 64.8079ZM223.426 62.5444L224.331 62.9703L224.335 62.9602L223.426 62.5444ZM224.728 60.6841L225.421 61.4049L225.422 61.4044L224.728 60.6841ZM226.651 59.4438L227.022 60.3723L227.033 60.3678L227.045 60.363L226.651 59.4438ZM237.813 59.4749L237.397 60.3843L237.412 60.3914L237.428 60.3979L237.813 59.4749ZM239.766 60.7771L239.059 61.4842L239.066 61.4909L239.072 61.4974L239.766 60.7771ZM241.068 62.6995L240.145 63.0841L240.15 63.0949L240.155 63.1056L241.068 62.6995ZM241.564 70.668V71.668H242.564V70.668H241.564ZM235.456 70.668H234.456V71.668H235.456V70.668ZM235.456 65.0869H236.456V64.0869H235.456V65.0869ZM221.868 65.0869V92H223.868V65.0869H221.868ZM222.868 91H216.791V93H222.868V91ZM217.791 92V58.9788H215.791V92H217.791ZM216.791 59.9788H222.868V57.9788H216.791V59.9788ZM221.868 58.9788V64.8079H223.868V58.9788H221.868ZM223.867 64.8591C223.902 64.1775 224.058 63.5508 224.331 62.9702L222.521 62.1186C222.133 62.9436 221.917 63.8259 221.869 64.7566L223.867 64.8591ZM224.335 62.9602C224.617 62.3434 224.98 61.8288 225.421 61.4049L224.035 59.9632C223.401 60.5729 222.896 61.2985 222.517 62.1287L224.335 62.9602ZM225.422 61.4044C225.886 60.957 226.418 60.6141 227.022 60.3723L226.279 58.5154C225.437 58.8524 224.686 59.3363 224.035 59.9638L225.422 61.4044ZM227.045 60.363C227.637 60.109 228.278 59.9788 228.976 59.9788V57.9788C228.021 57.9788 227.111 58.1586 226.257 58.5247L227.045 60.363ZM228.976 59.9788H235.456V57.9788H228.976V59.9788ZM235.456 59.9788C236.17 59.9788 236.812 60.1171 237.397 60.3843L238.228 58.5654C237.366 58.1711 236.438 57.9788 235.456 57.9788V59.9788ZM237.428 60.3979C238.054 60.6589 238.595 61.0205 239.059 61.4842L240.473 60.07C239.821 59.4175 239.059 58.911 238.197 58.5518L237.428 60.3979ZM239.072 61.4974C239.528 61.936 239.886 62.4611 240.145 63.0841L241.991 62.3148C241.631 61.4495 241.12 60.6931 240.46 60.0568L239.072 61.4974ZM240.155 63.1056C240.426 63.7167 240.564 64.3735 240.564 65.0869H242.564C242.564 64.1053 242.372 63.1705 241.982 62.2933L240.155 63.1056ZM240.564 65.0869V70.668H242.564V65.0869H240.564ZM241.564 69.668H235.456V71.668H241.564V69.668ZM236.456 70.668V65.0869H234.456V70.668H236.456ZM235.456 64.0869H222.868V66.0869H235.456V64.0869ZM248.888 65.0869V64.0869H247.888V65.0869H248.888ZM248.888 85.8918H247.888V86.8918H248.888V85.8918ZM264.639 85.8918V86.8918H265.639V85.8918H264.639ZM264.639 80.3108V79.3108H263.639V80.3108H264.639ZM270.747 80.3108H271.747V79.3108H270.747V80.3108ZM270.251 88.2793L269.337 87.8732L269.332 87.8839L269.328 87.8947L270.251 88.2793ZM268.949 90.2327L269.656 90.9398L268.949 90.2327ZM267.026 91.5349L267.411 92.458L267.422 92.4535L267.433 92.4487L267.026 91.5349ZM246.532 91.5349L246.125 92.4487L246.136 92.4535L246.147 92.458L246.532 91.5349ZM244.578 90.2327L243.858 90.9263L243.871 90.9399L243.885 90.953L244.578 90.2327ZM243.276 88.2793L242.353 88.6639L242.357 88.6747L242.362 88.6854L243.276 88.2793ZM243.276 62.6995L242.362 62.2933L242.357 62.304L242.353 62.3148L243.276 62.6995ZM244.578 60.7771L243.871 60.07L244.578 60.7771ZM246.532 59.4749L246.916 60.3979L246.927 60.3934L246.938 60.3887L246.532 59.4749ZM267.026 59.4749L266.62 60.3887L266.631 60.3934L266.642 60.3979L267.026 59.4749ZM268.949 60.7771L268.228 61.4707L268.242 61.4843L268.255 61.4974L268.949 60.7771ZM270.251 62.6995L269.328 63.0841L269.332 63.0949L269.337 63.1056L270.251 62.6995ZM270.747 70.668V71.668H271.747V70.668H270.747ZM264.639 70.668H263.639V71.668H264.639V70.668ZM264.639 65.0869H265.639V64.0869H264.639V65.0869ZM247.888 65.0869V85.8918H249.888V65.0869H247.888ZM248.888 86.8918H264.639V84.8918H248.888V86.8918ZM265.639 85.8918V80.3108H263.639V85.8918H265.639ZM264.639 81.3108H270.747V79.3108H264.639V81.3108ZM269.747 80.3108V85.8918H271.747V80.3108H269.747ZM269.747 85.8918C269.747 86.6053 269.609 87.2621 269.337 87.8732L271.165 88.6854C271.555 87.8082 271.747 86.8734 271.747 85.8918H269.747ZM269.328 87.8947C269.067 88.5209 268.705 89.0618 268.242 89.5256L269.656 90.9398C270.308 90.2873 270.815 89.526 271.174 88.6639L269.328 87.8947ZM268.242 89.5256C267.797 89.9702 267.26 90.3366 266.62 90.6211L267.433 92.4487C268.281 92.0717 269.026 91.57 269.656 90.9398L268.242 89.5256ZM266.642 90.6118C266.026 90.8685 265.361 91 264.639 91V93C265.612 93 266.539 92.8214 267.411 92.458L266.642 90.6118ZM264.639 91H248.888V93H264.639V91ZM248.888 91C248.19 91 247.535 90.8698 246.916 90.6118L246.147 92.458C247.016 92.8201 247.933 93 248.888 93V91ZM246.938 90.6211C246.294 90.3352 245.742 89.965 245.272 89.5123L243.885 90.953C244.531 91.5752 245.28 92.0732 246.125 92.4487L246.938 90.6211ZM245.298 89.539C244.846 89.069 244.476 88.5164 244.19 87.8732L242.362 88.6854C242.738 89.5305 243.236 90.2801 243.858 90.9263L245.298 89.539ZM244.199 87.8947C243.942 87.2786 243.811 86.6142 243.811 85.8918H241.811C241.811 86.8645 241.989 87.7917 242.353 88.6639L244.199 87.8947ZM243.811 85.8918V65.0869H241.811V85.8918H243.811ZM243.811 65.0869C243.811 64.3646 243.942 63.7002 244.199 63.0841L242.353 62.3148C241.989 63.1871 241.811 64.1143 241.811 65.0869H243.811ZM244.19 63.1056C244.474 62.4655 244.841 61.9288 245.285 61.4842L243.871 60.07C243.241 60.7002 242.739 61.4451 242.362 62.2933L244.19 63.1056ZM245.285 61.4842C245.749 61.0205 246.29 60.6589 246.916 60.3979L246.147 58.5518C245.285 58.911 244.524 59.4175 243.871 60.07L245.285 61.4842ZM246.938 60.3887C247.552 60.1157 248.199 59.9788 248.888 59.9788V57.9788C247.923 57.9788 246.999 58.1726 246.125 58.561L246.938 60.3887ZM248.888 59.9788H264.639V57.9788H248.888V59.9788ZM264.639 59.9788C265.352 59.9788 266.009 60.1171 266.62 60.3887L267.433 58.561C266.555 58.1712 265.621 57.9788 264.639 57.9788V59.9788ZM266.642 60.3979C267.265 60.6575 267.79 61.0153 268.228 61.4707L269.669 60.0835C269.033 59.4227 268.276 58.9123 267.411 58.5518L266.642 60.3979ZM268.255 61.4974C268.711 61.936 269.068 62.4611 269.328 63.0841L271.174 62.3148C270.814 61.4495 270.303 60.6931 269.642 60.0568L268.255 61.4974ZM269.337 63.1056C269.609 63.7167 269.747 64.3735 269.747 65.0869H271.747C271.747 64.1053 271.555 63.1705 271.165 62.2933L269.337 63.1056ZM269.747 65.0869V70.668H271.747V65.0869H269.747ZM270.747 69.668H264.639V71.668H270.747V69.668ZM265.639 70.668V65.0869H263.639V70.668H265.639ZM264.639 64.0869H248.888V66.0869H264.639V64.0869ZM303.806 92V93H304.806V92H303.806ZM297.697 92H296.697V93H297.697V92ZM297.697 65.0869H298.697V64.0869H297.697V65.0869ZM280.675 65.0869V64.0869H279.675V65.0869H280.675ZM280.675 92V93H281.675V92H280.675ZM274.598 92H273.598V93H274.598V92ZM274.598 46.2664V45.2664H273.598V46.2664H274.598ZM280.675 46.2664H281.675V45.2664H280.675V46.2664ZM280.675 64.8079H279.675L281.674 64.8591L280.675 64.8079ZM281.233 62.5444L282.138 62.9703L282.143 62.9602L281.233 62.5444ZM282.536 60.6841L283.229 61.4049L283.229 61.4044L282.536 60.6841ZM284.458 59.4438L284.829 60.3723L284.841 60.3678L284.852 60.363L284.458 59.4438ZM300.085 59.4749L299.679 60.3887L299.689 60.3934L299.7 60.3979L300.085 59.4749ZM302.007 60.7771L301.287 61.4707L301.3 61.4843L301.314 61.4974L302.007 60.7771ZM303.309 62.6995L302.386 63.0841L302.391 63.0949L302.396 63.1056L303.309 62.6995ZM303.806 91H297.697V93H303.806V91ZM298.697 92V65.0869H296.697V92H298.697ZM297.697 64.0869H280.675V66.0869H297.697V64.0869ZM279.675 65.0869V92H281.675V65.0869H279.675ZM280.675 91H274.598V93H280.675V91ZM275.598 92V46.2664H273.598V92H275.598ZM274.598 47.2664H280.675V45.2664H274.598V47.2664ZM279.675 46.2664V64.8079H281.675V46.2664H279.675ZM281.674 64.8591C281.709 64.1775 281.865 63.5508 282.138 62.9702L280.328 62.1186C279.94 62.9436 279.724 63.8259 279.677 64.7566L281.674 64.8591ZM282.143 62.9602C282.425 62.3434 282.788 61.8288 283.229 61.4049L281.842 59.9632C281.208 60.5729 280.703 61.2985 280.324 62.1287L282.143 62.9602ZM283.229 61.4044C283.694 60.957 284.225 60.6141 284.829 60.3723L284.087 58.5154C283.244 58.8524 282.494 59.3363 281.842 59.9638L283.229 61.4044ZM284.852 60.363C285.445 60.109 286.085 59.9788 286.783 59.9788V57.9788C285.828 57.9788 284.918 58.1586 284.064 58.5247L284.852 60.363ZM286.783 59.9788H297.697V57.9788H286.783V59.9788ZM297.697 59.9788C298.411 59.9788 299.068 60.1171 299.679 60.3887L300.491 58.561C299.614 58.1712 298.679 57.9788 297.697 57.9788V59.9788ZM299.7 60.3979C300.323 60.6575 300.848 61.0153 301.287 61.4707L302.728 60.0835C302.091 59.4227 301.335 58.9123 300.469 58.5518L299.7 60.3979ZM301.314 61.4974C301.769 61.936 302.127 62.4611 302.386 63.0841L304.233 62.3148C303.872 61.4495 303.362 60.6931 302.701 60.0568L301.314 61.4974ZM302.396 63.1056C302.667 63.7167 302.806 64.3735 302.806 65.0869H304.806C304.806 64.1053 304.613 63.1705 304.223 62.2933L302.396 63.1056ZM302.806 65.0869V92H304.806V65.0869H302.806ZM308.091 75.2258L307.177 74.8197L307.171 74.8319L308.091 75.2258ZM309.393 73.2725L308.686 72.5654L308.679 72.572L308.673 72.5788L309.393 73.2725ZM311.346 71.9702L311.731 72.8933L311.742 72.8888L311.752 72.884L311.346 71.9702ZM329.454 71.4741V72.4741H330.454V71.4741H329.454ZM329.454 65.0869H330.454V64.0869H329.454V65.0869ZM309.517 65.0869H308.517V66.0869H309.517V65.0869ZM309.517 58.9788V57.9788H308.517V58.9788H309.517ZM331.841 59.4749L331.435 60.3887L331.446 60.3934L331.456 60.3979L331.841 59.4749ZM333.763 60.7771L333.043 61.4707L333.056 61.4843L333.07 61.4974L333.763 60.7771ZM335.066 62.6995L334.143 63.0841L334.147 63.0949L334.152 63.1056L335.066 62.6995ZM335.562 92V93H336.562V92H335.562ZM329.454 92H328.454V93H329.454V92ZM329.454 86.4189H330.454L328.457 86.3381L329.454 86.4189ZM327.469 90.3877L328.148 91.1225L328.149 91.1215L327.469 90.3877ZM311.346 91.5349L310.94 92.4487L310.951 92.4535L310.962 92.458L311.346 91.5349ZM309.393 90.2327L308.673 90.9263L308.686 90.9399L308.699 90.953L309.393 90.2327ZM308.091 88.2793L307.167 88.6639L307.172 88.6747L307.177 88.6854L308.091 88.2793ZM313.703 85.8918H312.703V86.8918H313.703V85.8918ZM329.454 85.8918V86.8918H330.454V85.8918H329.454ZM329.454 77.5823H330.454V76.5823H329.454V77.5823ZM313.703 77.5823V76.5823H312.703V77.5823H313.703ZM308.625 77.5823C308.625 76.8597 308.757 76.2094 309.01 75.6197L307.171 74.8319C306.804 75.6892 306.625 76.6099 306.625 77.5823H308.625ZM309.004 75.632C309.29 74.9887 309.661 74.4362 310.113 73.9661L308.673 72.5788C308.05 73.225 307.552 73.9747 307.177 74.8197L309.004 75.632ZM310.1 73.9796C310.564 73.5158 311.105 73.1542 311.731 72.8933L310.962 71.0471C310.1 71.4063 309.338 71.9129 308.686 72.5654L310.1 73.9796ZM311.752 72.884C312.367 72.611 313.014 72.4741 313.703 72.4741V70.4741C312.738 70.4741 311.814 70.668 310.94 71.0564L311.752 72.884ZM313.703 72.4741H329.454V70.4741H313.703V72.4741ZM330.454 71.4741V65.0869H328.454V71.4741H330.454ZM329.454 64.0869H309.517V66.0869H329.454V64.0869ZM310.517 65.0869V58.9788H308.517V65.0869H310.517ZM309.517 59.9788H329.454V57.9788H309.517V59.9788ZM329.454 59.9788C330.167 59.9788 330.824 60.1171 331.435 60.3887L332.247 58.561C331.37 58.1712 330.435 57.9788 329.454 57.9788V59.9788ZM331.456 60.3979C332.079 60.6575 332.605 61.0153 333.043 61.4707L334.484 60.0835C333.847 59.4227 333.091 58.9123 332.226 58.5518L331.456 60.3979ZM333.07 61.4974C333.525 61.936 333.883 62.4611 334.143 63.0841L335.989 62.3148C335.628 61.4495 335.118 60.6931 334.457 60.0568L333.07 61.4974ZM334.152 63.1056C334.423 63.7167 334.562 64.3735 334.562 65.0869H336.562C336.562 64.1053 336.369 63.1705 335.979 62.2933L334.152 63.1056ZM334.562 65.0869V92H336.562V65.0869H334.562ZM335.562 91H329.454V93H335.562V91ZM330.454 92V86.4189H328.454V92H330.454ZM328.457 86.3381C328.406 86.9713 328.235 87.5666 327.945 88.1314L329.722 89.0473C330.134 88.2478 330.378 87.3962 330.45 86.4998L328.457 86.3381ZM327.945 88.1314C327.646 88.711 327.262 89.2169 326.79 89.6539L328.149 91.1215C328.793 90.5249 329.318 89.8319 329.722 89.0473L327.945 88.1314ZM326.791 89.6529C326.344 90.0654 325.826 90.3952 325.228 90.6412L325.99 92.4906C326.798 92.1579 327.52 91.7022 328.148 91.1225L326.791 89.6529ZM325.228 90.6412C324.65 90.8792 324.036 91 323.376 91V93C324.288 93 325.162 92.8314 325.99 92.4906L325.228 90.6412ZM323.376 91H313.703V93H323.376V91ZM313.703 91C313.004 91 312.35 90.8698 311.731 90.6118L310.962 92.458C311.831 92.8201 312.747 93 313.703 93V91ZM311.752 90.6211C311.109 90.3352 310.557 89.965 310.086 89.5123L308.699 90.953C309.345 91.5752 310.095 92.0732 310.94 92.4487L311.752 90.6211ZM310.113 89.539C309.661 89.069 309.29 88.5164 309.004 87.8732L307.177 88.6854C307.552 89.5305 308.05 90.2801 308.673 90.9263L310.113 89.539ZM309.014 87.8947C308.757 87.2786 308.625 86.6142 308.625 85.8918H306.625C306.625 86.8645 306.804 87.7917 307.167 88.6639L309.014 87.8947ZM308.625 85.8918V77.5823H306.625V85.8918H308.625ZM313.703 86.8918H329.454V84.8918H313.703V86.8918ZM330.454 85.8918V77.5823H328.454V85.8918H330.454ZM329.454 76.5823H313.703V78.5823H329.454V76.5823ZM312.703 77.5823V85.8918H314.703V77.5823H312.703ZM345.49 65.0869V64.0869H344.49V65.0869H345.49ZM345.49 92V93H346.49V92H345.49ZM339.413 92H338.413V93H339.413V92ZM339.413 58.9788V57.9788H338.413V58.9788H339.413ZM345.49 58.9788H346.49V57.9788H345.49V58.9788ZM345.49 64.8079H344.49L346.489 64.8591L345.49 64.8079ZM346.048 62.5444L346.953 62.9703L346.957 62.9602L346.048 62.5444ZM347.35 60.6841L348.043 61.4049L348.044 61.4044L347.35 60.6841ZM349.273 59.4438L349.644 60.3723L349.655 60.3678L349.666 60.363L349.273 59.4438ZM360.435 59.4749L360.019 60.3843L360.034 60.3914L360.05 60.3979L360.435 59.4749ZM362.388 60.7771L361.681 61.4842L361.688 61.4909L361.694 61.4974L362.388 60.7771ZM363.69 62.6995L362.767 63.0841L362.772 63.0949L362.776 63.1056L363.69 62.6995ZM364.186 70.668V71.668H365.186V70.668H364.186ZM358.078 70.668H357.078V71.668H358.078V70.668ZM358.078 65.0869H359.078V64.0869H358.078V65.0869ZM344.49 65.0869V92H346.49V65.0869H344.49ZM345.49 91H339.413V93H345.49V91ZM340.413 92V58.9788H338.413V92H340.413ZM339.413 59.9788H345.49V57.9788H339.413V59.9788ZM344.49 58.9788V64.8079H346.49V58.9788H344.49ZM346.489 64.8591C346.523 64.1775 346.68 63.5508 346.953 62.9702L345.143 62.1186C344.755 62.9436 344.539 63.8259 344.491 64.7566L346.489 64.8591ZM346.957 62.9602C347.239 62.3434 347.602 61.8288 348.043 61.4049L346.657 59.9632C346.023 60.5729 345.518 61.2985 345.138 62.1287L346.957 62.9602ZM348.044 61.4044C348.508 60.957 349.04 60.6141 349.644 60.3723L348.901 58.5154C348.059 58.8524 347.308 59.3363 346.657 59.9638L348.044 61.4044ZM349.666 60.363C350.259 60.109 350.9 59.9788 351.598 59.9788V57.9788C350.643 57.9788 349.733 58.1586 348.879 58.5247L349.666 60.363ZM351.598 59.9788H358.078V57.9788H351.598V59.9788ZM358.078 59.9788C358.792 59.9788 359.434 60.1171 360.019 60.3843L360.85 58.5654C359.988 58.1711 359.06 57.9788 358.078 57.9788V59.9788ZM360.05 60.3979C360.676 60.6589 361.217 61.0205 361.681 61.4842L363.095 60.07C362.443 59.4175 361.681 58.911 360.819 58.5518L360.05 60.3979ZM361.694 61.4974C362.15 61.936 362.508 62.4611 362.767 63.0841L364.613 62.3148C364.253 61.4495 363.742 60.6931 363.082 60.0568L361.694 61.4974ZM362.776 63.1056C363.048 63.7167 363.186 64.3735 363.186 65.0869H365.186C365.186 64.1053 364.994 63.1705 364.604 62.2933L362.776 63.1056ZM363.186 65.0869V70.668H365.186V65.0869H363.186ZM364.186 69.668H358.078V71.668H364.186V69.668ZM359.078 70.668V65.0869H357.078V70.668H359.078ZM358.078 64.0869H345.49V66.0869H358.078V64.0869ZM365.898 62.6995L364.984 62.2933L364.979 62.304L364.975 62.3148L365.898 62.6995ZM367.2 60.7771L366.493 60.07L367.2 60.7771ZM369.154 59.4749L369.538 60.3979L369.549 60.3934L369.56 60.3887L369.154 59.4749ZM388.532 58.9788V59.9788H389.532V58.9788H388.532ZM388.532 46.2664V45.2664H387.532V46.2664H388.532ZM394.64 46.2664H395.64V45.2664H394.64V46.2664ZM394.64 92V93H395.64V92H394.64ZM388.532 92H387.532V93H388.532V92ZM388.532 86.4189H389.532L387.535 86.3381L388.532 86.4189ZM386.548 90.3877L387.226 91.1225L387.227 91.1215L386.548 90.3877ZM369.154 91.5349L368.747 92.4487L368.758 92.4535L368.769 92.458L369.154 91.5349ZM367.2 90.2327L366.48 90.9263L366.493 90.9399L366.507 90.953L367.2 90.2327ZM365.898 88.2793L364.975 88.6639L364.979 88.6747L364.984 88.6854L365.898 88.2793ZM371.51 85.8918H370.51V86.8918H371.51V85.8918ZM388.532 85.8918V86.8918H389.532V85.8918H388.532ZM388.532 65.0869H389.532V64.0869H388.532V65.0869ZM371.51 65.0869V64.0869H370.51V65.0869H371.51ZM366.433 65.0869C366.433 64.3646 366.564 63.7002 366.821 63.0841L364.975 62.3148C364.611 63.1871 364.433 64.1143 364.433 65.0869H366.433ZM366.812 63.1056C367.096 62.4655 367.463 61.9288 367.907 61.4842L366.493 60.07C365.863 60.7002 365.361 61.4451 364.984 62.2933L366.812 63.1056ZM367.907 61.4842C368.371 61.0205 368.912 60.6589 369.538 60.3979L368.769 58.5518C367.907 58.911 367.146 59.4175 366.493 60.07L367.907 61.4842ZM369.56 60.3887C370.174 60.1157 370.821 59.9788 371.51 59.9788V57.9788C370.545 57.9788 369.621 58.1726 368.747 58.561L369.56 60.3887ZM371.51 59.9788H388.532V57.9788H371.51V59.9788ZM389.532 58.9788V46.2664H387.532V58.9788H389.532ZM388.532 47.2664H394.64V45.2664H388.532V47.2664ZM393.64 46.2664V92H395.64V46.2664H393.64ZM394.64 91H388.532V93H394.64V91ZM389.532 92V86.4189H387.532V92H389.532ZM387.535 86.3381C387.484 86.9713 387.314 87.5666 387.023 88.1314L388.801 89.0473C389.213 88.2478 389.456 87.3962 389.529 86.4998L387.535 86.3381ZM387.023 88.1314C386.724 88.711 386.34 89.2169 385.868 89.6539L387.227 91.1215C387.871 90.5249 388.397 89.8319 388.801 89.0473L387.023 88.1314ZM385.87 89.6529C385.423 90.0654 384.904 90.3952 384.307 90.6412L385.068 92.4906C385.876 92.1579 386.598 91.7022 387.226 91.1225L385.87 89.6529ZM384.307 90.6412C383.729 90.8792 383.114 91 382.455 91V93C383.367 93 384.241 92.8314 385.068 92.4906L384.307 90.6412ZM382.455 91H371.51V93H382.455V91ZM371.51 91C370.812 91 370.157 90.8698 369.538 90.6118L368.769 92.458C369.638 92.8201 370.555 93 371.51 93V91ZM369.56 90.6211C368.916 90.3352 368.364 89.965 367.894 89.5123L366.507 90.953C367.153 91.5752 367.902 92.0732 368.747 92.4487L369.56 90.6211ZM367.92 89.539C367.468 89.069 367.098 88.5164 366.812 87.8732L364.984 88.6854C365.36 89.5305 365.858 90.2801 366.48 90.9263L367.92 89.539ZM366.821 87.8947C366.564 87.2786 366.433 86.6142 366.433 85.8918H364.433C364.433 86.8645 364.611 87.7917 364.975 88.6639L366.821 87.8947ZM366.433 85.8918V65.0869H364.433V85.8918H366.433ZM371.51 86.8918H388.532V84.8918H371.51V86.8918ZM389.532 85.8918V65.0869H387.532V85.8918H389.532ZM388.532 64.0869H371.51V66.0869H388.532V64.0869ZM370.51 65.0869V85.8918H372.51V65.0869H370.51ZM396.538 58.9788V57.9788H395.538V58.9788H396.538ZM404.599 58.9788V59.9788H405.599V58.9788H404.599ZM404.599 48.8088V47.8088H403.599V48.8088H404.599ZM410.708 48.8088H411.708V47.8088H410.708V48.8088ZM410.708 58.9788H409.708V59.9788H410.708V58.9788ZM421.56 58.9788H422.56V57.9788H421.56V58.9788ZM421.56 65.0869V66.0869H422.56V65.0869H421.56ZM410.708 65.0869V64.0869H409.708V65.0869H410.708ZM410.708 85.8918H409.708V86.8918H410.708V85.8918ZM421.56 85.8918H422.56V84.8918H421.56V85.8918ZM421.56 92V93H422.56V92H421.56ZM408.351 91.5349L407.945 92.4487L407.956 92.4535L407.967 92.458L408.351 91.5349ZM406.398 90.2327L405.691 90.9398L405.697 90.9464L405.704 90.953L406.398 90.2327ZM405.064 88.2793L404.141 88.6639L404.146 88.6747L404.151 88.6854L405.064 88.2793ZM404.599 65.0869H405.599V64.0869H404.599V65.0869ZM396.538 65.0869H395.538V66.0869H396.538V65.0869ZM396.538 59.9788H404.599V57.9788H396.538V59.9788ZM405.599 58.9788V48.8088H403.599V58.9788H405.599ZM404.599 49.8088H410.708V47.8088H404.599V49.8088ZM409.708 48.8088V58.9788H411.708V48.8088H409.708ZM410.708 59.9788H421.56V57.9788H410.708V59.9788ZM420.56 58.9788V65.0869H422.56V58.9788H420.56ZM421.56 64.0869H410.708V66.0869H421.56V64.0869ZM409.708 65.0869V85.8918H411.708V65.0869H409.708ZM410.708 86.8918H421.56V84.8918H410.708V86.8918ZM420.56 85.8918V92H422.56V85.8918H420.56ZM421.56 91H410.708V93H421.56V91ZM410.708 91C410.009 91 409.355 90.8698 408.736 90.6118L407.967 92.458C408.836 92.8201 409.752 93 410.708 93V91ZM408.757 90.6211C408.114 90.3352 407.561 89.965 407.091 89.5123L405.704 90.953C406.35 91.5752 407.1 92.0732 407.945 92.4487L408.757 90.6211ZM407.105 89.5256C406.636 89.057 406.261 88.5088 405.978 87.8732L404.151 88.6854C404.53 89.5381 405.043 90.2921 405.691 90.9398L407.105 89.5256ZM405.988 87.8947C405.731 87.2786 405.599 86.6142 405.599 85.8918H403.599C403.599 86.8645 403.778 87.7917 404.141 88.6639L405.988 87.8947ZM405.599 85.8918V65.0869H403.599V85.8918H405.599ZM404.599 64.0869H396.538V66.0869H404.599V64.0869ZM397.538 65.0869V58.9788H395.538V65.0869H397.538Z" fill="white" mask="url(#path-1-outside-1_14_2)"/>
</g>
<mask id="path-3-outside-2_14_2" maskUnits="userSpaceOnUse" x="9" y="1" width="131" height="92" fill="black">
<rect fill="white" x="9" y="1" width="131" height="92"/>
<path d="M24.3125 53.625C22.5625 53.625 20.8958 53.2917 19.3125 52.625C17.7708 51.9167 16.4167 51 15.25 49.875C14.0833 48.7083 13.1667 47.3542 12.5 45.8125C11.8333 44.2292 11.5 42.5625 11.5 40.8125V15.1875C11.5 13.4375 11.8333 11.7917 12.5 10.25C13.1667 8.66667 14.0833 7.3125 15.25 6.1875C16.4167 5.02083 17.7708 4.10417 19.3125 3.4375C20.8958 2.72917 22.5625 2.375 24.3125 2.375H67.8125C69.5625 2.375 71.2083 2.72917 72.75 3.4375C74.3333 4.10417 75.7083 5.02083 76.875 6.1875C78.0417 7.3125 78.9583 8.66667 79.625 10.25C80.2917 11.7917 80.625 13.4375 80.625 15.1875V26.75H67.8125V15.1875H24.3125V40.8125H67.8125C69.5625 40.8125 71.2083 41.1458 72.75 41.8125C74.3333 42.4792 75.7083 43.3958 76.875 44.5625C78.0417 45.7292 78.9583 47.1042 79.625 48.6875C80.2917 50.2292 80.625 51.875 80.625 53.625V79.1875C80.625 80.9375 80.2917 82.6042 79.625 84.1875C78.9583 85.7292 78.0417 87.0833 76.875 88.25C75.7083 89.4167 74.3333 90.3333 72.75 91C71.2083 91.6667 69.5625 92 67.8125 92H23.0625C21.3125 92 19.6458 91.6667 18.0625 91C16.5208 90.3333 15.1667 89.4167 14 88.25C12.8333 87.0833 11.9167 85.7292 11.25 84.1875C10.5833 82.6042 10.25 80.9375 10.25 79.1875V67.6875H23.0625V79.1875H67.8125V53.625H24.3125ZM126.285 45.25C128.16 45.8333 129.868 46.6667 131.41 47.75C132.952 48.8333 134.264 50.2292 135.347 51.9375C136.431 53.6042 137.264 55.5833 137.847 57.875C138.431 60.1667 138.722 62.7917 138.722 65.75V70.25C138.722 84.75 131.472 92 116.972 92H67.91V2.375H114.41C128.91 2.375 136.16 9.64583 136.16 24.1875V25.8125C136.16 30.8542 135.347 34.9792 133.722 38.1875C132.139 41.3542 129.66 43.7083 126.285 45.25ZM80.4725 52.9375V79.4375H116.597C119.972 79.4375 122.41 78.6458 123.91 77.0625C125.41 75.4792 126.16 73 126.16 69.625V62.6875C126.16 59.2708 125.41 56.7917 123.91 55.25C122.41 53.7083 119.972 52.9375 116.597 52.9375H80.4725ZM80.4725 14.9375V40.4375H114.91C117.993 40.3125 120.202 39.4792 121.535 37.9375C122.91 36.3542 123.597 33.9375 123.597 30.6875V24.8125C123.597 21.3958 122.847 18.8958 121.347 17.3125C119.847 15.7292 117.41 14.9375 114.035 14.9375H80.4725Z"/>
</mask>
<path d="M24.3125 53.625C22.5625 53.625 20.8958 53.2917 19.3125 52.625C17.7708 51.9167 16.4167 51 15.25 49.875C14.0833 48.7083 13.1667 47.3542 12.5 45.8125C11.8333 44.2292 11.5 42.5625 11.5 40.8125V15.1875C11.5 13.4375 11.8333 11.7917 12.5 10.25C13.1667 8.66667 14.0833 7.3125 15.25 6.1875C16.4167 5.02083 17.7708 4.10417 19.3125 3.4375C20.8958 2.72917 22.5625 2.375 24.3125 2.375H67.8125C69.5625 2.375 71.2083 2.72917 72.75 3.4375C74.3333 4.10417 75.7083 5.02083 76.875 6.1875C78.0417 7.3125 78.9583 8.66667 79.625 10.25C80.2917 11.7917 80.625 13.4375 80.625 15.1875V26.75H67.8125V15.1875H24.3125V40.8125H67.8125C69.5625 40.8125 71.2083 41.1458 72.75 41.8125C74.3333 42.4792 75.7083 43.3958 76.875 44.5625C78.0417 45.7292 78.9583 47.1042 79.625 48.6875C80.2917 50.2292 80.625 51.875 80.625 53.625V79.1875C80.625 80.9375 80.2917 82.6042 79.625 84.1875C78.9583 85.7292 78.0417 87.0833 76.875 88.25C75.7083 89.4167 74.3333 90.3333 72.75 91C71.2083 91.6667 69.5625 92 67.8125 92H23.0625C21.3125 92 19.6458 91.6667 18.0625 91C16.5208 90.3333 15.1667 89.4167 14 88.25C12.8333 87.0833 11.9167 85.7292 11.25 84.1875C10.5833 82.6042 10.25 80.9375 10.25 79.1875V67.6875H23.0625V79.1875H67.8125V53.625H24.3125ZM126.285 45.25C128.16 45.8333 129.868 46.6667 131.41 47.75C132.952 48.8333 134.264 50.2292 135.347 51.9375C136.431 53.6042 137.264 55.5833 137.847 57.875C138.431 60.1667 138.722 62.7917 138.722 65.75V70.25C138.722 84.75 131.472 92 116.972 92H67.91V2.375H114.41C128.91 2.375 136.16 9.64583 136.16 24.1875V25.8125C136.16 30.8542 135.347 34.9792 133.722 38.1875C132.139 41.3542 129.66 43.7083 126.285 45.25ZM80.4725 52.9375V79.4375H116.597C119.972 79.4375 122.41 78.6458 123.91 77.0625C125.41 75.4792 126.16 73 126.16 69.625V62.6875C126.16 59.2708 125.41 56.7917 123.91 55.25C122.41 53.7083 119.972 52.9375 116.597 52.9375H80.4725ZM80.4725 14.9375V40.4375H114.91C117.993 40.3125 120.202 39.4792 121.535 37.9375C122.91 36.3542 123.597 33.9375 123.597 30.6875V24.8125C123.597 21.3958 122.847 18.8958 121.347 17.3125C119.847 15.7292 117.41 14.9375 114.035 14.9375H80.4725Z" fill="#3DCFB6"/>
<path d="M19.3125 52.625L18.895 53.5337L18.9096 53.5404L18.9244 53.5466L19.3125 52.625ZM15.25 49.875L14.5429 50.5821L14.5493 50.5885L14.5559 50.5948L15.25 49.875ZM12.5 45.8125L11.5783 46.2006L11.5821 46.2094L12.5 45.8125ZM12.5 10.25L13.4179 10.6469L13.4216 10.6381L12.5 10.25ZM15.25 6.1875L15.9441 6.90734L15.9507 6.90103L15.9571 6.89461L15.25 6.1875ZM19.3125 3.4375L19.7094 4.35543L19.7209 4.35032L19.3125 3.4375ZM72.75 3.4375L72.3325 4.34618L72.3471 4.35289L72.3619 4.35914L72.75 3.4375ZM76.875 6.1875L76.1679 6.89461L76.1743 6.90103L76.1809 6.90734L76.875 6.1875ZM79.625 10.25L78.7033 10.6381L78.7071 10.6469L79.625 10.25ZM80.625 26.75V27.75H81.625V26.75H80.625ZM67.8125 26.75H66.8125V27.75H67.8125V26.75ZM67.8125 15.1875H68.8125V14.1875H67.8125V15.1875ZM24.3125 15.1875V14.1875H23.3125V15.1875H24.3125ZM24.3125 40.8125H23.3125V41.8125H24.3125V40.8125ZM72.75 41.8125L72.3531 42.7304L72.3619 42.7341L72.75 41.8125ZM79.625 48.6875L78.7033 49.0756L78.7071 49.0844L79.625 48.6875ZM79.625 84.1875L80.5429 84.5844L80.5466 84.5756L79.625 84.1875ZM72.75 91L72.3619 90.0783L72.3531 90.0821L72.75 91ZM18.0625 91L17.6656 91.9179L17.6744 91.9216L18.0625 91ZM14 88.25L13.2929 88.9571L14 88.25ZM11.25 84.1875L10.3283 84.5756L10.3321 84.5844L11.25 84.1875ZM10.25 67.6875V66.6875H9.25V67.6875H10.25ZM23.0625 67.6875H24.0625V66.6875H23.0625V67.6875ZM23.0625 79.1875H22.0625V80.1875H23.0625V79.1875ZM67.8125 79.1875V80.1875H68.8125V79.1875H67.8125ZM67.8125 53.625H68.8125V52.625H67.8125V53.625ZM24.3125 52.625C22.6932 52.625 21.1587 52.3173 19.7006 51.7034L18.9244 53.5466C20.6329 54.266 22.4318 54.625 24.3125 54.625V52.625ZM19.73 51.7163C18.2857 51.0527 17.0261 50.1985 15.9441 49.1552L14.5559 50.5948C15.8072 51.8015 17.256 52.7806 18.895 53.5337L19.73 51.7163ZM15.9571 49.1679C14.8813 48.092 14.0354 46.8436 13.4179 45.4156L11.5821 46.2094C12.2979 47.8647 13.2854 49.3246 14.5429 50.5821L15.9571 49.1679ZM13.4216 45.4244C12.8077 43.9663 12.5 42.4318 12.5 40.8125H10.5C10.5 42.6932 10.859 44.4921 11.5784 46.2006L13.4216 45.4244ZM12.5 40.8125V15.1875H10.5V40.8125H12.5ZM12.5 15.1875C12.5 13.5682 12.8076 12.058 13.4179 10.6469L11.5821 9.85309C10.859 11.5253 10.5 13.3068 10.5 15.1875H12.5ZM13.4216 10.6381C14.0389 9.17198 14.8808 7.93273 15.9441 6.90734L14.5559 5.46766C13.2859 6.69227 12.2944 8.16136 11.5784 9.86194L13.4216 10.6381ZM15.9571 6.89461C17.033 5.81875 18.2814 4.97289 19.7094 4.35536L18.9156 2.51964C17.2603 3.23545 15.8004 4.22292 14.5429 5.48039L15.9571 6.89461ZM19.7209 4.35032C21.1746 3.69998 22.7019 3.375 24.3125 3.375V1.375C22.4231 1.375 20.6171 1.75835 18.9041 2.52468L19.7209 4.35032ZM24.3125 3.375H67.8125V1.375H24.3125V3.375ZM67.8125 3.375C69.423 3.375 70.926 3.69993 72.3325 4.34618L73.1675 2.52882C71.4907 1.7584 69.702 1.375 67.8125 1.375V3.375ZM72.3619 4.35914C73.8311 4.97771 75.0965 5.82318 76.1679 6.89461L77.5821 5.48039C76.3202 4.21849 74.8356 3.23062 73.1381 2.51586L72.3619 4.35914ZM76.1809 6.90734C77.2442 7.93273 78.0861 9.17198 78.7034 10.6381L80.5466 9.86194C79.8306 8.16136 78.8391 6.69227 77.5691 5.46766L76.1809 6.90734ZM78.7071 10.6469C79.3174 12.058 79.625 13.5682 79.625 15.1875H81.625C81.625 13.3068 81.266 11.5253 80.5429 9.85309L78.7071 10.6469ZM79.625 15.1875V26.75H81.625V15.1875H79.625ZM80.625 25.75H67.8125V27.75H80.625V25.75ZM68.8125 26.75V15.1875H66.8125V26.75H68.8125ZM67.8125 14.1875H24.3125V16.1875H67.8125V14.1875ZM23.3125 15.1875V40.8125H25.3125V15.1875H23.3125ZM24.3125 41.8125H67.8125V39.8125H24.3125V41.8125ZM67.8125 41.8125C69.4318 41.8125 70.942 42.1201 72.3531 42.7304L73.1469 40.8946C71.4747 40.1715 69.6932 39.8125 67.8125 39.8125V41.8125ZM72.3619 42.7341C73.8311 43.3527 75.0965 44.1982 76.1679 45.2696L77.5821 43.8554C76.3202 42.5935 74.8356 41.6056 73.1381 40.8909L72.3619 42.7341ZM76.1679 45.2696C77.2393 46.341 78.0848 47.6064 78.7034 49.0756L80.5466 48.2994C79.8319 46.6019 78.844 45.1173 77.5821 43.8554L76.1679 45.2696ZM78.7071 49.0844C79.3174 50.4955 79.625 52.0057 79.625 53.625H81.625C81.625 51.7443 81.266 49.9628 80.5429 48.2906L78.7071 49.0844ZM79.625 53.625V79.1875H81.625V53.625H79.625ZM79.625 79.1875C79.625 80.8068 79.3173 82.3413 78.7034 83.7994L80.5466 84.5756C81.266 82.8671 81.625 81.0682 81.625 79.1875H79.625ZM78.7071 83.7906C78.0896 85.2186 77.2437 86.467 76.1679 87.5429L77.5821 88.9571C78.8396 87.6996 79.8271 86.2397 80.5429 84.5844L78.7071 83.7906ZM76.1679 87.5429C75.0965 88.6143 73.8311 89.4598 72.3619 90.0784L73.1381 91.9216C74.8356 91.2069 76.3202 90.219 77.5821 88.9571L76.1679 87.5429ZM72.3531 90.0821C70.942 90.6924 69.4318 91 67.8125 91V93C69.6932 93 71.4747 92.641 73.1469 91.9179L72.3531 90.0821ZM67.8125 91H23.0625V93H67.8125V91ZM23.0625 91C21.4432 91 19.9087 90.6923 18.4506 90.0784L17.6744 91.9216C19.3829 92.641 21.1818 93 23.0625 93V91ZM18.4594 90.0821C17.0314 89.4646 15.783 88.6187 14.7071 87.5429L13.2929 88.9571C14.5504 90.2146 16.0103 91.2021 17.6656 91.9179L18.4594 90.0821ZM14.7071 87.5429C13.6313 86.467 12.7854 85.2186 12.1679 83.7906L10.3321 84.5844C11.0479 86.2397 12.0354 87.6996 13.2929 88.9571L14.7071 87.5429ZM12.1716 83.7994C11.5577 82.3413 11.25 80.8068 11.25 79.1875H9.25C9.25 81.0682 9.609 82.8671 10.3284 84.5756L12.1716 83.7994ZM11.25 79.1875V67.6875H9.25V79.1875H11.25ZM10.25 68.6875H23.0625V66.6875H10.25V68.6875ZM22.0625 67.6875V79.1875H24.0625V67.6875H22.0625ZM23.0625 80.1875H67.8125V78.1875H23.0625V80.1875ZM68.8125 79.1875V53.625H66.8125V79.1875H68.8125ZM67.8125 52.625H24.3125V54.625H67.8125V52.625ZM126.285 45.25L125.87 44.3404L123.49 45.4276L125.988 46.2049L126.285 45.25ZM135.347 51.9375L134.503 52.4731L134.509 52.4825L135.347 51.9375ZM67.91 92H66.91V93H67.91V92ZM67.91 2.375V1.375H66.91V2.375H67.91ZM133.722 38.1875L132.83 37.7357L132.828 37.7403L133.722 38.1875ZM80.4725 52.9375V51.9375H79.4725V52.9375H80.4725ZM80.4725 79.4375H79.4725V80.4375H80.4725V79.4375ZM123.91 77.0625L123.184 76.3748L123.91 77.0625ZM80.4725 14.9375V13.9375H79.4725V14.9375H80.4725ZM80.4725 40.4375H79.4725V41.4375H80.4725V40.4375ZM114.91 40.4375V41.4375H114.93L114.951 41.4367L114.91 40.4375ZM121.535 37.9375L120.78 37.2818L120.779 37.2833L121.535 37.9375ZM125.988 46.2049C127.768 46.7587 129.382 47.547 130.835 48.5682L131.985 46.9318C130.355 45.7863 128.552 44.908 126.582 44.2951L125.988 46.2049ZM130.835 48.5682C132.261 49.5705 133.485 50.8675 134.503 52.473L136.192 51.402C135.044 49.5909 133.642 48.0961 131.985 46.9318L130.835 48.5682ZM134.509 52.4825C135.523 54.042 136.317 55.9164 136.878 58.1217L138.817 57.6283C138.211 55.2503 137.339 53.1663 136.186 51.3925L134.509 52.4825ZM136.878 58.1217C137.437 60.3155 137.722 62.855 137.722 65.75H139.722C139.722 62.7283 139.425 60.0178 138.817 57.6283L136.878 58.1217ZM137.722 65.75V70.25H139.722V65.75H137.722ZM137.722 70.25C137.722 77.3459 135.949 82.4841 132.578 85.8554C129.207 89.2267 124.068 91 116.972 91V93C124.377 93 130.113 91.1483 133.992 87.2696C137.871 83.3909 139.722 77.6541 139.722 70.25H137.722ZM116.972 91H67.91V93H116.972V91ZM68.91 92V2.375H66.91V92H68.91ZM67.91 3.375H114.41V1.375H67.91V3.375ZM114.41 3.375C121.505 3.375 126.643 5.15311 130.014 8.53422C133.386 11.9159 135.16 17.0701 135.16 24.1875H137.16C137.16 16.7632 135.309 11.0112 131.431 7.12203C127.552 3.23231 121.815 1.375 114.41 1.375V3.375ZM135.16 24.1875V25.8125H137.16V24.1875H135.16ZM135.16 25.8125C135.16 30.7565 134.362 34.7121 132.83 37.7357L134.615 38.6393C136.333 35.2462 137.16 30.9519 137.16 25.8125H135.16ZM132.828 37.7403C131.352 40.6923 129.048 42.8887 125.87 44.3404L126.7 46.1596C130.272 44.5279 132.926 42.016 134.617 38.6347L132.828 37.7403ZM79.4725 52.9375V79.4375H81.4725V52.9375H79.4725ZM80.4725 80.4375H116.597V78.4375H80.4725V80.4375ZM116.597 80.4375C120.099 80.4375 122.865 79.6195 124.636 77.7502L123.184 76.3748C121.955 77.6722 119.846 78.4375 116.597 78.4375V80.4375ZM124.636 77.7502C126.387 75.9018 127.16 73.1203 127.16 69.625H125.16C125.16 72.8797 124.433 75.0565 123.184 76.3748L124.636 77.7502ZM127.16 69.625V62.6875H125.16V69.625H127.16ZM127.16 62.6875C127.16 59.1577 126.39 56.3651 124.627 54.5526L123.193 55.9474C124.43 57.2182 125.16 59.384 125.16 62.6875H127.16ZM124.627 54.5526C122.855 52.7316 120.093 51.9375 116.597 51.9375V53.9375C119.852 53.9375 121.965 54.6851 123.193 55.9474L124.627 54.5526ZM116.597 51.9375H80.4725V53.9375H116.597V51.9375ZM79.4725 14.9375V40.4375H81.4725V14.9375H79.4725ZM80.4725 41.4375H114.91V39.4375H80.4725V41.4375ZM114.951 41.4367C118.169 41.3062 120.702 40.4293 122.291 38.5917L120.779 37.2833C119.701 38.529 117.818 39.3188 114.869 39.4383L114.951 41.4367ZM122.29 38.5932C123.89 36.7509 124.597 34.0518 124.597 30.6875H122.597C122.597 33.8232 121.93 35.9574 120.78 37.2818L122.29 38.5932ZM124.597 30.6875V24.8125H122.597V30.6875H124.597ZM124.597 24.8125C124.597 21.2796 123.826 18.4751 122.073 16.6248L120.622 18.0002C121.869 19.3166 122.597 21.5121 122.597 24.8125H124.597ZM122.073 16.6248C120.303 14.7555 117.537 13.9375 114.035 13.9375V15.9375C117.283 15.9375 119.392 16.7028 120.622 18.0002L122.073 16.6248ZM114.035 13.9375H80.4725V15.9375H114.035V13.9375Z" fill="#3DCFB6" mask="url(#path-3-outside-2_14_2)"/>
<defs>
<filter id="filter0_d_14_2" x="141.085" y="0.537598" width="285.475" height="100.462" filterUnits="userSpaceOnUse" color-interpolation-filters="sRGB">
<feFlood flood-opacity="0" result="BackgroundImageFix"/>
<feColorMatrix in="SourceAlpha" type="matrix" values="0 0 0 0 0 0 0 0 0 0 0 0 0 0 0 0 0 0 127 0" result="hardAlpha"/>
<feOffset dy="4"/>
<feGaussianBlur stdDeviation="2"/>
<feComposite in2="hardAlpha" operator="out"/>
<feColorMatrix type="matrix" values="0 0 0 0 0 0 0 0 0 0 0 0 0 0 0 0 0 0 0.25 0"/>
<feBlend mode="normal" in2="BackgroundImageFix" result="effect1_dropShadow_14_2"/>
<feBlend mode="normal" in="SourceGraphic" in2="effect1_dropShadow_14_2" result="shape"/>
</filter>
</defs>
</svg>
